<?xml version="1.0" encoding="UTF-8"?><svg id="Ebene_1" xmlns="http://www.w3.org/2000/svg" xmlns:xlink="http://www.w3.org/1999/xlink" viewBox="0 0 427.52 422.92"><defs><style>.cls-1{stroke:#ee6c4d;stroke-dasharray:0 0 4 2;}.cls-1,.cls-2,.cls-3,.cls-4,.cls-5,.cls-6,.cls-7{fill:none;}.cls-1,.cls-3,.cls-6,.cls-7{stroke-miterlimit:10;}.cls-8{clip-path:url(#clippath);}.cls-2,.cls-9,.cls-10,.cls-11,.cls-12,.cls-13,.cls-14,.cls-15{stroke-width:0px;}.cls-9{fill:#f9bf49;}.cls-16{clip-path:url(#clippath-1);}.cls-10{fill:#000;}.cls-11{fill:#ee6c4d;}.cls-3{stroke-linecap:square;}.cls-3,.cls-5{stroke-width:3px;}.cls-3,.cls-5,.cls-6{stroke:#000;}.cls-4{stroke:#191919;}.cls-4,.cls-5{stroke-linejoin:round;}.cls-7{stroke:#cdd7d6;}.cls-12{fill:#fff;}.cls-13{fill:#d5dcdb;}.cls-14{fill:#cdd7d6;}.cls-15{fill:#293241;}</style><clipPath id="clippath"><rect class="cls-2" width="424.01" height="422.92"/></clipPath><clipPath id="clippath-1"><rect class="cls-2" x="67.65" y="7.2" width="349.16" height="356.18"/></clipPath></defs><g class="cls-8"><rect class="cls-12" x="67.65" y="7.2" width="349.16" height="356.18"/><g class="cls-16"><path class="cls-15" d="M159.43,197.15c1.11,0,2.17-.44,2.96-1.23.79-.78,1.23-1.85,1.23-2.96s-.44-2.17-1.23-2.96c-.78-.78-1.85-1.23-2.96-1.23s-2.17.44-2.96,1.23c-.79.78-1.23,1.85-1.23,2.96s.44,2.17,1.23,2.96c.78.78,1.85,1.23,2.96,1.23"/><path class="cls-4" d="M159.43,197.15c1.11,0,2.17-.44,2.96-1.23.79-.78,1.23-1.85,1.23-2.96s-.44-2.17-1.23-2.96c-.78-.78-1.85-1.23-2.96-1.23s-2.17.44-2.96,1.23c-.79.78-1.23,1.85-1.23,2.96s.44,2.17,1.23,2.96c.78.78,1.85,1.23,2.96,1.23Z"/><path class="cls-15" d="M225.5,282.15c1.11,0,2.17-.44,2.96-1.23.79-.78,1.23-1.85,1.23-2.96s-.44-2.17-1.23-2.96c-.78-.78-1.85-1.23-2.96-1.23s-2.17.44-2.96,1.23c-.79.78-1.23,1.85-1.23,2.96s.44,2.17,1.23,2.96c.78.78,1.85,1.23,2.96,1.23"/><path class="cls-4" d="M225.5,282.15c1.11,0,2.17-.44,2.96-1.23.79-.78,1.23-1.85,1.23-2.96s-.44-2.17-1.23-2.96c-.78-.78-1.85-1.23-2.96-1.23s-2.17.44-2.96,1.23c-.79.78-1.23,1.85-1.23,2.96s.44,2.17,1.23,2.96c.78.78,1.85,1.23,2.96,1.23Z"/><path class="cls-15" d="M278.56,351.37c1.11,0,2.17-.44,2.96-1.22s1.23-1.85,1.23-2.96-.44-2.17-1.23-2.96c-.78-.79-1.85-1.23-2.96-1.23s-2.17.44-2.96,1.23c-.78.78-1.23,1.85-1.23,2.96s.44,2.17,1.23,2.96c.78.78,1.85,1.22,2.96,1.22"/><path class="cls-4" d="M278.56,351.37c1.11,0,2.17-.44,2.96-1.22s1.23-1.85,1.23-2.96-.44-2.17-1.23-2.96c-.78-.79-1.85-1.23-2.96-1.23s-2.17.44-2.96,1.23c-.78.78-1.23,1.85-1.23,2.96s.44,2.17,1.23,2.96c.78.78,1.85,1.22,2.96,1.22Z"/><path class="cls-15" d="M308.08,309.7c1.11,0,2.17-.44,2.96-1.22s1.23-1.85,1.23-2.96-.44-2.17-1.23-2.96c-.78-.79-1.85-1.23-2.96-1.23s-2.17.44-2.96,1.23c-.79.78-1.23,1.85-1.23,2.96s.44,2.17,1.23,2.96,1.85,1.22,2.96,1.22"/><path class="cls-4" d="M308.08,309.7c1.11,0,2.17-.44,2.96-1.22s1.23-1.85,1.23-2.96-.44-2.17-1.23-2.96c-.78-.79-1.85-1.23-2.96-1.23s-2.17.44-2.96,1.23c-.79.78-1.23,1.85-1.23,2.96s.44,2.17,1.23,2.96,1.85,1.22,2.96,1.22Z"/><path class="cls-15" d="M353.91,261.62c1.11,0,2.17-.44,2.96-1.23.79-.78,1.23-1.85,1.23-2.96s-.44-2.17-1.23-2.96c-.78-.78-1.85-1.23-2.96-1.23s-2.17.44-2.96,1.23c-.79.78-1.23,1.85-1.23,2.96s.44,2.17,1.23,2.96c.78.78,1.85,1.23,2.96,1.23"/><path class="cls-4" d="M353.91,261.62c1.11,0,2.17-.44,2.96-1.23.79-.78,1.23-1.85,1.23-2.96s-.44-2.17-1.23-2.96c-.78-.78-1.85-1.23-2.96-1.23s-2.17.44-2.96,1.23c-.79.78-1.23,1.85-1.23,2.96s.44,2.17,1.23,2.96c.78.78,1.85,1.23,2.96,1.23Z"/><path class="cls-15" d="M385.79,158.41c1.11,0,2.17-.44,2.96-1.23s1.23-1.85,1.23-2.96-.44-2.17-1.23-2.96c-.78-.79-1.85-1.23-2.96-1.23s-2.17.44-2.96,1.23c-.79.78-1.23,1.85-1.23,2.96s.44,2.17,1.23,2.96,1.85,1.23,2.96,1.23"/><path class="cls-4" d="M385.79,158.41c1.11,0,2.17-.44,2.96-1.23s1.23-1.85,1.23-2.96-.44-2.17-1.23-2.96c-.78-.79-1.85-1.23-2.96-1.23s-2.17.44-2.96,1.23c-.79.78-1.23,1.85-1.23,2.96s.44,2.17,1.23,2.96,1.85,1.23,2.96,1.23Z"/><path class="cls-15" d="M397.59,133.9c1.11,0,2.17-.44,2.96-1.23s1.23-1.85,1.23-2.96-.44-2.17-1.23-2.96c-.78-.79-1.85-1.23-2.96-1.23s-2.17.44-2.96,1.23c-.79.78-1.23,1.85-1.23,2.96s.44,2.17,1.23,2.96,1.85,1.23,2.96,1.23"/><path class="cls-4" d="M397.59,133.9c1.11,0,2.17-.44,2.96-1.23s1.23-1.85,1.23-2.96-.44-2.17-1.23-2.96c-.78-.79-1.85-1.23-2.96-1.23s-2.17.44-2.96,1.23c-.79.78-1.23,1.85-1.23,2.96s.44,2.17,1.23,2.96,1.85,1.23,2.96,1.23Z"/><path class="cls-15" d="M399.86,137.36c1.11,0,2.17-.44,2.96-1.23s1.23-1.85,1.23-2.96-.44-2.17-1.23-2.96c-.78-.79-1.85-1.23-2.96-1.23s-2.17.44-2.96,1.23c-.79.78-1.23,1.85-1.23,2.96s.44,2.17,1.23,2.96,1.85,1.23,2.96,1.23"/><path class="cls-4" d="M399.86,137.36c1.11,0,2.17-.44,2.96-1.23s1.23-1.85,1.23-2.96-.44-2.17-1.23-2.96c-.78-.79-1.85-1.23-2.96-1.23s-2.17.44-2.96,1.23c-.79.78-1.23,1.85-1.23,2.96s.44,2.17,1.23,2.96,1.85,1.23,2.96,1.23Z"/><path class="cls-15" d="M400.94,136.92c1.11,0,2.17-.44,2.96-1.23.78-.79,1.23-1.85,1.23-2.96s-.44-2.17-1.23-2.96c-.78-.79-1.85-1.23-2.96-1.23s-2.17.44-2.96,1.23c-.79.78-1.23,1.85-1.23,2.96s.44,2.17,1.23,2.96,1.85,1.23,2.96,1.23"/><path class="cls-4" d="M400.94,136.92c1.11,0,2.17-.44,2.96-1.23.78-.79,1.23-1.85,1.23-2.96s-.44-2.17-1.23-2.96c-.78-.79-1.85-1.23-2.96-1.23s-2.17.44-2.96,1.23c-.79.78-1.23,1.85-1.23,2.96s.44,2.17,1.23,2.96,1.85,1.23,2.96,1.23Z"/><path class="cls-11" d="M205.66,245.71c1.11,0,2.17-.44,2.96-1.23.79-.78,1.23-1.85,1.23-2.96s-.44-2.17-1.23-2.96c-.78-.78-1.85-1.23-2.96-1.23s-2.17.44-2.96,1.23c-.79.78-1.23,1.85-1.23,2.96s.44,2.17,1.23,2.96c.78.78,1.85,1.23,2.96,1.23"/><path class="cls-4" d="M205.66,245.71c1.11,0,2.17-.44,2.96-1.23.79-.78,1.23-1.85,1.23-2.96s-.44-2.17-1.23-2.96c-.78-.78-1.85-1.23-2.96-1.23s-2.17.44-2.96,1.23c-.79.78-1.23,1.85-1.23,2.96s.44,2.17,1.23,2.96c.78.78,1.85,1.23,2.96,1.23Z"/><path class="cls-11" d="M249.14,309.94c1.11,0,2.17-.44,2.96-1.22s1.23-1.85,1.23-2.96-.44-2.17-1.23-2.96c-.78-.79-1.85-1.23-2.96-1.23s-2.17.44-2.96,1.23c-.79.78-1.23,1.85-1.23,2.96s.44,2.17,1.23,2.96,1.85,1.22,2.96,1.22"/><path class="cls-4" d="M249.14,309.94c1.11,0,2.17-.44,2.96-1.22s1.23-1.85,1.23-2.96-.44-2.17-1.23-2.96c-.78-.79-1.85-1.23-2.96-1.23s-2.17.44-2.96,1.23c-.79.78-1.23,1.85-1.23,2.96s.44,2.17,1.23,2.96,1.85,1.22,2.96,1.22Z"/><path class="cls-9" d="M83.52,27.57c1.11,0,2.17-.44,2.96-1.23.78-.79,1.22-1.85,1.22-2.96s-.44-2.17-1.22-2.96c-.78-.79-1.85-1.23-2.96-1.23s-2.17.44-2.96,1.23c-.78.78-1.22,1.85-1.22,2.96s.44,2.17,1.22,2.96c.78.78,1.85,1.23,2.96,1.23"/><path class="cls-4" d="M83.52,27.57c1.11,0,2.17-.44,2.96-1.23.78-.79,1.22-1.85,1.22-2.96s-.44-2.17-1.22-2.96c-.78-.79-1.85-1.23-2.96-1.23s-2.17.44-2.96,1.23c-.78.78-1.22,1.85-1.22,2.96s.44,2.17,1.22,2.96c.78.78,1.85,1.23,2.96,1.23Z"/><path class="cls-9" d="M158.88,229.09c1.11,0,2.17-.44,2.96-1.23.79-.78,1.23-1.85,1.23-2.96s-.44-2.17-1.23-2.96c-.78-.78-1.85-1.23-2.96-1.23s-2.17.44-2.96,1.23c-.79.78-1.23,1.85-1.23,2.96s.44,2.17,1.23,2.96c.78.78,1.85,1.23,2.96,1.23"/><path class="cls-4" d="M158.88,229.09c1.11,0,2.17-.44,2.96-1.23.79-.78,1.23-1.85,1.23-2.96s-.44-2.17-1.23-2.96c-.78-.78-1.85-1.23-2.96-1.23s-2.17.44-2.96,1.23c-.79.78-1.23,1.85-1.23,2.96s.44,2.17,1.23,2.96c.78.78,1.85,1.23,2.96,1.23Z"/></g><line class="cls-5" x1="126.19" y1="363.38" x2="126.19" y2="373.38"/><line class="cls-5" x1="201.82" y1="363.38" x2="201.82" y2="373.38"/><line class="cls-5" x1="277.45" y1="363.38" x2="277.45" y2="373.38"/><line class="cls-5" x1="353.08" y1="363.38" x2="353.08" y2="373.38"/><line class="cls-5" x1="67.65" y1="343.23" x2="57.65" y2="343.23"/><line class="cls-5" x1="67.65" y1="298.73" x2="57.65" y2="298.73"/><line class="cls-5" x1="67.65" y1="254.23" x2="57.65" y2="254.23"/><line class="cls-5" x1="67.65" y1="209.73" x2="57.65" y2="209.73"/><line class="cls-5" x1="67.65" y1="165.23" x2="57.65" y2="165.23"/><line class="cls-5" x1="67.65" y1="120.73" x2="57.65" y2="120.73"/><line class="cls-5" x1="67.65" y1="76.23" x2="57.65" y2="76.23"/><line class="cls-5" x1="67.65" y1="31.73" x2="57.65" y2="31.73"/><line class="cls-3" x1="67.65" y1="363.38" x2="67.65" y2="7.2"/><line class="cls-3" x1="67.65" y1="363.38" x2="416.81" y2="363.38"/><path class="cls-10" d="M116.35,382.91h4.56v1.86h-4.56v-1.86Z"/><path class="cls-10" d="M123.81,379.72h-2.39v-1.61c1.93,0,2.61-.31,3.12-1.57h1.55v12.76h-2.28v-9.59Z"/><path class="cls-10" d="M127.69,386.05v-6.24c0-2.19,1.22-3.45,3.46-3.45s3.45,1.26,3.45,3.45v6.24c0,2.17-1.22,3.45-3.45,3.45s-3.46-1.28-3.46-3.45ZM132.33,386.16v-6.46c0-.89-.42-1.31-1.17-1.31s-1.19.42-1.19,1.31v6.46c0,.88.44,1.31,1.19,1.31s1.17-.44,1.17-1.31Z"/><path class="cls-10" d="M194.35,382.91h4.56v1.86h-4.56v-1.86Z"/><path class="cls-10" d="M200.04,386.07v-.89h2.15v.99c0,.93.42,1.31,1.19,1.31s1.17-.4,1.17-1.31v-2.43c0-.89-.38-1.33-1.13-1.33-.86,0-1.19.49-1.22,1.37h-2.15l.42-7.22h6v2.02h-3.98l-.18,2.77c.4-.62,1.08-.97,2.01-.97,1.68,0,2.52,1.13,2.52,3.14v2.55c0,2.19-1.15,3.43-3.39,3.43s-3.39-1.22-3.39-3.43Z"/><path class="cls-10" d="M274.52,386.05v-6.24c0-2.19,1.22-3.45,3.46-3.45s3.45,1.26,3.45,3.45v6.24c0,2.17-1.22,3.45-3.45,3.45s-3.46-1.28-3.46-3.45ZM279.15,386.16v-6.46c0-.89-.42-1.31-1.17-1.31s-1.19.42-1.19,1.31v6.46c0,.88.44,1.31,1.19,1.31s1.17-.44,1.17-1.31Z"/><path class="cls-10" d="M349.49,386.07v-.89h2.15v.99c0,.93.42,1.31,1.18,1.31s1.17-.4,1.17-1.31v-2.43c0-.89-.38-1.33-1.13-1.33-.86,0-1.19.49-1.22,1.37h-2.15l.42-7.22h6v2.02h-3.97l-.18,2.77c.4-.62,1.08-.97,2.01-.97,1.68,0,2.52,1.13,2.52,3.14v2.55c0,2.19-1.15,3.43-3.39,3.43s-3.39-1.22-3.39-3.43Z"/><path class="cls-10" d="M167.95,396.72h3.97c2.72,0,4.02,1.32,4.02,3.95v1.19c0,2.63-1.3,3.97-4.02,3.97h-1.27v6h-2.7v-15.11ZM171.92,403.44c.91,0,1.32-.41,1.32-1.49v-1.36c0-1.08-.41-1.47-1.32-1.47h-1.27v4.32h1.27Z"/><path class="cls-10" d="M177.27,408.01v-7.47c0-2.57,1.4-4.04,3.97-4.04s3.95,1.47,3.95,4.04v1.34h-2.55v-1.47c0-1.06-.5-1.55-1.34-1.55s-1.34.5-1.34,1.55v7.73c0,1.06.5,1.55,1.34,1.55s1.34-.5,1.34-1.55v-1.92h2.55v1.79c0,2.57-1.38,4.04-3.95,4.04s-3.97-1.47-3.97-4.04Z"/><path class="cls-10" d="M189.09,400.48h-2.83v-1.9c2.29,0,3.09-.37,3.69-1.86h1.83v15.11h-2.7v-11.36Z"/><path class="cls-10" d="M202.13,409.2h-5.14v-2.38l4.9-10.11h2.94v10.08h1.27v2.4h-1.27v2.63h-2.7v-2.63ZM202.13,406.81v-5.79l-2.7,5.79h2.7Z"/><path class="cls-10" d="M212.04,399.12h-5.4v-2.4h8.08v2.29l-4.19,12.83h-2.85l4.36-12.72Z"/><path class="cls-10" d="M214.22,409.14h2.7v2.7h-2.7v-2.7Z"/><path class="cls-10" d="M218.78,407.99v-1.06h2.55v1.17c0,1.1.5,1.55,1.4,1.55s1.38-.47,1.38-1.55v-2.87c0-1.06-.45-1.58-1.34-1.58-1.01,0-1.4.58-1.45,1.62h-2.55l.5-8.55h7.1v2.4h-4.71l-.22,3.28c.48-.73,1.27-1.14,2.38-1.14,1.99,0,2.98,1.34,2.98,3.71v3.02c0,2.59-1.36,4.06-4.02,4.06s-4.02-1.45-4.02-4.06Z"/><path class="cls-10" d="M230.74,400.48h-2.83v-1.9c2.29,0,3.09-.37,3.69-1.86h1.83v15.11h-2.7v-11.36Z"/><path class="cls-10" d="M235.09,402.51v-3.41c0-1.66.91-2.59,2.59-2.59s2.59.93,2.59,2.59v3.41c0,1.66-.91,2.59-2.59,2.59s-2.59-.93-2.59-2.59ZM238.56,402.62v-3.63c0-.67-.32-.99-.88-.99s-.89.32-.89.99v3.63c0,.67.3.99.89.99s.88-.32.88-.99ZM243.89,396.72h1.73l-6.65,15.11h-1.71l6.63-15.11ZM242.6,409.44v-3.39c0-1.68.91-2.61,2.59-2.61s2.61.93,2.61,2.61v3.39c0,1.68-.91,2.61-2.61,2.61s-2.59-.93-2.59-2.61ZM246.07,409.57v-3.65c0-.65-.32-.99-.88-.99s-.86.35-.86.99v3.65c0,.65.3.99.86.99s.88-.35.88-.99Z"/><path class="cls-10" d="M252.32,400.82h2.68l1.6,7.95,1.58-7.95h2.48l-2.57,11.01h-3.2l-2.57-11.01Z"/><path class="cls-10" d="M266.79,411.84c-.09-.11-.17-.69-.22-1.58-.41,1.12-1.3,1.79-2.61,1.79-1.66,0-2.72-1.08-2.72-2.85s.71-2.81,2.94-3.58c1.86-.65,2.12-.88,2.12-1.49v-.11c0-.86-.3-1.25-1.06-1.25-.84,0-1.17.5-1.17,1.36v.22h-2.44v-.15c0-2.27,1.25-3.58,3.63-3.58,2.66,0,3.63,1.36,3.63,3.93v4.02c0,1.64.13,2.66.3,3.28h-2.4ZM266.29,407.97v-1.36c-.24.19-.63.41-1.29.69-.84.37-1.17.86-1.17,1.47,0,.71.32,1.1,1.06,1.1.82,0,1.4-.58,1.4-1.9Z"/><path class="cls-10" d="M276.33,400.74v2.5c-.19-.04-.43-.04-.65-.04-1.45,0-2.2.91-2.2,2.63v6h-2.61v-11.01h2.27l.04,2.05c.35-1.53,1.14-2.27,2.42-2.27.35,0,.56.04.73.13Z"/><path class="cls-10" d="M277.67,396.7h2.61v2.7h-2.61v-2.7ZM277.67,400.82h2.61v11.01h-2.61v-11.01Z"/><path class="cls-10" d="M287.37,411.84c-.09-.11-.17-.69-.22-1.58-.41,1.12-1.3,1.79-2.61,1.79-1.66,0-2.72-1.08-2.72-2.85s.71-2.81,2.94-3.58c1.86-.65,2.12-.88,2.12-1.49v-.11c0-.86-.3-1.25-1.06-1.25-.84,0-1.17.5-1.17,1.36v.22h-2.44v-.15c0-2.27,1.25-3.58,3.63-3.58,2.66,0,3.63,1.36,3.63,3.93v4.02c0,1.64.13,2.66.3,3.28h-2.4ZM286.87,407.97v-1.36c-.24.19-.63.41-1.29.69-.84.37-1.17.86-1.17,1.47,0,.71.32,1.1,1.06,1.1.82,0,1.4-.58,1.4-1.9Z"/><path class="cls-10" d="M299.05,404.04v7.79h-2.59v-7.43c0-1.06-.3-1.53-1.1-1.53s-1.3.52-1.3,1.86v7.1h-2.61v-11.01h2.27l.04,1.58c.41-1.14,1.32-1.79,2.57-1.79,1.75,0,2.72,1.1,2.72,3.43Z"/><path class="cls-10" d="M300.73,408.25v-3.84c0-2.44,1.36-3.8,3.8-3.8s3.71,1.49,3.71,3.8v.5h-2.5v-.71c0-.84-.37-1.32-1.21-1.32s-1.19.47-1.19,1.32v4.28c0,.82.37,1.32,1.19,1.32s1.21-.5,1.21-1.32v-.95h2.5v.73c0,2.31-1.21,3.8-3.71,3.8s-3.8-1.38-3.8-3.8Z"/><path class="cls-10" d="M317.38,404.43v2.5h-5.1v1.55c0,.91.43,1.34,1.3,1.34s1.29-.41,1.29-1.38v-.22h2.5v.11c0,2.31-1.38,3.71-3.84,3.71s-3.86-1.38-3.86-3.82v-3.8c0-2.46,1.36-3.82,3.86-3.82s3.84,1.36,3.84,3.82ZM314.83,404.99v-.86c0-.91-.45-1.32-1.27-1.32s-1.27.41-1.27,1.32v.86h2.55Z"/><path class="cls-10" d="M7.18,261.77v-3.97c0-2.72,1.32-4.02,3.95-4.02h1.19c2.63,0,3.97,1.3,3.97,4.02v1.27h6v2.7H7.18ZM13.89,257.79c0-.91-.41-1.32-1.49-1.32h-1.36c-1.08,0-1.47.41-1.47,1.32v1.27h4.32v-1.27Z"/><path class="cls-10" d="M18.47,252.44h-7.47c-2.57,0-4.04-1.4-4.04-3.97s1.47-3.95,4.04-3.95h1.34v2.55h-1.47c-1.06,0-1.55.5-1.55,1.34s.5,1.34,1.55,1.34h7.73c1.06,0,1.55-.5,1.55-1.34s-.5-1.34-1.55-1.34h-1.92v-2.55h1.79c2.57,0,4.04,1.38,4.04,3.95s-1.47,3.97-4.04,3.97Z"/><path class="cls-10" d="M20.48,243.26c-2.09,0-3.48-.69-5.44-2.81-1.75-1.9-2.63-2.55-4.04-2.55-1.21,0-1.64.54-1.64,1.38s.48,1.4,1.6,1.4h1.4v2.55h-1.34c-2.53,0-4.06-1.38-4.06-4.02s1.53-4.02,3.95-4.02c1.96,0,3.43.93,5.79,3.5,1.4,1.53,2.09,1.88,2.98,1.88h.22v-5.12h2.4v7.79h-1.81Z"/><path class="cls-10" d="M10.93,227.75v2.83h-1.9c0-2.29-.37-3.09-1.86-3.69v-1.83h15.11v2.7h-11.36Z"/><path class="cls-10" d="M18.42,223.13h-7.25c-2.72,0-4.21-1.32-4.21-4.1,0-2.63,1.51-4.02,3.97-4.02h.15v2.55h-.22c-1.06,0-1.51.5-1.51,1.38,0,.99.45,1.49,1.92,1.49h2.5c-.91-.54-1.34-1.38-1.34-2.48,0-1.99,1.3-3,3.69-3h2.29c2.57,0,4.08,1.45,4.08,4.1s-1.51,4.08-4.08,4.08ZM18.58,217.65h-2.16c-1.06,0-1.58.43-1.58,1.4s.48,1.38,1.53,1.38h2.2c1.04,0,1.53-.47,1.53-1.38s-.52-1.4-1.53-1.4Z"/><path class="cls-10" d="M19.59,213.15v-2.7h2.7v2.7h-2.7Z"/><path class="cls-10" d="M20.48,208.73c-2.09,0-3.48-.69-5.44-2.81-1.75-1.9-2.63-2.55-4.04-2.55-1.21,0-1.64.54-1.64,1.38s.48,1.4,1.6,1.4h1.4v2.55h-1.34c-2.53,0-4.06-1.38-4.06-4.02s1.53-4.02,3.95-4.02c1.96,0,3.43.93,5.79,3.5,1.4,1.53,2.09,1.88,2.98,1.88h.22v-5.12h2.4v7.79h-1.81Z"/><path class="cls-10" d="M18.45,199.4h-1.06v-2.55h1.17c1.1,0,1.55-.5,1.55-1.4s-.47-1.38-1.55-1.38h-2.87c-1.06,0-1.58.45-1.58,1.34,0,1.01.58,1.4,1.62,1.45v2.55l-8.55-.5v-7.1h2.4v4.71l3.28.22c-.73-.48-1.14-1.27-1.14-2.38,0-1.99,1.34-2.98,3.71-2.98h3.02c2.59,0,4.06,1.36,4.06,4.02s-1.45,4.02-4.06,4.02Z"/><path class="cls-10" d="M12.96,190.16h-3.41c-1.66,0-2.59-.91-2.59-2.59s.93-2.59,2.59-2.59h3.41c1.66,0,2.59.91,2.59,2.59s-.93,2.59-2.59,2.59ZM7.18,181.35v-1.73l15.11,6.65v1.71l-15.11-6.63ZM13.07,186.68h-3.63c-.67,0-.99.32-.99.89s.32.89.99.89h3.63c.67,0,.99-.3.99-.89s-.32-.89-.99-.89ZM19.89,182.64h-3.39c-1.68,0-2.61-.91-2.61-2.59s.93-2.61,2.61-2.61h3.39c1.68,0,2.61.91,2.61,2.61s-.93,2.59-2.61,2.59ZM20.02,179.17h-3.65c-.65,0-.99.32-.99.89s.35.86.99.86h3.65c.65,0,.99-.3.99-.86s-.35-.89-.99-.89Z"/><path class="cls-10" d="M11.28,172.92v-2.68l7.95-1.6-7.95-1.58v-2.48l11.01,2.57v3.2l-11.01,2.57Z"/><path class="cls-10" d="M22.29,158.46c-.11.09-.69.17-1.58.22,1.12.41,1.79,1.3,1.79,2.61,0,1.66-1.08,2.72-2.85,2.72s-2.81-.71-3.58-2.94c-.65-1.86-.89-2.12-1.49-2.12h-.11c-.86,0-1.25.3-1.25,1.06,0,.84.5,1.17,1.36,1.17h.22v2.44h-.15c-2.27,0-3.58-1.25-3.58-3.63,0-2.66,1.36-3.63,3.93-3.63h4.02c1.64,0,2.66-.13,3.28-.3v2.4ZM18.42,158.95h-1.36c.19.24.41.63.69,1.3.37.84.86,1.17,1.47,1.17.71,0,1.1-.32,1.1-1.06,0-.82-.58-1.4-1.9-1.4Z"/><path class="cls-10" d="M11.19,148.91h2.5c-.04.19-.04.43-.04.65,0,1.45.91,2.2,2.63,2.2h6v2.61h-11.01v-2.27l2.05-.04c-1.53-.35-2.27-1.14-2.27-2.42,0-.35.04-.56.13-.73Z"/><path class="cls-10" d="M7.15,147.57v-2.61h2.7v2.61h-2.7ZM11.28,147.57v-2.61h11.01v2.61h-11.01Z"/><path class="cls-10" d="M22.29,137.88c-.11.09-.69.17-1.58.22,1.12.41,1.79,1.3,1.79,2.61,0,1.66-1.08,2.72-2.85,2.72s-2.81-.71-3.58-2.94c-.65-1.86-.89-2.12-1.49-2.12h-.11c-.86,0-1.25.3-1.25,1.06,0,.84.5,1.17,1.36,1.17h.22v2.44h-.15c-2.27,0-3.58-1.25-3.58-3.63,0-2.66,1.36-3.63,3.93-3.63h4.02c1.64,0,2.66-.13,3.28-.3v2.4ZM18.42,138.37h-1.36c.19.24.41.63.69,1.3.37.84.86,1.17,1.47,1.17.71,0,1.1-.32,1.1-1.06,0-.82-.58-1.4-1.9-1.4Z"/><path class="cls-10" d="M14.5,126.19h7.79v2.59h-7.43c-1.06,0-1.53.3-1.53,1.1s.52,1.3,1.86,1.3h7.1v2.61h-11.01v-2.27l1.58-.04c-1.14-.41-1.79-1.32-1.79-2.57,0-1.75,1.1-2.72,3.43-2.72Z"/><path class="cls-10" d="M18.71,124.51h-3.84c-2.44,0-3.8-1.36-3.8-3.8s1.49-3.71,3.8-3.71h.5v2.5h-.71c-.84,0-1.32.37-1.32,1.21s.47,1.19,1.32,1.19h4.28c.82,0,1.32-.37,1.32-1.19s-.5-1.21-1.32-1.21h-.95v-2.5h.73c2.31,0,3.8,1.21,3.8,3.71s-1.38,3.8-3.8,3.8Z"/><path class="cls-10" d="M14.88,107.86h2.5v5.1h1.55c.91,0,1.34-.43,1.34-1.3s-.41-1.3-1.38-1.3h-.22v-2.5h.11c2.31,0,3.71,1.38,3.71,3.84s-1.38,3.86-3.82,3.86h-3.8c-2.46,0-3.82-1.36-3.82-3.86s1.36-3.84,3.82-3.84ZM15.44,110.41h-.86c-.91,0-1.32.45-1.32,1.27s.41,1.27,1.32,1.27h.86v-2.55Z"/><path class="cls-10" d="M45.31,212.8v-6.24c0-2.19,1.22-3.45,3.46-3.45s3.45,1.26,3.45,3.45v6.24c0,2.17-1.22,3.45-3.45,3.45s-3.46-1.28-3.46-3.45ZM49.94,212.91v-6.46c0-.89-.42-1.31-1.17-1.31s-1.19.42-1.19,1.31v6.46c0,.88.44,1.31,1.19,1.31s1.17-.44,1.17-1.31Z"/><path class="cls-10" d="M40.15,254.67h4.56v1.86h-4.56v-1.86Z"/><path class="cls-10" d="M45.73,259.53c0-1.77.58-2.94,2.37-4.6,1.6-1.48,2.15-2.22,2.15-3.41,0-1.02-.46-1.39-1.17-1.39s-1.19.4-1.19,1.35v1.19h-2.15v-1.13c0-2.13,1.17-3.43,3.39-3.43s3.39,1.29,3.39,3.34c0,1.66-.78,2.9-2.95,4.89-1.29,1.19-1.59,1.77-1.59,2.52v.18h4.32v2.02h-6.58v-1.53Z"/><path class="cls-10" d="M39.14,298.66h4.56v1.86h-4.56v-1.86Z"/><path class="cls-10" d="M49.08,302.84h-4.34v-2.01l4.14-8.53h2.48v8.51h1.08v2.02h-1.08v2.22h-2.28v-2.22ZM49.08,300.81v-4.89l-2.28,4.89h2.28Z"/><path class="cls-10" d="M39.14,342.66h4.56v1.86h-4.56v-1.86Z"/><path class="cls-10" d="M44.89,345.8v-6.13c0-2.3,1.11-3.56,3.46-3.56,2.22,0,3.39,1.28,3.39,3.36v.13h-2.15v-.18c0-.89-.42-1.28-1.17-1.28-.84,0-1.26.38-1.26,1.62v2.12c.46-.77,1.17-1.13,2.1-1.13,1.68,0,2.53,1.09,2.53,3.12v1.93c0,2.17-1.22,3.45-3.46,3.45s-3.45-1.28-3.45-3.45ZM49.52,345.92v-1.82c0-.89-.36-1.33-1.19-1.33s-1.17.4-1.17,1.29v1.86c0,.88.4,1.29,1.17,1.29s1.19-.44,1.19-1.29Z"/><path class="cls-10" d="M45.16,170.54c0-1.77.58-2.94,2.37-4.6,1.6-1.48,2.15-2.22,2.15-3.41,0-1.02-.46-1.39-1.17-1.39s-1.19.4-1.19,1.35v1.19h-2.15v-1.13c0-2.13,1.17-3.43,3.39-3.43s3.39,1.29,3.39,3.34c0,1.66-.78,2.9-2.95,4.89-1.29,1.19-1.59,1.77-1.59,2.52v.18h4.32v2.02h-6.58v-1.53Z"/><path class="cls-10" d="M45.33,78.8v-6.13c0-2.3,1.11-3.56,3.46-3.56,2.22,0,3.39,1.28,3.39,3.35v.13h-2.15v-.18c0-.89-.42-1.28-1.17-1.28-.84,0-1.26.38-1.26,1.62v2.12c.46-.77,1.17-1.13,2.1-1.13,1.68,0,2.53,1.09,2.53,3.12v1.93c0,2.17-1.22,3.45-3.46,3.45s-3.45-1.28-3.45-3.45ZM49.96,78.93v-1.82c0-.89-.36-1.33-1.19-1.33s-1.17.4-1.17,1.29v1.86c0,.88.4,1.29,1.17,1.29s1.19-.44,1.19-1.29Z"/><path class="cls-10" d="M45.16,34.84v-.69c0-1.28.38-2.3,1.55-2.79v-.04c-.97-.46-1.46-1.39-1.46-2.53v-.4c0-2.08,1.17-3.26,3.46-3.26s3.46,1.19,3.46,3.26v.4c0,1.15-.49,2.08-1.44,2.53v.04c1.17.49,1.53,1.51,1.53,2.79v.69c0,2.24-1.2,3.41-3.56,3.41s-3.56-1.17-3.56-3.41ZM50.01,34.7v-.77c0-1-.46-1.5-1.29-1.5s-1.28.49-1.28,1.5v.77c0,1.11.42,1.53,1.28,1.53s1.29-.42,1.29-1.53ZM49.94,29.08v-.62c0-.88-.42-1.31-1.22-1.31s-1.2.44-1.2,1.31v.62c0,.97.53,1.33,1.2,1.33s1.22-.36,1.22-1.33Z"/><path class="cls-10" d="M49.34,124.84h-4.34v-2.01l4.14-8.53h2.48v8.52h1.08v2.02h-1.08v2.22h-2.28v-2.22ZM49.34,122.82v-4.89l-2.28,4.89h2.28Z"/></g><path class="cls-10" d="M90.77,18.64h2.17l1.75,5.77v-5.77h1.57v9.81h-1.76l-2.16-7.07v7.07h-1.57v-9.81Z"/><path class="cls-10" d="M97.61,18.64h2.58c1.76,0,2.6.85,2.6,2.56v.77c0,1.71-.84,2.58-2.6,2.58h-.83v3.89h-1.75v-9.81ZM100.18,23c.59,0,.85-.27.85-.97v-.88c0-.7-.27-.95-.85-.95h-.83v2.8h.83Z"/><path class="cls-10" d="M103.65,25.97v-4.85c0-1.67.91-2.62,2.58-2.62s2.56.95,2.56,2.62v.87h-1.65v-.95c0-.69-.32-1.01-.87-1.01s-.87.32-.87,1.01v5.01c0,.69.32,1.01.87,1.01s.87-.32.87-1.01v-1.25h1.65v1.16c0,1.67-.9,2.62-2.56,2.62s-2.58-.95-2.58-2.62Z"/><path class="cls-10" d="M112.43,27.45v-6.43c0-1.65.6-2.38,2.4-2.38h.5v1.3h-.41c-.62,0-.91.24-.91,1.08v6.43c0,.77.24,1.09.91,1.09h.41v1.3h-.5c-1.65,0-2.4-.59-2.4-2.4Z"/><path class="cls-10" d="M116.58,18.64h4.78v1.55h-3.03v2.42h2.41v1.55h-2.41v2.72h3.03v1.55h-4.78v-9.81Z"/><path class="cls-10" d="M123.8,21.08h-1.83v-1.23c1.48,0,2-.24,2.4-1.2h1.19v9.81h-1.75v-7.37Z"/><path class="cls-10" d="M126.75,25.95v-.69h1.65v.76c0,.71.32,1.01.91,1.01s.9-.31.9-1.01v-1.86c0-.69-.29-1.02-.87-1.02-.66,0-.91.38-.94,1.05h-1.65l.32-5.55h4.61v1.55h-3.05l-.14,2.13c.31-.48.83-.74,1.54-.74,1.29,0,1.93.87,1.93,2.41v1.96c0,1.68-.88,2.63-2.61,2.63s-2.61-.94-2.61-2.63Z"/><path class="cls-10" d="M133.12,26.7h1.75v1.75h-1.75v-1.75Z"/><path class="cls-10" d="M136.08,25.95v-.69h1.65v.76c0,.71.32,1.01.91,1.01s.9-.31.9-1.01v-1.86c0-.69-.29-1.02-.87-1.02-.66,0-.91.38-.94,1.05h-1.65l.32-5.55h4.61v1.55h-3.05l-.14,2.13c.31-.48.83-.74,1.54-.74,1.29,0,1.93.87,1.93,2.41v1.96c0,1.68-.88,2.63-2.61,2.63s-2.61-.94-2.61-2.63Z"/><path class="cls-10" d="M142.28,28.54h.42c.6,0,.9-.25.9-1.09v-6.43c0-.77-.22-1.08-.9-1.08h-.42v-1.3h.52c1.64,0,2.4.59,2.4,2.38v6.43c0,1.67-.6,2.4-2.4,2.4h-.52v-1.3Z"/><path class="cls-10" d="M113.43,224.39v5.06h-1.68v-4.82c0-.69-.2-.99-.71-.99s-.84.34-.84,1.21v4.61h-1.7v-7.14h1.47l.03,1.02c.27-.74.85-1.16,1.67-1.16,1.13,0,1.76.71,1.76,2.23Z"/><path class="cls-10" d="M119.52,224.64v1.62h-3.31v1.01c0,.59.28.87.84.87s.84-.27.84-.9v-.14h1.62v.07c0,1.5-.9,2.41-2.49,2.41s-2.51-.9-2.51-2.48v-2.46c0-1.6.88-2.48,2.51-2.48s2.49.88,2.49,2.48ZM117.87,225.01v-.56c0-.59-.29-.85-.83-.85s-.83.27-.83.85v.56h1.65Z"/><path class="cls-10" d="M125.52,222.3v7.14h-1.46l-.04-1.04c-.25.74-.84,1.18-1.65,1.18-1.13,0-1.78-.71-1.78-2.24v-5.04h1.69v4.8c0,.69.18,1.01.71,1.01s.84-.35.84-1.2v-4.61h1.68Z"/><path class="cls-10" d="M130.37,222.25v1.62c-.13-.03-.28-.03-.42-.03-.94,0-1.43.59-1.43,1.71v3.89h-1.7v-7.14h1.47l.03,1.33c.22-.99.74-1.47,1.57-1.47.22,0,.36.03.48.08Z"/><path class="cls-10" d="M131.03,227.11v-2.46c0-1.6.9-2.48,2.48-2.48s2.48.88,2.48,2.48v2.46c0,1.58-.88,2.48-2.48,2.48s-2.48-.9-2.48-2.48ZM134.31,227.25v-2.75c0-.52-.24-.87-.8-.87s-.78.35-.78.87v2.75c0,.52.24.87.78.87s.8-.35.8-.87Z"/><path class="cls-10" d="M142.06,224.39v5.06h-1.68v-4.82c0-.69-.2-.99-.71-.99s-.84.34-.84,1.21v4.61h-1.69v-7.14h1.47l.03,1.02c.27-.74.85-1.16,1.67-1.16,1.13,0,1.76.71,1.76,2.23Z"/><path class="cls-10" d="M143.03,227.36v-.21h1.61v.24c0,.56.29.81.76.81.42,0,.73-.21.73-.73s-.52-.71-1.19-.97c-.88-.34-1.82-.81-1.82-2.24,0-1.28.77-2.1,2.27-2.1,1.39,0,2.27.8,2.27,2.1v.15h-1.58v-.18c0-.48-.22-.7-.67-.7-.34,0-.64.18-.64.66,0,.55.5.76,1.23,1.04.88.34,1.81.79,1.81,2.14s-.78,2.21-2.33,2.21-2.44-.84-2.44-2.23Z"/><path class="cls-10" d="M111.61,241.45v-6.43c0-1.65.6-2.38,2.4-2.38h.5v1.3h-.41c-.62,0-.91.24-.91,1.08v6.43c0,.77.24,1.09.91,1.09h.41v1.3h-.5c-1.65,0-2.4-.59-2.4-2.4Z"/><path class="cls-10" d="M115.76,232.64h4.78v1.55h-3.03v2.42h2.41v1.55h-2.41v2.72h3.03v1.55h-4.78v-9.81Z"/><path class="cls-10" d="M122.98,235.08h-1.83v-1.23c1.48,0,2-.24,2.4-1.21h1.19v9.81h-1.75v-7.37Z"/><path class="cls-10" d="M125.93,239.95v-.69h1.65v.76c0,.71.32,1.01.91,1.01s.9-.31.9-1.01v-1.86c0-.69-.29-1.02-.87-1.02-.66,0-.91.38-.94,1.05h-1.65l.32-5.55h4.61v1.55h-3.05l-.14,2.13c.31-.48.83-.74,1.54-.74,1.29,0,1.93.87,1.93,2.41v1.96c0,1.68-.88,2.63-2.61,2.63s-2.61-.94-2.61-2.63Z"/><path class="cls-10" d="M132.3,240.7h1.75v1.75h-1.75v-1.75Z"/><path class="cls-10" d="M135.26,239.95v-.69h1.65v.76c0,.71.32,1.01.91,1.01s.9-.31.9-1.01v-1.86c0-.69-.29-1.02-.87-1.02-.66,0-.91.38-.94,1.05h-1.65l.32-5.55h4.61v1.55h-3.05l-.14,2.13c.31-.48.83-.74,1.54-.74,1.29,0,1.93.87,1.93,2.41v1.96c0,1.68-.88,2.63-2.61,2.63s-2.61-.94-2.61-2.63Z"/><path class="cls-10" d="M141.46,242.54h.42c.6,0,.9-.25.9-1.09v-6.43c0-.77-.22-1.08-.9-1.08h-.42v-1.3h.52c1.64,0,2.4.59,2.4,2.38v6.43c0,1.67-.6,2.4-2.4,2.4h-.52v-1.3Z"/><path class="cls-10" d="M167.86,187.6h4.78v1.55h-3.03v2.42h2.41v1.55h-2.41v2.72h3.03v1.55h-4.78v-9.81Z"/><path class="cls-10" d="M175.09,190.04h-1.83v-1.23c1.48,0,2-.24,2.4-1.2h1.19v9.81h-1.75v-7.37Z"/><path class="cls-10" d="M181.16,195.7h-3.33v-1.54l3.18-6.56h1.9v6.54h.83v1.55h-.83v1.71h-1.75v-1.71ZM181.16,194.14v-3.75l-1.75,3.75h1.75Z"/><path class="cls-10" d="M184.7,195.65h1.75v1.75h-1.75v-1.75Z"/><path class="cls-10" d="M187.66,194.91v-.69h1.65v.76c0,.71.32,1.01.91,1.01s.9-.31.9-1.01v-1.86c0-.69-.29-1.02-.87-1.02-.66,0-.91.38-.94,1.05h-1.65l.32-5.55h4.61v1.55h-3.05l-.14,2.13c.31-.48.83-.74,1.54-.74,1.29,0,1.93.87,1.93,2.41v1.96c0,1.68-.88,2.63-2.61,2.63s-2.61-.94-2.61-2.63Z"/><path class="cls-10" d="M214.82,224.98h2.17l1.75,5.77v-5.77h1.57v9.81h-1.76l-2.16-7.07v7.07h-1.57v-9.81Z"/><path class="cls-10" d="M221.47,232.45v-2.46c0-1.6.9-2.48,2.48-2.48s2.48.88,2.48,2.48v2.46c0,1.58-.88,2.48-2.48,2.48s-2.48-.9-2.48-2.48ZM224.75,232.59v-2.75c0-.52-.24-.87-.8-.87s-.78.35-.78.87v2.75c0,.52.24.87.78.87s.8-.35.8-.87Z"/><path class="cls-10" d="M227.07,227.64h1.74l1.04,5.16,1.02-5.16h1.61l-1.67,7.14h-2.07l-1.67-7.14Z"/><path class="cls-10" d="M236.44,234.78c-.06-.07-.11-.45-.14-1.02-.27.73-.84,1.16-1.7,1.16-1.08,0-1.76-.7-1.76-1.85s.46-1.82,1.91-2.33c1.2-.42,1.37-.57,1.37-.97v-.07c0-.56-.2-.81-.69-.81-.55,0-.76.32-.76.88v.14h-1.58v-.1c0-1.47.81-2.33,2.35-2.33,1.72,0,2.35.88,2.35,2.55v2.6c0,1.07.08,1.72.2,2.13h-1.55ZM236.12,232.28v-.88c-.15.13-.41.27-.84.45-.55.24-.76.56-.76.95,0,.46.21.71.69.71.53,0,.91-.38.91-1.23Z"/><path class="cls-10" d="M238.83,233.61c0-1.36.45-2.25,1.82-3.53,1.23-1.13,1.65-1.71,1.65-2.62,0-.78-.35-1.06-.9-1.06s-.91.31-.91,1.04v.91h-1.65v-.87c0-1.64.9-2.63,2.61-2.63s2.61.99,2.61,2.56c0,1.27-.6,2.23-2.27,3.75-.99.91-1.22,1.36-1.22,1.93v.14h3.32v1.55h-5.06v-1.18Z"/><path class="cls-10" d="M244.78,229.87h3.5v1.43h-3.5v-1.43Z"/><path class="cls-10" d="M251.81,230.48l-.73,1.25v3.05h-1.75v-9.81h1.75v4.1l2.2-4.1h1.78l-2.07,3.63,2.1,6.18h-1.85l-1.43-4.3Z"/><path class="cls-10" d="M255.58,232.28v-4.79c0-1.68.94-2.65,2.65-2.65s2.66.97,2.66,2.65v4.79c0,1.67-.94,2.65-2.66,2.65s-2.65-.98-2.65-2.65ZM259.13,232.36v-4.96c0-.69-.34-1.01-.91-1.01s-.9.32-.9,1.01v4.96c0,.67.32,1.01.9,1.01s.91-.34.91-1.01Z"/><path class="cls-10" d="M221.33,246.79v-6.43c0-1.65.6-2.38,2.4-2.38h.5v1.3h-.41c-.62,0-.91.24-.91,1.08v6.43c0,.77.24,1.09.91,1.09h.41v1.3h-.5c-1.65,0-2.4-.59-2.4-2.4Z"/><path class="cls-10" d="M225.47,237.98h4.78v1.55h-3.03v2.42h2.41v1.55h-2.41v2.72h3.03v1.55h-4.78v-9.81Z"/><path class="cls-10" d="M232.7,240.42h-1.83v-1.23c1.48,0,2-.24,2.39-1.21h1.19v9.81h-1.75v-7.37Z"/><path class="cls-10" d="M235.56,245.31v-.53c0-.98.29-1.76,1.19-2.14v-.03c-.74-.35-1.12-1.07-1.12-1.95v-.31c0-1.6.9-2.51,2.66-2.51s2.66.91,2.66,2.51v.31c0,.88-.38,1.6-1.11,1.95v.03c.9.38,1.18,1.16,1.18,2.14v.53c0,1.72-.92,2.62-2.73,2.62s-2.73-.9-2.73-2.62ZM239.29,245.19v-.59c0-.77-.35-1.15-1-1.15s-.98.38-.98,1.15v.59c0,.85.32,1.18.98,1.18s1-.32,1-1.18ZM239.23,240.88v-.48c0-.67-.32-1.01-.94-1.01s-.92.34-.92,1.01v.48c0,.74.41,1.02.92,1.02s.94-.28.94-1.02Z"/><path class="cls-10" d="M242.17,246.03h1.75v1.75h-1.75v-1.75Z"/><path class="cls-10" d="M245.13,245.29v-.69h1.65v.76c0,.71.32,1.01.91,1.01s.9-.31.9-1.01v-1.86c0-.69-.29-1.02-.87-1.02-.66,0-.91.38-.94,1.05h-1.65l.32-5.55h4.61v1.55h-3.05l-.14,2.13c.31-.48.83-.74,1.54-.74,1.29,0,1.93.87,1.93,2.41v1.96c0,1.68-.88,2.63-2.61,2.63s-2.61-.94-2.61-2.63Z"/><path class="cls-10" d="M251.33,247.88h.42c.6,0,.9-.25.9-1.09v-6.43c0-.77-.22-1.08-.9-1.08h-.42v-1.3h.52c1.64,0,2.4.59,2.4,2.38v6.43c0,1.67-.6,2.4-2.4,2.4h-.52v-1.3Z"/><path class="cls-10" d="M190.07,273.26h4.78v1.55h-3.03v2.42h2.41v1.55h-2.41v2.72h3.03v1.55h-4.78v-9.81Z"/><path class="cls-10" d="M197.29,275.7h-1.83v-1.23c1.48,0,2-.24,2.4-1.21h1.19v9.81h-1.75v-7.37Z"/><path class="cls-10" d="M200.29,280.56v-4.71c0-1.77.85-2.73,2.66-2.73,1.71,0,2.61.98,2.61,2.58v.1h-1.65v-.14c0-.69-.32-.98-.9-.98-.64,0-.97.29-.97,1.25v1.62c.35-.59.9-.87,1.61-.87,1.29,0,1.95.84,1.95,2.4v1.48c0,1.67-.94,2.65-2.66,2.65s-2.65-.98-2.65-2.65ZM203.85,280.66v-1.4c0-.69-.28-1.02-.91-1.02s-.9.31-.9,1v1.43c0,.67.31.99.9.99s.91-.34.91-.99Z"/><path class="cls-10" d="M206.76,281.31h1.75v1.75h-1.75v-1.75Z"/><path class="cls-10" d="M209.71,280.57v-.69h1.65v.76c0,.71.32,1.01.91,1.01s.9-.31.9-1.01v-1.86c0-.69-.29-1.02-.87-1.02-.66,0-.91.38-.94,1.05h-1.65l.32-5.55h4.61v1.55h-3.05l-.14,2.13c.31-.48.83-.74,1.54-.74,1.29,0,1.93.87,1.93,2.41v1.96c0,1.68-.88,2.63-2.61,2.63s-2.61-.94-2.61-2.63Z"/><path class="cls-10" d="M223.1,302.47h1.68l.8,7.54.87-7.54h1.85l.87,7.54.8-7.54h1.51l-1.13,9.81h-2.17l-.81-6.68-.81,6.68h-2.31l-1.13-9.81Z"/><path class="cls-10" d="M233.87,304.03h-1.82v-1.55h5.41v1.55h-1.83v8.25h-1.75v-8.25Z"/><path class="cls-10" d="M213.8,324.28v-6.43c0-1.65.6-2.38,2.4-2.38h.5v1.3h-.41c-.62,0-.91.24-.91,1.08v6.43c0,.77.24,1.09.91,1.09h.41v1.3h-.5c-1.65,0-2.4-.59-2.4-2.4Z"/><path class="cls-10" d="M217.94,315.47h4.78v1.55h-3.03v2.42h2.41v1.55h-2.41v2.72h3.03v1.55h-4.78v-9.81Z"/><path class="cls-10" d="M225.17,317.91h-1.83v-1.23c1.48,0,2-.24,2.39-1.21h1.19v9.81h-1.75v-7.37Z"/><path class="cls-10" d="M228.04,322.8v-.53c0-.98.29-1.76,1.19-2.14v-.03c-.74-.35-1.12-1.07-1.12-1.95v-.31c0-1.6.9-2.51,2.66-2.51s2.66.91,2.66,2.51v.31c0,.88-.38,1.6-1.11,1.95v.03c.9.38,1.18,1.16,1.18,2.14v.53c0,1.72-.92,2.62-2.73,2.62s-2.73-.9-2.73-2.62ZM231.77,322.69v-.59c0-.77-.35-1.15-1-1.15s-.98.38-.98,1.15v.59c0,.85.32,1.18.98,1.18s1-.32,1-1.18ZM231.71,318.37v-.48c0-.67-.32-1.01-.94-1.01s-.92.34-.92,1.01v.48c0,.74.41,1.02.92,1.02s.94-.28.94-1.02Z"/><path class="cls-10" d="M234.65,323.53h1.75v1.75h-1.75v-1.75Z"/><path class="cls-10" d="M237.6,322.79v-.69h1.65v.76c0,.71.32,1.01.91,1.01s.9-.31.9-1.01v-1.86c0-.69-.29-1.02-.87-1.02-.66,0-.91.38-.94,1.05h-1.65l.32-5.55h4.61v1.55h-3.05l-.14,2.13c.31-.48.83-.74,1.54-.74,1.29,0,1.93.87,1.93,2.41v1.96c0,1.68-.88,2.63-2.61,2.63s-2.61-.94-2.61-2.63Z"/><path class="cls-10" d="M243.8,325.38h.42c.6,0,.9-.25.9-1.09v-6.43c0-.77-.22-1.08-.9-1.08h-.42v-1.3h.52c1.64,0,2.4.59,2.4,2.38v6.43c0,1.67-.6,2.4-2.4,2.4h-.52v-1.3Z"/><path class="cls-10" d="M274.13,328.89h2.58c1.77,0,2.61.85,2.61,2.56v.77c0,1.71-.84,2.58-2.61,2.58h-.83v3.89h-1.75v-9.81ZM276.7,333.25c.59,0,.85-.27.85-.97v-.88c0-.7-.27-.95-.85-.95h-.83v2.8h.83Z"/><path class="cls-10" d="M280.14,336.19v-4.79c0-1.68.94-2.65,2.66-2.65s2.65.97,2.65,2.65v4.79c0,1.67-.94,2.65-2.65,2.65s-2.66-.98-2.66-2.65ZM283.7,336.28v-4.96c0-.69-.32-1.01-.9-1.01s-.91.32-.91,1.01v4.96c0,.67.34,1.01.91,1.01s.9-.34.9-1.01Z"/><path class="cls-10" d="M316.68,301.55h2.58c1.76,0,2.61.85,2.61,2.56v.77c0,1.71-.84,2.58-2.61,2.58h-.83v3.89h-1.75v-9.8ZM319.25,305.91c.59,0,.85-.27.85-.97v-.88c0-.7-.27-.95-.85-.95h-.83v2.8h.83Z"/><path class="cls-10" d="M325.79,309.65h-3.33v-1.54l3.18-6.56h1.91v6.54h.83v1.55h-.83v1.71h-1.75v-1.71ZM325.79,308.09v-3.75l-1.75,3.75h1.75Z"/><path class="cls-10" d="M363.03,253.31h2.58c1.76,0,2.61.85,2.61,2.56v.77c0,1.71-.84,2.58-2.61,2.58h-.83v3.89h-1.75v-9.81ZM365.61,257.66c.59,0,.85-.27.85-.97v-.88c0-.7-.27-.95-.85-.95h-.83v2.8h.83Z"/><path class="cls-10" d="M372.27,254.86h-3.5v-1.55h5.24v1.49l-2.72,8.32h-1.85l2.83-8.25Z"/><path class="cls-10" d="M360.5,155.4h2.58c1.77,0,2.61.85,2.61,2.56v.77c0,1.71-.84,2.58-2.61,2.58h-.83v3.89h-1.75v-9.81ZM363.08,159.76c.59,0,.85-.27.85-.97v-.88c0-.7-.27-.95-.85-.95h-.83v2.8h.83Z"/><path class="cls-10" d="M368.12,157.84h-1.83v-1.23c1.48,0,2-.24,2.39-1.2h1.19v9.81h-1.75v-7.37Z"/><path class="cls-10" d="M371.07,162.72v-.69h1.65v.76c0,.71.32,1.01.91,1.01s.9-.31.9-1.01v-1.86c0-.69-.29-1.02-.87-1.02-.66,0-.91.38-.94,1.05h-1.65l.32-5.55h4.61v1.55h-3.05l-.14,2.13c.31-.48.83-.74,1.54-.74,1.29,0,1.93.87,1.93,2.41v1.96c0,1.68-.88,2.63-2.61,2.63s-2.61-.94-2.61-2.63Z"/><path class="cls-10" d="M376.04,115h2.58c1.76,0,2.61.85,2.61,2.56v.77c0,1.71-.84,2.58-2.61,2.58h-.83v3.89h-1.75v-9.81ZM378.62,119.35c.59,0,.85-.27.85-.97v-.88c0-.7-.27-.95-.85-.95h-.83v2.8h.83Z"/><path class="cls-10" d="M381.88,122.34v-.69h1.65v.71c0,.74.32,1.02.91,1.02s.91-.27.91-1.11v-.52c0-.92-.32-1.29-1.15-1.29h-.59v-1.56h.63c.64,0,1.05-.25,1.05-1.09v-.45c0-.66-.34-.97-.87-.97s-.84.28-.84.91v.52h-1.65v-.38c0-1.68.9-2.61,2.56-2.61s2.55.92,2.55,2.52v.25c0,.92-.38,1.65-1.23,1.96v.03c.98.35,1.27,1.15,1.27,2.16v.55c0,1.72-.88,2.62-2.61,2.62s-2.61-.91-2.61-2.61Z"/><path class="cls-10" d="M388.04,122.29v-4.79c0-1.68.94-2.65,2.66-2.65s2.65.97,2.65,2.65v4.79c0,1.67-.94,2.65-2.65,2.65s-2.66-.98-2.66-2.65ZM391.6,122.38v-4.96c0-.69-.32-1.01-.9-1.01s-.91.32-.91,1.01v4.96c0,.67.34,1.01.91,1.01s.9-.34.9-1.01Z"/><path class="cls-10" d="M406.37,138.48h2.58c1.77,0,2.61.85,2.61,2.56v.77c0,1.71-.84,2.58-2.61,2.58h-.83v3.89h-1.75v-9.81ZM408.95,142.84c.59,0,.85-.27.85-.97v-.88c0-.7-.27-.95-.85-.95h-.83v2.8h.83Z"/><path class="cls-10" d="M413.99,140.92h-1.83v-1.23c1.48,0,2-.24,2.39-1.2h1.19v9.81h-1.75v-7.37Z"/><path class="cls-10" d="M418.71,140.92h-1.83v-1.23c1.48,0,2-.24,2.39-1.2h1.19v9.81h-1.75v-7.37Z"/><path class="cls-10" d="M421.69,145.78v-4.79c0-1.68.94-2.65,2.66-2.65s2.65.97,2.65,2.65v4.79c0,1.67-.94,2.65-2.65,2.65s-2.66-.98-2.66-2.65ZM425.25,145.86v-4.96c0-.69-.32-1.01-.9-1.01s-.91.32-.91,1.01v4.96c0,.67.34,1.01.91,1.01s.9-.34.9-1.01Z"/><path class="cls-10" d="M369.03,139.29c0-1.36.45-2.25,1.82-3.53,1.23-1.13,1.65-1.71,1.65-2.62,0-.78-.35-1.06-.9-1.06s-.91.31-.91,1.04v.91h-1.65v-.87c0-1.64.9-2.63,2.61-2.63s2.6.99,2.6,2.56c0,1.27-.6,2.23-2.27,3.75-1,.91-1.22,1.36-1.22,1.93v.14h3.32v1.55h-5.06v-1.18Z"/><path class="cls-10" d="M376.7,133.1h-1.83v-1.23c1.49,0,2-.24,2.4-1.2h1.19v9.81h-1.75v-7.37Z"/><path class="cls-10" d="M379.84,130.66h2.46l1.16,6.98,1.16-6.98h2.47v9.81h-1.65v-7.37l-1.3,7.37h-1.47l-1.3-7.37v7.37h-1.53v-9.81Z"/><line class="cls-12" x1="86.21" y1="33.56" x2="153.81" y2="181.36"/><line class="cls-7" x1="86.21" y1="33.56" x2="153.34" y2="180.33"/><polygon class="cls-14" points="150.97 179.22 153.21 180.06 154.05 177.81 154.65 179.12 153.81 181.36 151.56 180.53 150.97 179.22"/><line class="cls-12" x1="230.85" y1="284.08" x2="243.61" y2="301.08"/><line class="cls-7" x1="230.85" y1="284.08" x2="242.92" y2="300.17"/><polygon class="cls-14" points="240.37 299.59 242.74 299.93 243.08 297.56 243.94 298.71 243.61 301.08 241.23 300.74 240.37 299.59"/><line class="cls-12" x1="314.17" y1="295.65" x2="345.77" y2="263.29"/><line class="cls-7" x1="314.17" y1="295.65" x2="344.97" y2="264.11"/><polygon class="cls-14" points="344.79 266.72 344.76 264.32 342.37 264.35 343.37 263.32 345.77 263.29 345.8 265.69 344.79 266.72"/><line class="cls-12" x1="357.44" y1="246.86" x2="382.95" y2="163.64"/><line class="cls-7" x1="357.44" y1="246.86" x2="382.61" y2="164.73"/><polygon class="cls-14" points="383.65 167.13 382.53 165.01 380.41 166.14 380.83 164.76 382.95 163.64 384.07 165.76 383.65 167.13"/><line class="cls-12" x1="389.53" y1="148.57" x2="396.11" y2="138.18"/><line class="cls-7" x1="389.53" y1="148.57" x2="395.5" y2="139.15"/><polygon class="cls-14" points="395.86 141.74 395.34 139.4 393 139.92 393.77 138.71 396.11 138.18 396.63 140.52 395.86 141.74"/><path class="cls-12" d="M249.4,311.68s8.19,34.19,21.27,35.11"/><path class="cls-7" d="M249.4,311.68s7.72,32.23,20.14,34.95"/><polygon class="cls-14" points="267.32 348 269.25 346.58 267.83 344.65 269.25 344.86 270.68 346.79 268.75 348.22 267.32 348"/><path class="cls-7" d="M306.03,312.78c-1.69,5.86-9.97,33.23-17.63,33.41"/><polygon class="cls-14" points="303.82 314.2 305.93 313.06 307.07 315.17 307.48 313.79 306.34 311.68 304.23 312.82 303.82 314.2"/><line class="cls-6" x1="404.86" y1="141.37" x2="403.14" y2="136.08"/><line class="cls-6" x1="388.26" y1="135.96" x2="395.51" y2="134.6"/><line class="cls-6" x1="394.65" y1="126.36" x2="393.05" y2="124.76"/><path class="cls-1" d="M247.99,301.28s-7.68-32.03-38.09-55.64"/><polygon class="cls-11" points="212.49 245.61 210.11 245.85 210.35 248.24 209.24 247.33 208.99 244.95 211.38 244.7 212.49 245.61"/><path class="cls-12" d="M161.5,201.98s7.27,27.97,40.45,50.16c0,0,12.49,7.24,17.48,16.48"/><path class="cls-7" d="M161.5,201.98s7.27,27.97,40.45,50.16c0,0,11.6,6.73,16.91,15.49"/><polygon class="cls-14" points="216.36 266.8 218.69 267.39 219.27 265.07 220.01 266.3 219.42 268.63 217.1 268.04 216.36 266.8"/><path class="cls-13" d="M109.22,60.06l.6,1.31-5.53,2.53-.6-1.31,5.53-2.53ZM111.29,59.11l.6,1.31-1.35.62-.6-1.31,1.36-.62Z"/><path class="cls-13" d="M110.41,66.94l-3.91,1.79-.6-1.3,3.73-1.71c.53-.24.7-.5.52-.91-.19-.41-.56-.53-1.23-.22l-3.56,1.63-.6-1.31,5.53-2.53.52,1.14-.78.38c.67-.06,1.2.25,1.49.88.4.88.07,1.62-1.1,2.15Z"/><path class="cls-13" d="M113.72,68.66l-.47.21.43.94-1.08.5-.43-.94-4.44,2.03-.6-1.31,4.44-2.03-.32-.7,1.08-.5.32.7.64-.29c1.03-.47,1.76-.19,2.23.84.12.27.2.51.21.77l-1.11.51c-.03-.18-.08-.34-.14-.47-.17-.37-.38-.43-.77-.25Z"/><path class="cls-13" d="M115.21,71.91l-.47.21.43.94-1.08.5-.43-.94-4.44,2.03-.6-1.31,4.44-2.03-.32-.7,1.08-.5.32.7.64-.29c1.03-.47,1.76-.19,2.23.84.12.27.2.51.21.77l-1.11.51c-.03-.18-.08-.34-.14-.47-.17-.37-.38-.43-.77-.25Z"/><path class="cls-13" d="M115.39,78.31l-1.26.58-1.17-2.56-.78.36c-.46.21-.57.52-.38.96.2.43.5.55.99.33l.11-.05.58,1.26-.05.02c-1.16.53-2.18.16-2.75-1.08-.58-1.26-.19-2.26,1.03-2.82l1.91-.87c1.24-.57,2.23-.2,2.81,1.06.57,1.25.2,2.24-1.03,2.81ZM114.52,77.16l.43-.2c.46-.21.56-.53.37-.94-.19-.41-.5-.55-.95-.34l-.43.2.59,1.28Z"/><path class="cls-13" d="M118.89,81.07l-1.26.58c-.02-.11-.08-.23-.13-.33-.33-.73-.96-.9-1.83-.5l-3.01,1.38-.6-1.31,5.53-2.53.52,1.14-1.02.49c.85-.18,1.4.05,1.69.69.08.17.11.29.1.4Z"/><path class="cls-13" d="M119.04,86.29l-1.26.58-1.17-2.56-.78.36c-.46.21-.57.52-.37.96s.5.56.99.33l.11-.05.58,1.26-.05.02c-1.16.53-2.18.16-2.75-1.08-.58-1.26-.19-2.26,1.03-2.82l1.91-.87c1.24-.57,2.23-.2,2.81,1.06.57,1.25.2,2.24-1.03,2.81ZM118.17,85.14l.43-.2c.46-.21.56-.53.37-.94-.19-.41-.5-.55-.95-.34l-.43.2.58,1.28Z"/><path class="cls-13" d="M116.97,91.58c.03-.08.3-.26.75-.48-.67.05-1.22-.27-1.5-.88-.4-.88-.08-1.64,1.1-2.18l2.29-1.05c1.17-.54,1.96-.28,2.36.6.23.5.2,1-.07,1.42l2.55-1.17.6,1.31-5.94,2.72c-.82.38-1.3.67-1.58.91l-.55-1.2ZM118.81,90.42l1.6-.73c.66-.3.81-.69.63-1.09-.19-.42-.52-.44-1.01-.22l-1.97.9c-.48.22-.68.48-.49.91.18.4.57.54,1.23.23Z"/><path class="cls-13" d="M120,98.2c.03-.08.3-.26.75-.48-.67.05-1.22-.27-1.51-.88-.4-.88-.08-1.64,1.1-2.18l2.29-1.05c1.17-.54,1.96-.28,2.36.6.23.5.2,1-.07,1.42l2.55-1.17.6,1.31-5.94,2.72c-.82.38-1.3.67-1.58.91l-.55-1.2ZM121.84,97.04l1.6-.73c.66-.3.81-.69.63-1.09-.19-.42-.52-.44-1.01-.22l-1.97.9c-.48.22-.68.48-.49.91.18.4.57.54,1.23.23Z"/><path class="cls-13" d="M126.38,102.32l-1.26.58-1.17-2.56-.78.36c-.46.21-.57.52-.37.96.2.43.5.56.99.33l.11-.05.58,1.26-.05.02c-1.16.53-2.18.16-2.75-1.08-.58-1.26-.19-2.26,1.03-2.82l1.91-.87c1.24-.57,2.23-.2,2.81,1.06.57,1.25.2,2.24-1.03,2.81ZM125.51,101.17l.43-.2c.46-.21.56-.53.37-.94-.19-.41-.5-.55-.95-.34l-.43.2.58,1.28Z"/><path class="cls-13" d="M128.42,102l.62,1.34-3.62,2.63,4.35-1.04.57,1.25-6.12,1.24-.73-1.6,4.94-3.82Z"/><path class="cls-13" d="M130.53,111.38l-1.26.58-1.17-2.56-.78.36c-.46.21-.57.52-.37.96.2.43.5.56.99.33l.11-.05.58,1.26-.05.03c-1.16.53-2.18.16-2.75-1.08-.58-1.26-.19-2.26,1.03-2.82l1.91-.87c1.24-.57,2.23-.2,2.81,1.06.57,1.25.2,2.24-1.04,2.81ZM129.66,110.23l.43-.2c.46-.21.56-.53.37-.94-.19-.41-.5-.54-.96-.34l-.43.2.58,1.28Z"/><path class="cls-13" d="M134.79,110.47l.6,1.31-7.58,3.47-.6-1.31,7.58-3.47Z"/><path class="cls-13" d="M130.03,115.32l1.91-.87c1.24-.57,2.24-.18,2.8,1.04.57,1.23.2,2.23-1.04,2.79l-1.91.87c-1.22.56-2.23.2-2.8-1.04-.56-1.22-.18-2.24,1.04-2.8ZM131.08,117.9l2.12-.97c.4-.18.59-.49.39-.92-.2-.43-.55-.48-.95-.3l-2.12.97c-.4.18-.59.49-.39.91.2.43.55.49.96.31Z"/><path class="cls-13" d="M136.05,122.92l-2.29,1.05c-1.18.54-1.97.28-2.37-.59-.23-.5-.2-1,.07-1.42l-2.17.99-.6-1.31,7.21-3.3.52,1.14-.79.39c.67-.06,1.22.25,1.51.88.4.88.08,1.64-1.09,2.17ZM135.29,121.69c.49-.22.68-.48.49-.91-.18-.4-.57-.54-1.23-.23l-1.6.73c-.66.3-.81.69-.63,1.09.19.42.53.44,1.01.22l1.97-.9Z"/><path class="cls-13" d="M139.34,130.12l-3.91,1.79-.6-1.31,3.75-1.72c.43-.2.7-.44.5-.89-.18-.4-.56-.5-1.22-.2l-3.56,1.63-.6-1.31,3.75-1.72c.46-.21.7-.45.5-.87-.18-.4-.56-.52-1.22-.21l-3.56,1.63-.6-1.31,5.53-2.53.52,1.14-.78.38c.67-.06,1.2.24,1.48.86.28.61.19,1.16-.28,1.62.64-.03,1.15.27,1.42.86.4.87.07,1.62-1.1,2.15Z"/><path class="cls-13" d="M141.31,134.92l-1.26.58-1.17-2.56-.78.36c-.46.21-.57.52-.37.96.2.43.5.56.99.33l.11-.05.58,1.26-.05.03c-1.16.53-2.18.16-2.75-1.08-.58-1.26-.19-2.26,1.03-2.82l1.91-.87c1.24-.57,2.23-.2,2.81,1.06.57,1.25.2,2.24-1.04,2.81ZM140.44,133.77l.43-.2c.46-.21.56-.53.37-.94-.19-.41-.5-.55-.95-.34l-.43.2.58,1.28Z"/><path class="cls-13" d="M143.65,139.51l-3.91,1.79-.59-1.3,3.73-1.71c.53-.24.7-.5.52-.91-.19-.41-.56-.53-1.23-.22l-3.56,1.63-.6-1.31,5.53-2.53.52,1.14-.78.38c.67-.06,1.2.25,1.49.88.4.88.07,1.62-1.1,2.15Z"/><path class="cls-13" d="M145.4,141.94l-2.85,1.3c-.39.18-.48.39-.31.76.06.13.15.27.28.41l-1.11.51c-.2-.18-.33-.38-.46-.66-.48-1.04-.2-1.77.82-2.24l3.02-1.38-.33-.71,1.08-.5.35.76,1.5-.56.53,1.15-1.45.67.44.95-1.08.5-.44-.95Z"/><path class="cls-13" d="M142.91,148.24c.04-.07.31-.25.74-.47-.66.05-1.2-.24-1.5-.9-.38-.83-.08-1.61.81-2.02.84-.39,1.57-.29,2.47.65.75.78.93.86,1.23.72l.05-.03c.43-.2.56-.44.38-.82-.19-.42-.52-.47-.95-.27l-.11.05-.56-1.22.08-.04c1.14-.52,2.09-.2,2.63,1,.61,1.33.15,2.13-1.14,2.72l-2.02.92c-.82.38-1.3.67-1.58.91l-.55-1.2ZM144.74,147.1l.68-.31c-.15-.07-.35-.22-.64-.49-.38-.34-.7-.39-1-.25-.36.16-.48.42-.31.78.19.41.62.57,1.28.27Z"/><path class="cls-13" d="M151.43,146.81l.6,1.31-7.58,3.47-.6-1.31,7.58-3.47Z"/><path class="cls-13" d="M107.65,93.84l-2.85,1.3c-.39.18-.48.39-.31.76.06.13.15.27.28.41l-1.11.51c-.2-.18-.33-.38-.46-.66-.48-1.04-.2-1.77.82-2.24l3.02-1.38-.33-.71,1.08-.5.35.76,1.5-.56.53,1.15-1.45.67.44.95-1.08.5-.44-.95Z"/><path class="cls-13" d="M110.82,97.8l-1.26.58c-.02-.11-.08-.23-.13-.33-.33-.73-.96-.9-1.83-.5l-3.01,1.38-.6-1.31,5.53-2.53.52,1.14-1.02.49c.85-.18,1.4.05,1.69.69.08.17.11.29.1.4Z"/><path class="cls-13" d="M106.69,103.48c.03-.07.31-.25.74-.47-.66.05-1.2-.24-1.5-.9-.38-.83-.08-1.61.81-2.02.85-.39,1.57-.29,2.47.65.75.78.93.86,1.23.72l.05-.02c.43-.2.56-.44.38-.82-.19-.42-.52-.47-.95-.27l-.11.05-.56-1.22.08-.04c1.14-.52,2.09-.2,2.63,1,.61,1.33.15,2.13-1.14,2.72l-2.01.92c-.82.38-1.3.67-1.58.91l-.55-1.2ZM108.51,102.34l.68-.31c-.15-.07-.35-.22-.65-.49-.38-.34-.7-.39-1-.25-.36.16-.48.42-.31.78.19.41.61.57,1.28.27Z"/><path class="cls-13" d="M105.64,105.6l1.07-.49c.02.12.05.26.12.4.1.22.25.26.48.16l5.84-2.67.6,1.31-5.95,2.72c-.92.42-1.57.18-1.98-.72-.11-.25-.18-.48-.18-.72ZM115.22,102.05l.6,1.31-1.35.62-.6-1.31,1.35-.62Z"/><path class="cls-13" d="M114.12,109.89l-1.26.58-1.17-2.56-.78.36c-.46.21-.57.52-.37.96s.5.55.99.33l.11-.05.58,1.26-.05.02c-1.16.53-2.18.16-2.75-1.08-.58-1.26-.19-2.26,1.03-2.82l1.91-.87c1.24-.57,2.23-.19,2.81,1.06.57,1.25.2,2.24-1.04,2.81ZM113.25,108.74l.43-.2c.46-.21.56-.53.37-.94-.19-.41-.5-.54-.95-.34l-.43.2.59,1.28Z"/><path class="cls-13" d="M112.55,111.53l1.93-.88c1.22-.56,2.22-.19,2.78,1.03.58,1.26.11,2.21-1.05,2.74l-.25.11-.58-1.26.36-.16c.42-.19.58-.49.38-.91-.19-.41-.51-.49-.93-.29l-2.14.98c-.41.19-.58.49-.39.9.19.42.53.49.94.3l.48-.22.58,1.26-.37.17c-1.16.53-2.19.27-2.76-.99-.56-1.22-.18-2.22,1.03-2.78Z"/><path class="cls-13" d="M118.07,116.6l-2.85,1.3c-.39.18-.48.39-.31.76.06.13.15.27.28.41l-1.1.51c-.2-.18-.33-.38-.46-.66-.48-1.04-.2-1.77.82-2.24l3.02-1.38-.33-.72,1.08-.5.35.76,1.5-.56.53,1.15-1.45.67.44.95-1.08.5-.44-.95Z"/><path class="cls-13" d="M116.17,119.4l1.91-.87c1.24-.57,2.24-.19,2.8,1.04.57,1.23.2,2.23-1.04,2.8l-1.91.87c-1.22.56-2.23.19-2.8-1.04-.56-1.22-.19-2.24,1.04-2.8ZM117.22,121.99l2.12-.97c.4-.18.59-.49.39-.93-.2-.43-.55-.48-.95-.3l-2.12.97c-.4.18-.59.49-.39.91.2.43.55.49.95.31Z"/><path class="cls-13" d="M123.34,125.14l-1.26.58c-.02-.11-.08-.23-.13-.33-.33-.73-.96-.9-1.83-.5l-3.01,1.38-.6-1.31,5.53-2.53.52,1.14-1.02.49c.85-.18,1.4.05,1.69.69.08.17.11.29.1.4Z"/><path class="cls-13" d="M125.39,129.73l-6.58,1.34c-1.07.2-1.71-.12-2.15-1.1-.13-.28-.21-.54-.21-.8l1.11-.51c.01.2.06.39.15.6.17.37.38.48.78.43l5.01-4.12.62,1.34-3.3,2.52,4.02-.96.57,1.25Z"/></svg>