<?xml version="1.0" encoding="UTF-8"?><svg id="Ebene_1" xmlns="http://www.w3.org/2000/svg" xmlns:xlink="http://www.w3.org/1999/xlink" viewBox="0 0 434.13 426.35"><defs><style>.cls-1,.cls-2,.cls-3,.cls-4,.cls-5{stroke-miterlimit:10;}.cls-1,.cls-3,.cls-6,.cls-4{stroke:#000;}.cls-1,.cls-7{fill:#fff;}.cls-2{stroke:#ee6c4d;stroke-dasharray:0 0 4 2;}.cls-2,.cls-8,.cls-3,.cls-9,.cls-6,.cls-4,.cls-5{fill:none;}.cls-10{clip-path:url(#clippath);}.cls-8,.cls-11,.cls-12,.cls-13,.cls-7,.cls-14,.cls-15{stroke-width:0px;}.cls-11{fill:#f9bf49;}.cls-16{clip-path:url(#clippath-1);}.cls-12{fill:#000;}.cls-13{fill:#ee6c4d;}.cls-3{stroke-linecap:square;}.cls-3,.cls-6{stroke-width:3px;}.cls-9{stroke:#191919;}.cls-9,.cls-6{stroke-linejoin:round;}.cls-5{stroke:#cdd7d6;}.cls-14{fill:#cdd7d6;}.cls-15{fill:#293241;}</style><clipPath id="clippath"><rect class="cls-8" x=".5" y="2.98" width="424.01" height="422.92"/></clipPath><clipPath id="clippath-1"><rect class="cls-8" x="68.15" y="10.18" width="349.16" height="356.18"/></clipPath></defs><rect class="cls-1" x=".5" y=".5" width="433.13" height="425.35"/><g class="cls-10"><rect class="cls-7" x="68.15" y="10.18" width="349.16" height="356.18"/><g class="cls-16"><path class="cls-15" d="M159.93,200.13c1.11,0,2.17-.44,2.96-1.23.79-.78,1.23-1.85,1.23-2.96s-.44-2.17-1.23-2.96c-.78-.78-1.85-1.23-2.96-1.23s-2.17.44-2.96,1.23c-.79.78-1.23,1.85-1.23,2.96s.44,2.17,1.23,2.96c.78.78,1.85,1.23,2.96,1.23"/><path class="cls-9" d="M159.93,200.13c1.11,0,2.17-.44,2.96-1.23.79-.78,1.23-1.85,1.23-2.96s-.44-2.17-1.23-2.96c-.78-.78-1.85-1.23-2.96-1.23s-2.17.44-2.96,1.23c-.79.78-1.23,1.85-1.23,2.96s.44,2.17,1.23,2.96c.78.78,1.85,1.23,2.96,1.23Z"/><path class="cls-15" d="M226,285.13c1.11,0,2.17-.44,2.96-1.23.79-.78,1.23-1.85,1.23-2.96s-.44-2.17-1.23-2.96c-.78-.78-1.85-1.23-2.96-1.23s-2.17.44-2.96,1.23c-.79.78-1.23,1.85-1.23,2.96s.44,2.17,1.23,2.96c.78.78,1.85,1.23,2.96,1.23"/><path class="cls-9" d="M226,285.13c1.11,0,2.17-.44,2.96-1.23.79-.78,1.23-1.85,1.23-2.96s-.44-2.17-1.23-2.96c-.78-.78-1.85-1.23-2.96-1.23s-2.17.44-2.96,1.23c-.79.78-1.23,1.85-1.23,2.96s.44,2.17,1.23,2.96c.78.78,1.85,1.23,2.96,1.23Z"/><path class="cls-15" d="M279.06,354.36c1.11,0,2.17-.44,2.96-1.22s1.23-1.85,1.23-2.96-.44-2.17-1.23-2.96c-.78-.79-1.85-1.23-2.96-1.23s-2.17.44-2.96,1.23c-.78.78-1.23,1.85-1.23,2.96s.44,2.17,1.23,2.96c.78.78,1.85,1.22,2.96,1.22"/><path class="cls-9" d="M279.06,354.36c1.11,0,2.17-.44,2.96-1.22s1.23-1.85,1.23-2.96-.44-2.17-1.23-2.96c-.78-.79-1.85-1.23-2.96-1.23s-2.17.44-2.96,1.23c-.78.78-1.23,1.85-1.23,2.96s.44,2.17,1.23,2.96c.78.78,1.85,1.22,2.96,1.22Z"/><path class="cls-15" d="M308.58,312.68c1.11,0,2.17-.44,2.96-1.22s1.23-1.85,1.23-2.96-.44-2.17-1.23-2.96c-.78-.79-1.85-1.23-2.96-1.23s-2.17.44-2.96,1.23c-.79.78-1.23,1.85-1.23,2.96s.44,2.17,1.23,2.96,1.85,1.22,2.96,1.22"/><path class="cls-9" d="M308.58,312.68c1.11,0,2.17-.44,2.96-1.22s1.23-1.85,1.23-2.96-.44-2.17-1.23-2.96c-.78-.79-1.85-1.23-2.96-1.23s-2.17.44-2.96,1.23c-.79.78-1.23,1.85-1.23,2.96s.44,2.17,1.23,2.96,1.85,1.22,2.96,1.22Z"/><path class="cls-15" d="M354.41,264.6c1.11,0,2.17-.44,2.96-1.23.79-.78,1.23-1.85,1.23-2.96s-.44-2.17-1.23-2.96c-.78-.78-1.85-1.23-2.96-1.23s-2.17.44-2.96,1.23c-.79.78-1.23,1.85-1.23,2.96s.44,2.17,1.23,2.96c.78.78,1.85,1.23,2.96,1.23"/><path class="cls-9" d="M354.41,264.6c1.11,0,2.17-.44,2.96-1.23.79-.78,1.23-1.85,1.23-2.96s-.44-2.17-1.23-2.96c-.78-.78-1.85-1.23-2.96-1.23s-2.17.44-2.96,1.23c-.79.78-1.23,1.85-1.23,2.96s.44,2.17,1.23,2.96c.78.78,1.85,1.23,2.96,1.23Z"/><path class="cls-15" d="M386.29,161.39c1.11,0,2.17-.44,2.96-1.23s1.23-1.85,1.23-2.96-.44-2.17-1.23-2.96c-.78-.79-1.85-1.23-2.96-1.23s-2.17.44-2.96,1.23c-.79.78-1.23,1.85-1.23,2.96s.44,2.17,1.23,2.96,1.85,1.23,2.96,1.23"/><path class="cls-9" d="M386.29,161.39c1.11,0,2.17-.44,2.96-1.23s1.23-1.85,1.23-2.96-.44-2.17-1.23-2.96c-.78-.79-1.85-1.23-2.96-1.23s-2.17.44-2.96,1.23c-.79.78-1.23,1.85-1.23,2.96s.44,2.17,1.23,2.96,1.85,1.23,2.96,1.23Z"/><path class="cls-15" d="M398.09,136.89c1.11,0,2.17-.44,2.96-1.23s1.23-1.85,1.23-2.96-.44-2.17-1.23-2.96c-.78-.79-1.85-1.23-2.96-1.23s-2.17.44-2.96,1.23c-.79.78-1.23,1.85-1.23,2.96s.44,2.17,1.23,2.96,1.85,1.23,2.96,1.23"/><path class="cls-9" d="M398.09,136.89c1.11,0,2.17-.44,2.96-1.23s1.23-1.85,1.23-2.96-.44-2.17-1.23-2.96c-.78-.79-1.85-1.23-2.96-1.23s-2.17.44-2.96,1.23c-.79.78-1.23,1.85-1.23,2.96s.44,2.17,1.23,2.96,1.85,1.23,2.96,1.23Z"/><path class="cls-15" d="M400.36,140.35c1.11,0,2.17-.44,2.96-1.23s1.23-1.85,1.23-2.96-.44-2.17-1.23-2.96c-.78-.79-1.85-1.23-2.96-1.23s-2.17.44-2.96,1.23c-.79.78-1.23,1.85-1.23,2.96s.44,2.17,1.23,2.96,1.85,1.23,2.96,1.23"/><path class="cls-9" d="M400.36,140.35c1.11,0,2.17-.44,2.96-1.23s1.23-1.85,1.23-2.96-.44-2.17-1.23-2.96c-.78-.79-1.85-1.23-2.96-1.23s-2.17.44-2.96,1.23c-.79.78-1.23,1.85-1.23,2.96s.44,2.17,1.23,2.96,1.85,1.23,2.96,1.23Z"/><path class="cls-15" d="M401.44,139.9c1.11,0,2.17-.44,2.96-1.23.78-.79,1.23-1.85,1.23-2.96s-.44-2.17-1.23-2.96c-.78-.79-1.85-1.23-2.96-1.23s-2.17.44-2.96,1.23c-.79.78-1.23,1.85-1.23,2.96s.44,2.17,1.23,2.96,1.85,1.23,2.96,1.23"/><path class="cls-9" d="M401.44,139.9c1.11,0,2.17-.44,2.96-1.23.78-.79,1.23-1.85,1.23-2.96s-.44-2.17-1.23-2.96c-.78-.79-1.85-1.23-2.96-1.23s-2.17.44-2.96,1.23c-.79.78-1.23,1.85-1.23,2.96s.44,2.17,1.23,2.96,1.85,1.23,2.96,1.23Z"/><path class="cls-13" d="M206.16,248.69c1.11,0,2.17-.44,2.96-1.23.79-.78,1.23-1.85,1.23-2.96s-.44-2.17-1.23-2.96c-.78-.78-1.85-1.23-2.96-1.23s-2.17.44-2.96,1.23c-.79.78-1.23,1.85-1.23,2.96s.44,2.17,1.23,2.96c.78.78,1.85,1.23,2.96,1.23"/><path class="cls-9" d="M206.16,248.69c1.11,0,2.17-.44,2.96-1.23.79-.78,1.23-1.85,1.23-2.96s-.44-2.17-1.23-2.96c-.78-.78-1.85-1.23-2.96-1.23s-2.17.44-2.96,1.23c-.79.78-1.23,1.85-1.23,2.96s.44,2.17,1.23,2.96c.78.78,1.85,1.23,2.96,1.23Z"/><path class="cls-13" d="M249.64,312.92c1.11,0,2.17-.44,2.96-1.22s1.23-1.85,1.23-2.96-.44-2.17-1.23-2.96c-.78-.79-1.85-1.23-2.96-1.23s-2.17.44-2.96,1.23c-.79.78-1.23,1.85-1.23,2.96s.44,2.17,1.23,2.96,1.85,1.22,2.96,1.22"/><path class="cls-9" d="M249.64,312.92c1.11,0,2.17-.44,2.96-1.22s1.23-1.85,1.23-2.96-.44-2.17-1.23-2.96c-.78-.79-1.85-1.23-2.96-1.23s-2.17.44-2.96,1.23c-.79.78-1.23,1.85-1.23,2.96s.44,2.17,1.23,2.96,1.85,1.22,2.96,1.22Z"/><path class="cls-11" d="M84.02,30.56c1.11,0,2.17-.44,2.96-1.23.78-.79,1.22-1.85,1.22-2.96s-.44-2.17-1.22-2.96c-.78-.79-1.85-1.23-2.96-1.23s-2.17.44-2.96,1.23c-.78.78-1.22,1.85-1.22,2.96s.44,2.17,1.22,2.96c.78.78,1.85,1.23,2.96,1.23"/><path class="cls-9" d="M84.02,30.56c1.11,0,2.17-.44,2.96-1.23.78-.79,1.22-1.85,1.22-2.96s-.44-2.17-1.22-2.96c-.78-.79-1.85-1.23-2.96-1.23s-2.17.44-2.96,1.23c-.78.78-1.22,1.85-1.22,2.96s.44,2.17,1.22,2.96c.78.78,1.85,1.23,2.96,1.23Z"/><path class="cls-11" d="M159.38,232.07c1.11,0,2.17-.44,2.96-1.23.79-.78,1.23-1.85,1.23-2.96s-.44-2.17-1.23-2.96c-.78-.78-1.85-1.23-2.96-1.23s-2.17.44-2.96,1.23c-.79.78-1.23,1.85-1.23,2.96s.44,2.17,1.23,2.96c.78.78,1.85,1.23,2.96,1.23"/><path class="cls-9" d="M159.38,232.07c1.11,0,2.17-.44,2.96-1.23.79-.78,1.23-1.85,1.23-2.96s-.44-2.17-1.23-2.96c-.78-.78-1.85-1.23-2.96-1.23s-2.17.44-2.96,1.23c-.79.78-1.23,1.85-1.23,2.96s.44,2.17,1.23,2.96c.78.78,1.85,1.23,2.96,1.23Z"/></g><line class="cls-6" x1="126.69" y1="366.36" x2="126.69" y2="376.36"/><line class="cls-6" x1="202.32" y1="366.36" x2="202.32" y2="376.36"/><line class="cls-6" x1="277.95" y1="366.36" x2="277.95" y2="376.36"/><line class="cls-6" x1="353.58" y1="366.36" x2="353.58" y2="376.36"/><line class="cls-6" x1="68.15" y1="346.21" x2="58.15" y2="346.21"/><line class="cls-6" x1="68.15" y1="301.71" x2="58.15" y2="301.71"/><line class="cls-6" x1="68.15" y1="257.21" x2="58.15" y2="257.21"/><line class="cls-6" x1="68.15" y1="212.71" x2="58.15" y2="212.71"/><line class="cls-6" x1="68.15" y1="168.22" x2="58.15" y2="168.22"/><line class="cls-6" x1="68.15" y1="123.72" x2="58.15" y2="123.72"/><line class="cls-6" x1="68.15" y1="79.22" x2="58.15" y2="79.22"/><line class="cls-6" x1="68.15" y1="34.72" x2="58.15" y2="34.72"/><line class="cls-3" x1="68.15" y1="366.36" x2="68.15" y2="10.18"/><line class="cls-3" x1="68.15" y1="366.36" x2="417.31" y2="366.36"/><path class="cls-12" d="M116.85,385.9h4.56v1.86h-4.56v-1.86Z"/><path class="cls-12" d="M124.31,382.71h-2.39v-1.61c1.93,0,2.61-.31,3.12-1.57h1.55v12.76h-2.28v-9.59Z"/><path class="cls-12" d="M128.19,389.03v-6.24c0-2.19,1.22-3.45,3.46-3.45s3.45,1.26,3.45,3.45v6.24c0,2.17-1.22,3.45-3.45,3.45s-3.46-1.28-3.46-3.45ZM132.83,389.14v-6.46c0-.89-.42-1.31-1.17-1.31s-1.19.42-1.19,1.31v6.46c0,.88.44,1.31,1.19,1.31s1.17-.44,1.17-1.31Z"/><path class="cls-12" d="M194.85,385.9h4.56v1.86h-4.56v-1.86Z"/><path class="cls-12" d="M200.54,389.05v-.89h2.15v.99c0,.93.42,1.31,1.19,1.31s1.17-.4,1.17-1.31v-2.43c0-.89-.38-1.33-1.13-1.33-.86,0-1.19.49-1.22,1.37h-2.15l.42-7.22h6v2.02h-3.98l-.18,2.77c.4-.62,1.08-.97,2.01-.97,1.68,0,2.52,1.13,2.52,3.14v2.55c0,2.19-1.15,3.43-3.39,3.43s-3.39-1.22-3.39-3.43Z"/><path class="cls-12" d="M275.02,389.03v-6.24c0-2.19,1.22-3.45,3.46-3.45s3.45,1.26,3.45,3.45v6.24c0,2.17-1.22,3.45-3.45,3.45s-3.46-1.28-3.46-3.45ZM279.65,389.14v-6.46c0-.89-.42-1.31-1.17-1.31s-1.19.42-1.19,1.31v6.46c0,.88.44,1.31,1.19,1.31s1.17-.44,1.17-1.31Z"/><path class="cls-12" d="M349.99,389.05v-.89h2.15v.99c0,.93.42,1.31,1.18,1.31s1.17-.4,1.17-1.31v-2.43c0-.89-.38-1.33-1.13-1.33-.86,0-1.19.49-1.22,1.37h-2.15l.42-7.22h6v2.02h-3.97l-.18,2.77c.4-.62,1.08-.97,2.01-.97,1.68,0,2.52,1.13,2.52,3.14v2.55c0,2.19-1.15,3.43-3.39,3.43s-3.39-1.22-3.39-3.43Z"/><path class="cls-12" d="M168.45,399.7h3.97c2.72,0,4.02,1.32,4.02,3.95v1.19c0,2.63-1.3,3.97-4.02,3.97h-1.27v6h-2.7v-15.11ZM172.42,406.42c.91,0,1.32-.41,1.32-1.49v-1.36c0-1.08-.41-1.47-1.32-1.47h-1.27v4.32h1.27Z"/><path class="cls-12" d="M177.77,411v-7.47c0-2.57,1.4-4.04,3.97-4.04s3.95,1.47,3.95,4.04v1.34h-2.55v-1.47c0-1.06-.5-1.55-1.34-1.55s-1.34.5-1.34,1.55v7.73c0,1.06.5,1.55,1.34,1.55s1.34-.5,1.34-1.55v-1.92h2.55v1.79c0,2.57-1.38,4.04-3.95,4.04s-3.97-1.47-3.97-4.04Z"/><path class="cls-12" d="M189.59,403.46h-2.83v-1.9c2.29,0,3.09-.37,3.69-1.86h1.83v15.11h-2.7v-11.36Z"/><path class="cls-12" d="M202.63,412.18h-5.14v-2.38l4.9-10.11h2.94v10.08h1.27v2.4h-1.27v2.63h-2.7v-2.63ZM202.63,409.79v-5.79l-2.7,5.79h2.7Z"/><path class="cls-12" d="M212.54,402.1h-5.4v-2.4h8.08v2.29l-4.19,12.83h-2.85l4.36-12.72Z"/><path class="cls-12" d="M214.72,412.12h2.7v2.7h-2.7v-2.7Z"/><path class="cls-12" d="M219.28,410.98v-1.06h2.55v1.17c0,1.1.5,1.55,1.4,1.55s1.38-.47,1.38-1.55v-2.87c0-1.06-.45-1.58-1.34-1.58-1.01,0-1.4.58-1.45,1.62h-2.55l.5-8.55h7.1v2.4h-4.71l-.22,3.28c.48-.73,1.27-1.14,2.38-1.14,1.99,0,2.98,1.34,2.98,3.71v3.02c0,2.59-1.36,4.06-4.02,4.06s-4.02-1.45-4.02-4.06Z"/><path class="cls-12" d="M231.24,403.46h-2.83v-1.9c2.29,0,3.09-.37,3.69-1.86h1.83v15.11h-2.7v-11.36Z"/><path class="cls-12" d="M235.59,405.49v-3.41c0-1.66.91-2.59,2.59-2.59s2.59.93,2.59,2.59v3.41c0,1.66-.91,2.59-2.59,2.59s-2.59-.93-2.59-2.59ZM239.06,405.6v-3.63c0-.67-.32-.99-.88-.99s-.89.32-.89.99v3.63c0,.67.3.99.89.99s.88-.32.88-.99ZM244.39,399.7h1.73l-6.65,15.11h-1.71l6.63-15.11ZM243.1,412.42v-3.39c0-1.68.91-2.61,2.59-2.61s2.61.93,2.61,2.61v3.39c0,1.68-.91,2.61-2.61,2.61s-2.59-.93-2.59-2.61ZM246.57,412.55v-3.65c0-.65-.32-.99-.88-.99s-.86.35-.86.99v3.65c0,.65.3.99.86.99s.88-.35.88-.99Z"/><path class="cls-12" d="M252.82,403.81h2.68l1.6,7.95,1.58-7.95h2.48l-2.57,11.01h-3.2l-2.57-11.01Z"/><path class="cls-12" d="M267.29,414.82c-.09-.11-.17-.69-.22-1.58-.41,1.12-1.3,1.79-2.61,1.79-1.66,0-2.72-1.08-2.72-2.85s.71-2.81,2.94-3.58c1.86-.65,2.12-.88,2.12-1.49v-.11c0-.86-.3-1.25-1.06-1.25-.84,0-1.17.5-1.17,1.36v.22h-2.44v-.15c0-2.27,1.25-3.58,3.63-3.58,2.66,0,3.63,1.36,3.63,3.93v4.02c0,1.64.13,2.66.3,3.28h-2.4ZM266.79,410.95v-1.36c-.24.19-.63.41-1.29.69-.84.37-1.17.86-1.17,1.47,0,.71.32,1.1,1.06,1.1.82,0,1.4-.58,1.4-1.9Z"/><path class="cls-12" d="M276.83,403.72v2.5c-.19-.04-.43-.04-.65-.04-1.45,0-2.2.91-2.2,2.63v6h-2.61v-11.01h2.27l.04,2.05c.35-1.53,1.14-2.27,2.42-2.27.35,0,.56.04.73.13Z"/><path class="cls-12" d="M278.17,399.68h2.61v2.7h-2.61v-2.7ZM278.17,403.81h2.61v11.01h-2.61v-11.01Z"/><path class="cls-12" d="M287.87,414.82c-.09-.11-.17-.69-.22-1.58-.41,1.12-1.3,1.79-2.61,1.79-1.66,0-2.72-1.08-2.72-2.85s.71-2.81,2.94-3.58c1.86-.65,2.12-.88,2.12-1.49v-.11c0-.86-.3-1.25-1.06-1.25-.84,0-1.17.5-1.17,1.36v.22h-2.44v-.15c0-2.27,1.25-3.58,3.63-3.58,2.66,0,3.63,1.36,3.63,3.93v4.02c0,1.64.13,2.66.3,3.28h-2.4ZM287.37,410.95v-1.36c-.24.19-.63.41-1.29.69-.84.37-1.17.86-1.17,1.47,0,.71.32,1.1,1.06,1.1.82,0,1.4-.58,1.4-1.9Z"/><path class="cls-12" d="M299.55,407.02v7.79h-2.59v-7.43c0-1.06-.3-1.53-1.1-1.53s-1.3.52-1.3,1.86v7.1h-2.61v-11.01h2.27l.04,1.58c.41-1.14,1.32-1.79,2.57-1.79,1.75,0,2.72,1.1,2.72,3.43Z"/><path class="cls-12" d="M301.23,411.23v-3.84c0-2.44,1.36-3.8,3.8-3.8s3.71,1.49,3.71,3.8v.5h-2.5v-.71c0-.84-.37-1.32-1.21-1.32s-1.19.47-1.19,1.32v4.28c0,.82.37,1.32,1.19,1.32s1.21-.5,1.21-1.32v-.95h2.5v.73c0,2.31-1.21,3.8-3.71,3.8s-3.8-1.38-3.8-3.8Z"/><path class="cls-12" d="M317.88,407.41v2.5h-5.1v1.55c0,.91.43,1.34,1.3,1.34s1.29-.41,1.29-1.38v-.22h2.5v.11c0,2.31-1.38,3.71-3.84,3.71s-3.86-1.38-3.86-3.82v-3.8c0-2.46,1.36-3.82,3.86-3.82s3.84,1.36,3.84,3.82ZM315.33,407.97v-.86c0-.91-.45-1.32-1.27-1.32s-1.27.41-1.27,1.32v.86h2.55Z"/><path class="cls-12" d="M7.68,264.75v-3.97c0-2.72,1.32-4.02,3.95-4.02h1.19c2.63,0,3.97,1.3,3.97,4.02v1.27h6v2.7H7.68ZM14.39,260.77c0-.91-.41-1.32-1.49-1.32h-1.36c-1.08,0-1.47.41-1.47,1.32v1.27h4.32v-1.27Z"/><path class="cls-12" d="M18.97,255.42h-7.47c-2.57,0-4.04-1.4-4.04-3.97s1.47-3.95,4.04-3.95h1.34v2.55h-1.47c-1.06,0-1.55.5-1.55,1.34s.5,1.34,1.55,1.34h7.73c1.06,0,1.55-.5,1.55-1.34s-.5-1.34-1.55-1.34h-1.92v-2.55h1.79c2.57,0,4.04,1.38,4.04,3.95s-1.47,3.97-4.04,3.97Z"/><path class="cls-12" d="M20.98,246.24c-2.09,0-3.48-.69-5.44-2.81-1.75-1.9-2.63-2.55-4.04-2.55-1.21,0-1.64.54-1.64,1.38s.48,1.4,1.6,1.4h1.4v2.55h-1.34c-2.53,0-4.06-1.38-4.06-4.02s1.53-4.02,3.95-4.02c1.96,0,3.43.93,5.79,3.5,1.4,1.53,2.09,1.88,2.98,1.88h.22v-5.12h2.4v7.79h-1.81Z"/><path class="cls-12" d="M11.43,230.74v2.83h-1.9c0-2.29-.37-3.09-1.86-3.69v-1.83h15.11v2.7h-11.36Z"/><path class="cls-12" d="M18.92,226.11h-7.25c-2.72,0-4.21-1.32-4.21-4.1,0-2.63,1.51-4.02,3.97-4.02h.15v2.55h-.22c-1.06,0-1.51.5-1.51,1.38,0,.99.45,1.49,1.92,1.49h2.5c-.91-.54-1.34-1.38-1.34-2.48,0-1.99,1.3-3,3.69-3h2.29c2.57,0,4.08,1.45,4.08,4.1s-1.51,4.08-4.08,4.08ZM19.08,220.63h-2.16c-1.06,0-1.58.43-1.58,1.4s.48,1.38,1.53,1.38h2.2c1.04,0,1.53-.47,1.53-1.38s-.52-1.4-1.53-1.4Z"/><path class="cls-12" d="M20.09,216.14v-2.7h2.7v2.7h-2.7Z"/><path class="cls-12" d="M20.98,211.71c-2.09,0-3.48-.69-5.44-2.81-1.75-1.9-2.63-2.55-4.04-2.55-1.21,0-1.64.54-1.64,1.38s.48,1.4,1.6,1.4h1.4v2.55h-1.34c-2.53,0-4.06-1.38-4.06-4.02s1.53-4.02,3.95-4.02c1.96,0,3.43.93,5.79,3.5,1.4,1.53,2.09,1.88,2.98,1.88h.22v-5.12h2.4v7.79h-1.81Z"/><path class="cls-12" d="M18.95,202.38h-1.06v-2.55h1.17c1.1,0,1.55-.5,1.55-1.4s-.47-1.38-1.55-1.38h-2.87c-1.06,0-1.58.45-1.58,1.34,0,1.01.58,1.4,1.62,1.45v2.55l-8.55-.5v-7.1h2.4v4.71l3.28.22c-.73-.48-1.14-1.27-1.14-2.38,0-1.99,1.34-2.98,3.71-2.98h3.02c2.59,0,4.06,1.36,4.06,4.02s-1.45,4.02-4.06,4.02Z"/><path class="cls-12" d="M13.46,193.14h-3.41c-1.66,0-2.59-.91-2.59-2.59s.93-2.59,2.59-2.59h3.41c1.66,0,2.59.91,2.59,2.59s-.93,2.59-2.59,2.59ZM7.68,184.33v-1.73l15.11,6.65v1.71l-15.11-6.63ZM13.57,189.66h-3.63c-.67,0-.99.32-.99.89s.32.89.99.89h3.63c.67,0,.99-.3.99-.89s-.32-.89-.99-.89ZM20.39,185.62h-3.39c-1.68,0-2.61-.91-2.61-2.59s.93-2.61,2.61-2.61h3.39c1.68,0,2.61.91,2.61,2.61s-.93,2.59-2.61,2.59ZM20.52,182.15h-3.65c-.65,0-.99.32-.99.89s.35.86.99.86h3.65c.65,0,.99-.3.99-.86s-.35-.89-.99-.89Z"/><path class="cls-12" d="M11.78,175.91v-2.68l7.95-1.6-7.95-1.58v-2.48l11.01,2.57v3.2l-11.01,2.57Z"/><path class="cls-12" d="M22.79,161.44c-.11.09-.69.17-1.58.22,1.12.41,1.79,1.3,1.79,2.61,0,1.66-1.08,2.72-2.85,2.72s-2.81-.71-3.58-2.94c-.65-1.86-.89-2.12-1.49-2.12h-.11c-.86,0-1.25.3-1.25,1.06,0,.84.5,1.17,1.36,1.17h.22v2.44h-.15c-2.27,0-3.58-1.25-3.58-3.63,0-2.66,1.36-3.63,3.93-3.63h4.02c1.64,0,2.66-.13,3.28-.3v2.4ZM18.92,161.93h-1.36c.19.24.41.63.69,1.3.37.84.86,1.17,1.47,1.17.71,0,1.1-.32,1.1-1.06,0-.82-.58-1.4-1.9-1.4Z"/><path class="cls-12" d="M11.69,151.89h2.5c-.04.19-.04.43-.04.65,0,1.45.91,2.2,2.63,2.2h6v2.61h-11.01v-2.27l2.05-.04c-1.53-.35-2.27-1.14-2.27-2.42,0-.35.04-.56.13-.73Z"/><path class="cls-12" d="M7.65,150.55v-2.61h2.7v2.61h-2.7ZM11.78,150.55v-2.61h11.01v2.61h-11.01Z"/><path class="cls-12" d="M22.79,140.86c-.11.09-.69.17-1.58.22,1.12.41,1.79,1.3,1.79,2.61,0,1.66-1.08,2.72-2.85,2.72s-2.81-.71-3.58-2.94c-.65-1.86-.89-2.12-1.49-2.12h-.11c-.86,0-1.25.3-1.25,1.06,0,.84.5,1.17,1.36,1.17h.22v2.44h-.15c-2.27,0-3.58-1.25-3.58-3.63,0-2.66,1.36-3.63,3.93-3.63h4.02c1.64,0,2.66-.13,3.28-.3v2.4ZM18.92,141.35h-1.36c.19.24.41.63.69,1.3.37.84.86,1.17,1.47,1.17.71,0,1.1-.32,1.1-1.06,0-.82-.58-1.4-1.9-1.4Z"/><path class="cls-12" d="M15,129.18h7.79v2.59h-7.43c-1.06,0-1.53.3-1.53,1.1s.52,1.3,1.86,1.3h7.1v2.61h-11.01v-2.27l1.58-.04c-1.14-.41-1.79-1.32-1.79-2.57,0-1.75,1.1-2.72,3.43-2.72Z"/><path class="cls-12" d="M19.21,127.49h-3.84c-2.44,0-3.8-1.36-3.8-3.8s1.49-3.71,3.8-3.71h.5v2.5h-.71c-.84,0-1.32.37-1.32,1.21s.47,1.19,1.32,1.19h4.28c.82,0,1.32-.37,1.32-1.19s-.5-1.21-1.32-1.21h-.95v-2.5h.73c2.31,0,3.8,1.21,3.8,3.71s-1.38,3.8-3.8,3.8Z"/><path class="cls-12" d="M15.38,110.84h2.5v5.1h1.55c.91,0,1.34-.43,1.34-1.3s-.41-1.3-1.38-1.3h-.22v-2.5h.11c2.31,0,3.71,1.38,3.71,3.84s-1.38,3.86-3.82,3.86h-3.8c-2.46,0-3.82-1.36-3.82-3.86s1.36-3.84,3.82-3.84ZM15.94,113.39h-.86c-.91,0-1.32.45-1.32,1.27s.41,1.27,1.32,1.27h.86v-2.55Z"/><path class="cls-12" d="M45.81,215.79v-6.24c0-2.19,1.22-3.45,3.46-3.45s3.45,1.26,3.45,3.45v6.24c0,2.17-1.22,3.45-3.45,3.45s-3.46-1.28-3.46-3.45ZM50.44,215.89v-6.46c0-.89-.42-1.31-1.17-1.31s-1.19.42-1.19,1.31v6.46c0,.88.44,1.31,1.19,1.31s1.17-.44,1.17-1.31Z"/><path class="cls-12" d="M40.65,257.65h4.56v1.86h-4.56v-1.86Z"/><path class="cls-12" d="M46.23,262.52c0-1.77.58-2.94,2.37-4.6,1.6-1.48,2.15-2.22,2.15-3.41,0-1.02-.46-1.39-1.17-1.39s-1.19.4-1.19,1.35v1.19h-2.15v-1.13c0-2.13,1.17-3.43,3.39-3.43s3.39,1.29,3.39,3.34c0,1.66-.78,2.9-2.95,4.89-1.29,1.19-1.59,1.77-1.59,2.52v.18h4.32v2.02h-6.58v-1.53Z"/><path class="cls-12" d="M39.64,301.65h4.56v1.86h-4.56v-1.86Z"/><path class="cls-12" d="M49.58,305.82h-4.34v-2.01l4.14-8.53h2.48v8.51h1.08v2.02h-1.08v2.22h-2.28v-2.22ZM49.58,303.8v-4.89l-2.28,4.89h2.28Z"/><path class="cls-12" d="M39.64,345.64h4.56v1.86h-4.56v-1.86Z"/><path class="cls-12" d="M45.39,348.78v-6.13c0-2.3,1.11-3.56,3.46-3.56,2.22,0,3.39,1.28,3.39,3.36v.13h-2.15v-.18c0-.89-.42-1.28-1.17-1.28-.84,0-1.26.38-1.26,1.62v2.12c.46-.77,1.17-1.13,2.1-1.13,1.68,0,2.53,1.09,2.53,3.12v1.93c0,2.17-1.22,3.45-3.46,3.45s-3.45-1.28-3.45-3.45ZM50.02,348.91v-1.82c0-.89-.36-1.33-1.19-1.33s-1.17.4-1.17,1.29v1.86c0,.88.4,1.29,1.17,1.29s1.19-.44,1.19-1.29Z"/><path class="cls-12" d="M45.66,173.52c0-1.77.58-2.94,2.37-4.6,1.6-1.48,2.15-2.22,2.15-3.41,0-1.02-.46-1.39-1.17-1.39s-1.19.4-1.19,1.35v1.19h-2.15v-1.13c0-2.13,1.17-3.43,3.39-3.43s3.39,1.29,3.39,3.34c0,1.66-.78,2.9-2.95,4.89-1.29,1.19-1.59,1.77-1.59,2.52v.18h4.32v2.02h-6.58v-1.53Z"/><path class="cls-12" d="M45.83,81.79v-6.13c0-2.3,1.11-3.56,3.46-3.56,2.22,0,3.39,1.28,3.39,3.35v.13h-2.15v-.18c0-.89-.42-1.28-1.17-1.28-.84,0-1.26.38-1.26,1.62v2.12c.46-.77,1.17-1.13,2.1-1.13,1.68,0,2.53,1.09,2.53,3.12v1.93c0,2.17-1.22,3.45-3.46,3.45s-3.45-1.28-3.45-3.45ZM50.46,81.92v-1.82c0-.89-.36-1.33-1.19-1.33s-1.17.4-1.17,1.29v1.86c0,.88.4,1.29,1.17,1.29s1.19-.44,1.19-1.29Z"/><path class="cls-12" d="M45.66,37.83v-.69c0-1.28.38-2.3,1.55-2.79v-.04c-.97-.46-1.46-1.39-1.46-2.53v-.4c0-2.08,1.17-3.26,3.46-3.26s3.46,1.19,3.46,3.26v.4c0,1.15-.49,2.08-1.44,2.53v.04c1.17.49,1.53,1.51,1.53,2.79v.69c0,2.24-1.2,3.41-3.56,3.41s-3.56-1.17-3.56-3.41ZM50.51,37.68v-.77c0-1-.46-1.5-1.29-1.5s-1.28.49-1.28,1.5v.77c0,1.11.42,1.53,1.28,1.53s1.29-.42,1.29-1.53ZM50.44,32.07v-.62c0-.88-.42-1.31-1.22-1.31s-1.2.44-1.2,1.31v.62c0,.97.53,1.33,1.2,1.33s1.22-.36,1.22-1.33Z"/><path class="cls-12" d="M49.84,127.83h-4.34v-2.01l4.14-8.53h2.48v8.52h1.08v2.02h-1.08v2.22h-2.28v-2.22ZM49.84,125.8v-4.89l-2.28,4.89h2.28Z"/></g><path class="cls-12" d="M91.27,21.62h2.17l1.75,5.77v-5.77h1.57v9.81h-1.76l-2.16-7.07v7.07h-1.57v-9.81Z"/><path class="cls-12" d="M98.11,21.62h2.58c1.76,0,2.6.85,2.6,2.56v.77c0,1.71-.84,2.58-2.6,2.58h-.83v3.89h-1.75v-9.81ZM100.68,25.98c.59,0,.85-.27.85-.97v-.88c0-.7-.27-.95-.85-.95h-.83v2.8h.83Z"/><path class="cls-12" d="M104.15,28.95v-4.85c0-1.67.91-2.62,2.58-2.62s2.56.95,2.56,2.62v.87h-1.65v-.95c0-.69-.32-1.01-.87-1.01s-.87.32-.87,1.01v5.01c0,.69.32,1.01.87,1.01s.87-.32.87-1.01v-1.25h1.65v1.16c0,1.67-.9,2.62-2.56,2.62s-2.58-.95-2.58-2.62Z"/><path class="cls-12" d="M112.93,30.43v-6.43c0-1.65.6-2.38,2.4-2.38h.5v1.3h-.41c-.62,0-.91.24-.91,1.08v6.43c0,.77.24,1.09.91,1.09h.41v1.3h-.5c-1.65,0-2.4-.59-2.4-2.4Z"/><path class="cls-12" d="M117.08,21.62h4.78v1.55h-3.03v2.42h2.41v1.55h-2.41v2.72h3.03v1.55h-4.78v-9.81Z"/><path class="cls-12" d="M124.3,24.06h-1.83v-1.23c1.48,0,2-.24,2.4-1.2h1.19v9.81h-1.75v-7.37Z"/><path class="cls-12" d="M127.25,28.94v-.69h1.65v.76c0,.71.32,1.01.91,1.01s.9-.31.9-1.01v-1.86c0-.69-.29-1.02-.87-1.02-.66,0-.91.38-.94,1.05h-1.65l.32-5.55h4.61v1.55h-3.05l-.14,2.13c.31-.48.83-.74,1.54-.74,1.29,0,1.93.87,1.93,2.41v1.96c0,1.68-.88,2.63-2.61,2.63s-2.61-.94-2.61-2.63Z"/><path class="cls-12" d="M133.62,29.68h1.75v1.75h-1.75v-1.75Z"/><path class="cls-12" d="M136.58,28.94v-.69h1.65v.76c0,.71.32,1.01.91,1.01s.9-.31.9-1.01v-1.86c0-.69-.29-1.02-.87-1.02-.66,0-.91.38-.94,1.05h-1.65l.32-5.55h4.61v1.55h-3.05l-.14,2.13c.31-.48.83-.74,1.54-.74,1.29,0,1.93.87,1.93,2.41v1.96c0,1.68-.88,2.63-2.61,2.63s-2.61-.94-2.61-2.63Z"/><path class="cls-12" d="M142.78,31.53h.42c.6,0,.9-.25.9-1.09v-6.43c0-.77-.22-1.08-.9-1.08h-.42v-1.3h.52c1.64,0,2.4.59,2.4,2.38v6.43c0,1.67-.6,2.4-2.4,2.4h-.52v-1.3Z"/><path class="cls-12" d="M113.93,227.37v5.06h-1.68v-4.82c0-.69-.2-.99-.71-.99s-.84.34-.84,1.21v4.61h-1.7v-7.14h1.47l.03,1.02c.27-.74.85-1.16,1.67-1.16,1.13,0,1.76.71,1.76,2.23Z"/><path class="cls-12" d="M120.02,227.62v1.62h-3.31v1.01c0,.59.28.87.84.87s.84-.27.84-.9v-.14h1.62v.07c0,1.5-.9,2.41-2.49,2.41s-2.51-.9-2.51-2.48v-2.46c0-1.6.88-2.48,2.51-2.48s2.49.88,2.49,2.48ZM118.37,227.99v-.56c0-.59-.29-.85-.83-.85s-.83.27-.83.85v.56h1.65Z"/><path class="cls-12" d="M126.02,225.28v7.14h-1.46l-.04-1.04c-.25.74-.84,1.18-1.65,1.18-1.13,0-1.78-.71-1.78-2.24v-5.04h1.69v4.8c0,.69.18,1.01.71,1.01s.84-.35.84-1.2v-4.61h1.68Z"/><path class="cls-12" d="M130.87,225.23v1.62c-.13-.03-.28-.03-.42-.03-.94,0-1.43.59-1.43,1.71v3.89h-1.7v-7.14h1.47l.03,1.33c.22-.99.74-1.47,1.57-1.47.22,0,.36.03.48.08Z"/><path class="cls-12" d="M131.53,230.09v-2.46c0-1.6.9-2.48,2.48-2.48s2.48.88,2.48,2.48v2.46c0,1.58-.88,2.48-2.48,2.48s-2.48-.9-2.48-2.48ZM134.81,230.23v-2.75c0-.52-.24-.87-.8-.87s-.78.35-.78.87v2.75c0,.52.24.87.78.87s.8-.35.8-.87Z"/><path class="cls-12" d="M142.56,227.37v5.06h-1.68v-4.82c0-.69-.2-.99-.71-.99s-.84.34-.84,1.21v4.61h-1.69v-7.14h1.47l.03,1.02c.27-.74.85-1.16,1.67-1.16,1.13,0,1.76.71,1.76,2.23Z"/><path class="cls-12" d="M143.53,230.34v-.21h1.61v.24c0,.56.29.81.76.81.42,0,.73-.21.73-.73s-.52-.71-1.19-.97c-.88-.34-1.82-.81-1.82-2.24,0-1.28.77-2.1,2.27-2.1,1.39,0,2.27.8,2.27,2.1v.15h-1.58v-.18c0-.48-.22-.7-.67-.7-.34,0-.64.18-.64.66,0,.55.5.76,1.23,1.04.88.34,1.81.79,1.81,2.14s-.78,2.21-2.33,2.21-2.44-.84-2.44-2.23Z"/><path class="cls-12" d="M112.11,244.43v-6.43c0-1.65.6-2.38,2.4-2.38h.5v1.3h-.41c-.62,0-.91.24-.91,1.08v6.43c0,.77.24,1.09.91,1.09h.41v1.3h-.5c-1.65,0-2.4-.59-2.4-2.4Z"/><path class="cls-12" d="M116.26,235.62h4.78v1.55h-3.03v2.42h2.41v1.55h-2.41v2.72h3.03v1.55h-4.78v-9.81Z"/><path class="cls-12" d="M123.48,238.06h-1.83v-1.23c1.48,0,2-.24,2.4-1.21h1.19v9.81h-1.75v-7.37Z"/><path class="cls-12" d="M126.43,242.94v-.69h1.65v.76c0,.71.32,1.01.91,1.01s.9-.31.9-1.01v-1.86c0-.69-.29-1.02-.87-1.02-.66,0-.91.38-.94,1.05h-1.65l.32-5.55h4.61v1.55h-3.05l-.14,2.13c.31-.48.83-.74,1.54-.74,1.29,0,1.93.87,1.93,2.41v1.96c0,1.68-.88,2.63-2.61,2.63s-2.61-.94-2.61-2.63Z"/><path class="cls-12" d="M132.8,243.68h1.75v1.75h-1.75v-1.75Z"/><path class="cls-12" d="M135.76,242.94v-.69h1.65v.76c0,.71.32,1.01.91,1.01s.9-.31.9-1.01v-1.86c0-.69-.29-1.02-.87-1.02-.66,0-.91.38-.94,1.05h-1.65l.32-5.55h4.61v1.55h-3.05l-.14,2.13c.31-.48.83-.74,1.54-.74,1.29,0,1.93.87,1.93,2.41v1.96c0,1.68-.88,2.63-2.61,2.63s-2.61-.94-2.61-2.63Z"/><path class="cls-12" d="M141.96,245.53h.42c.6,0,.9-.25.9-1.09v-6.43c0-.77-.22-1.08-.9-1.08h-.42v-1.3h.52c1.64,0,2.4.59,2.4,2.38v6.43c0,1.67-.6,2.4-2.4,2.4h-.52v-1.3Z"/><path class="cls-12" d="M168.36,190.58h4.78v1.55h-3.03v2.42h2.41v1.55h-2.41v2.72h3.03v1.55h-4.78v-9.81Z"/><path class="cls-12" d="M175.59,193.02h-1.83v-1.23c1.48,0,2-.24,2.4-1.2h1.19v9.81h-1.75v-7.37Z"/><path class="cls-12" d="M181.66,198.68h-3.33v-1.54l3.18-6.56h1.9v6.54h.83v1.55h-.83v1.71h-1.75v-1.71ZM181.66,197.12v-3.75l-1.75,3.75h1.75Z"/><path class="cls-12" d="M185.2,198.64h1.75v1.75h-1.75v-1.75Z"/><path class="cls-12" d="M188.16,197.89v-.69h1.65v.76c0,.71.32,1.01.91,1.01s.9-.31.9-1.01v-1.86c0-.69-.29-1.02-.87-1.02-.66,0-.91.38-.94,1.05h-1.65l.32-5.55h4.61v1.55h-3.05l-.14,2.13c.31-.48.83-.74,1.54-.74,1.29,0,1.93.87,1.93,2.41v1.96c0,1.68-.88,2.63-2.61,2.63s-2.61-.94-2.61-2.63Z"/><path class="cls-12" d="M215.32,227.96h2.17l1.75,5.77v-5.77h1.57v9.81h-1.76l-2.16-7.07v7.07h-1.57v-9.81Z"/><path class="cls-12" d="M221.97,235.43v-2.46c0-1.6.9-2.48,2.48-2.48s2.48.88,2.48,2.48v2.46c0,1.58-.88,2.48-2.48,2.48s-2.48-.9-2.48-2.48ZM225.25,235.57v-2.75c0-.52-.24-.87-.8-.87s-.78.35-.78.87v2.75c0,.52.24.87.78.87s.8-.35.8-.87Z"/><path class="cls-12" d="M227.57,230.62h1.74l1.04,5.16,1.02-5.16h1.61l-1.67,7.14h-2.07l-1.67-7.14Z"/><path class="cls-12" d="M236.94,237.77c-.06-.07-.11-.45-.14-1.02-.27.73-.84,1.16-1.7,1.16-1.08,0-1.76-.7-1.76-1.85s.46-1.82,1.91-2.33c1.2-.42,1.37-.57,1.37-.97v-.07c0-.56-.2-.81-.69-.81-.55,0-.76.32-.76.88v.14h-1.58v-.1c0-1.47.81-2.33,2.35-2.33,1.72,0,2.35.88,2.35,2.55v2.6c0,1.07.08,1.72.2,2.13h-1.55ZM236.62,235.26v-.88c-.15.13-.41.27-.84.45-.55.24-.76.56-.76.95,0,.46.21.71.69.71.53,0,.91-.38.91-1.23Z"/><path class="cls-12" d="M239.33,236.59c0-1.36.45-2.25,1.82-3.53,1.23-1.13,1.65-1.71,1.65-2.62,0-.78-.35-1.06-.9-1.06s-.91.31-.91,1.04v.91h-1.65v-.87c0-1.64.9-2.63,2.61-2.63s2.61.99,2.61,2.56c0,1.27-.6,2.23-2.27,3.75-.99.91-1.22,1.36-1.22,1.93v.14h3.32v1.55h-5.06v-1.18Z"/><path class="cls-12" d="M245.28,232.85h3.5v1.43h-3.5v-1.43Z"/><path class="cls-12" d="M252.31,233.47l-.73,1.25v3.05h-1.75v-9.81h1.75v4.1l2.2-4.1h1.78l-2.07,3.63,2.1,6.18h-1.85l-1.43-4.3Z"/><path class="cls-12" d="M256.08,235.26v-4.79c0-1.68.94-2.65,2.65-2.65s2.66.97,2.66,2.65v4.79c0,1.67-.94,2.65-2.66,2.65s-2.65-.98-2.65-2.65ZM259.63,235.34v-4.96c0-.69-.34-1.01-.91-1.01s-.9.32-.9,1.01v4.96c0,.67.32,1.01.9,1.01s.91-.34.91-1.01Z"/><path class="cls-12" d="M221.83,249.77v-6.43c0-1.65.6-2.38,2.4-2.38h.5v1.3h-.41c-.62,0-.91.24-.91,1.08v6.43c0,.77.24,1.09.91,1.09h.41v1.3h-.5c-1.65,0-2.4-.59-2.4-2.4Z"/><path class="cls-12" d="M225.97,240.96h4.78v1.55h-3.03v2.42h2.41v1.55h-2.41v2.72h3.03v1.55h-4.78v-9.81Z"/><path class="cls-12" d="M233.2,243.4h-1.83v-1.23c1.48,0,2-.24,2.39-1.21h1.19v9.81h-1.75v-7.37Z"/><path class="cls-12" d="M236.06,248.29v-.53c0-.98.29-1.76,1.19-2.14v-.03c-.74-.35-1.12-1.07-1.12-1.95v-.31c0-1.6.9-2.51,2.66-2.51s2.66.91,2.66,2.51v.31c0,.88-.38,1.6-1.11,1.95v.03c.9.38,1.18,1.16,1.18,2.14v.53c0,1.72-.92,2.62-2.73,2.62s-2.73-.9-2.73-2.62ZM239.79,248.18v-.59c0-.77-.35-1.15-1-1.15s-.98.38-.98,1.15v.59c0,.85.32,1.18.98,1.18s1-.32,1-1.18ZM239.73,243.86v-.48c0-.67-.32-1.01-.94-1.01s-.92.34-.92,1.01v.48c0,.74.41,1.02.92,1.02s.94-.28.94-1.02Z"/><path class="cls-12" d="M242.67,249.02h1.75v1.75h-1.75v-1.75Z"/><path class="cls-12" d="M245.63,248.27v-.69h1.65v.76c0,.71.32,1.01.91,1.01s.9-.31.9-1.01v-1.86c0-.69-.29-1.02-.87-1.02-.66,0-.91.38-.94,1.05h-1.65l.32-5.55h4.61v1.55h-3.05l-.14,2.13c.31-.48.83-.74,1.54-.74,1.29,0,1.93.87,1.93,2.41v1.96c0,1.68-.88,2.63-2.61,2.63s-2.61-.94-2.61-2.63Z"/><path class="cls-12" d="M251.83,250.87h.42c.6,0,.9-.25.9-1.09v-6.43c0-.77-.22-1.08-.9-1.08h-.42v-1.3h.52c1.64,0,2.4.59,2.4,2.38v6.43c0,1.67-.6,2.4-2.4,2.4h-.52v-1.3Z"/><path class="cls-12" d="M190.57,276.24h4.78v1.55h-3.03v2.42h2.41v1.55h-2.41v2.72h3.03v1.55h-4.78v-9.81Z"/><path class="cls-12" d="M197.79,278.68h-1.83v-1.23c1.48,0,2-.24,2.4-1.21h1.19v9.81h-1.75v-7.37Z"/><path class="cls-12" d="M200.79,283.54v-4.71c0-1.77.85-2.73,2.66-2.73,1.71,0,2.61.98,2.61,2.58v.1h-1.65v-.14c0-.69-.32-.98-.9-.98-.64,0-.97.29-.97,1.25v1.62c.35-.59.9-.87,1.61-.87,1.29,0,1.95.84,1.95,2.4v1.48c0,1.67-.94,2.65-2.66,2.65s-2.65-.98-2.65-2.65ZM204.35,283.64v-1.4c0-.69-.28-1.02-.91-1.02s-.9.31-.9,1v1.43c0,.67.31.99.9.99s.91-.34.91-.99Z"/><path class="cls-12" d="M207.26,284.3h1.75v1.75h-1.75v-1.75Z"/><path class="cls-12" d="M210.21,283.55v-.69h1.65v.76c0,.71.32,1.01.91,1.01s.9-.31.9-1.01v-1.86c0-.69-.29-1.02-.87-1.02-.66,0-.91.38-.94,1.05h-1.65l.32-5.55h4.61v1.55h-3.05l-.14,2.13c.31-.48.83-.74,1.54-.74,1.29,0,1.93.87,1.93,2.41v1.96c0,1.68-.88,2.63-2.61,2.63s-2.61-.94-2.61-2.63Z"/><path class="cls-12" d="M223.6,305.46h1.68l.8,7.54.87-7.54h1.85l.87,7.54.8-7.54h1.51l-1.13,9.81h-2.17l-.81-6.68-.81,6.68h-2.31l-1.13-9.81Z"/><path class="cls-12" d="M234.37,307.01h-1.82v-1.55h5.41v1.55h-1.83v8.25h-1.75v-8.25Z"/><path class="cls-12" d="M214.3,327.27v-6.43c0-1.65.6-2.38,2.4-2.38h.5v1.3h-.41c-.62,0-.91.24-.91,1.08v6.43c0,.77.24,1.09.91,1.09h.41v1.3h-.5c-1.65,0-2.4-.59-2.4-2.4Z"/><path class="cls-12" d="M218.44,318.46h4.78v1.55h-3.03v2.42h2.41v1.55h-2.41v2.72h3.03v1.55h-4.78v-9.81Z"/><path class="cls-12" d="M225.67,320.89h-1.83v-1.23c1.48,0,2-.24,2.39-1.21h1.19v9.81h-1.75v-7.37Z"/><path class="cls-12" d="M228.54,325.78v-.53c0-.98.29-1.76,1.19-2.14v-.03c-.74-.35-1.12-1.07-1.12-1.95v-.31c0-1.6.9-2.51,2.66-2.51s2.66.91,2.66,2.51v.31c0,.88-.38,1.6-1.11,1.95v.03c.9.38,1.18,1.16,1.18,2.14v.53c0,1.72-.92,2.62-2.73,2.62s-2.73-.9-2.73-2.62ZM232.27,325.67v-.59c0-.77-.35-1.15-1-1.15s-.98.38-.98,1.15v.59c0,.85.32,1.18.98,1.18s1-.32,1-1.18ZM232.21,321.36v-.48c0-.67-.32-1.01-.94-1.01s-.92.34-.92,1.01v.48c0,.74.41,1.02.92,1.02s.94-.28.94-1.02Z"/><path class="cls-12" d="M235.15,326.51h1.75v1.75h-1.75v-1.75Z"/><path class="cls-12" d="M238.1,325.77v-.69h1.65v.76c0,.71.32,1.01.91,1.01s.9-.31.9-1.01v-1.86c0-.69-.29-1.02-.87-1.02-.66,0-.91.38-.94,1.05h-1.65l.32-5.55h4.61v1.55h-3.05l-.14,2.13c.31-.48.83-.74,1.54-.74,1.29,0,1.93.87,1.93,2.41v1.96c0,1.68-.88,2.63-2.61,2.63s-2.61-.94-2.61-2.63Z"/><path class="cls-12" d="M244.3,328.36h.42c.6,0,.9-.25.9-1.09v-6.43c0-.77-.22-1.08-.9-1.08h-.42v-1.3h.52c1.64,0,2.4.59,2.4,2.38v6.43c0,1.67-.6,2.4-2.4,2.4h-.52v-1.3Z"/><path class="cls-12" d="M274.63,331.88h2.58c1.77,0,2.61.85,2.61,2.56v.77c0,1.71-.84,2.58-2.61,2.58h-.83v3.89h-1.75v-9.81ZM277.2,336.23c.59,0,.85-.27.85-.97v-.88c0-.7-.27-.95-.85-.95h-.83v2.8h.83Z"/><path class="cls-12" d="M280.64,339.17v-4.79c0-1.68.94-2.65,2.66-2.65s2.65.97,2.65,2.65v4.79c0,1.67-.94,2.65-2.65,2.65s-2.66-.98-2.66-2.65ZM284.2,339.26v-4.96c0-.69-.32-1.01-.9-1.01s-.91.32-.91,1.01v4.96c0,.67.34,1.01.91,1.01s.9-.34.9-1.01Z"/><path class="cls-12" d="M317.18,304.54h2.58c1.76,0,2.61.85,2.61,2.56v.77c0,1.71-.84,2.58-2.61,2.58h-.83v3.89h-1.75v-9.8ZM319.75,308.89c.59,0,.85-.27.85-.97v-.88c0-.7-.27-.95-.85-.95h-.83v2.8h.83Z"/><path class="cls-12" d="M326.29,312.63h-3.33v-1.54l3.18-6.56h1.91v6.54h.83v1.55h-.83v1.71h-1.75v-1.71ZM326.29,311.08v-3.75l-1.75,3.75h1.75Z"/><path class="cls-12" d="M363.53,256.29h2.58c1.76,0,2.61.85,2.61,2.56v.77c0,1.71-.84,2.58-2.61,2.58h-.83v3.89h-1.75v-9.81ZM366.11,260.65c.59,0,.85-.27.85-.97v-.88c0-.7-.27-.95-.85-.95h-.83v2.8h.83Z"/><path class="cls-12" d="M372.77,257.85h-3.5v-1.55h5.24v1.49l-2.72,8.32h-1.85l2.83-8.25Z"/><path class="cls-12" d="M361,158.39h2.58c1.77,0,2.61.85,2.61,2.56v.77c0,1.71-.84,2.58-2.61,2.58h-.83v3.89h-1.75v-9.81ZM363.58,162.74c.59,0,.85-.27.85-.97v-.88c0-.7-.27-.95-.85-.95h-.83v2.8h.83Z"/><path class="cls-12" d="M368.62,160.82h-1.83v-1.23c1.48,0,2-.24,2.39-1.2h1.19v9.81h-1.75v-7.37Z"/><path class="cls-12" d="M371.57,165.7v-.69h1.65v.76c0,.71.32,1.01.91,1.01s.9-.31.9-1.01v-1.86c0-.69-.29-1.02-.87-1.02-.66,0-.91.38-.94,1.05h-1.65l.32-5.55h4.61v1.55h-3.05l-.14,2.13c.31-.48.83-.74,1.54-.74,1.29,0,1.93.87,1.93,2.41v1.96c0,1.68-.88,2.63-2.61,2.63s-2.61-.94-2.61-2.63Z"/><path class="cls-12" d="M376.54,117.98h2.58c1.76,0,2.61.85,2.61,2.56v.77c0,1.71-.84,2.58-2.61,2.58h-.83v3.89h-1.75v-9.81ZM379.12,122.33c.59,0,.85-.27.85-.97v-.88c0-.7-.27-.95-.85-.95h-.83v2.8h.83Z"/><path class="cls-12" d="M382.38,125.32v-.69h1.65v.71c0,.74.32,1.02.91,1.02s.91-.27.91-1.11v-.52c0-.92-.32-1.29-1.15-1.29h-.59v-1.56h.63c.64,0,1.05-.25,1.05-1.09v-.45c0-.66-.34-.97-.87-.97s-.84.28-.84.91v.52h-1.65v-.38c0-1.68.9-2.61,2.56-2.61s2.55.92,2.55,2.52v.25c0,.92-.38,1.65-1.23,1.96v.03c.98.35,1.27,1.15,1.27,2.16v.55c0,1.72-.88,2.62-2.61,2.62s-2.61-.91-2.61-2.61Z"/><path class="cls-12" d="M388.54,125.28v-4.79c0-1.68.94-2.65,2.66-2.65s2.65.97,2.65,2.65v4.79c0,1.67-.94,2.65-2.65,2.65s-2.66-.98-2.66-2.65ZM392.1,125.36v-4.96c0-.69-.32-1.01-.9-1.01s-.91.32-.91,1.01v4.96c0,.67.34,1.01.91,1.01s.9-.34.9-1.01Z"/><path class="cls-12" d="M406.87,141.46h2.58c1.77,0,2.61.85,2.61,2.56v.77c0,1.71-.84,2.58-2.61,2.58h-.83v3.89h-1.75v-9.81ZM409.45,145.82c.59,0,.85-.27.85-.97v-.88c0-.7-.27-.95-.85-.95h-.83v2.8h.83Z"/><path class="cls-12" d="M414.49,143.9h-1.83v-1.23c1.48,0,2-.24,2.39-1.2h1.19v9.81h-1.75v-7.37Z"/><path class="cls-12" d="M419.21,143.9h-1.83v-1.23c1.48,0,2-.24,2.39-1.2h1.19v9.81h-1.75v-7.37Z"/><path class="cls-12" d="M422.19,148.76v-4.79c0-1.68.94-2.65,2.66-2.65s2.65.97,2.65,2.65v4.79c0,1.67-.94,2.65-2.65,2.65s-2.66-.98-2.66-2.65ZM425.75,148.84v-4.96c0-.69-.32-1.01-.9-1.01s-.91.32-.91,1.01v4.96c0,.67.34,1.01.91,1.01s.9-.34.9-1.01Z"/><path class="cls-12" d="M369.53,142.27c0-1.36.45-2.25,1.82-3.53,1.23-1.13,1.65-1.71,1.65-2.62,0-.78-.35-1.06-.9-1.06s-.91.31-.91,1.04v.91h-1.65v-.87c0-1.64.9-2.63,2.61-2.63s2.6.99,2.6,2.56c0,1.27-.6,2.23-2.27,3.75-1,.91-1.22,1.36-1.22,1.93v.14h3.32v1.55h-5.06v-1.18Z"/><path class="cls-12" d="M377.2,136.08h-1.83v-1.23c1.49,0,2-.24,2.4-1.2h1.19v9.81h-1.75v-7.37Z"/><path class="cls-12" d="M380.34,133.64h2.46l1.16,6.98,1.16-6.98h2.47v9.81h-1.65v-7.37l-1.3,7.37h-1.47l-1.3-7.37v7.37h-1.53v-9.81Z"/><line class="cls-7" x1="86.71" y1="36.54" x2="154.31" y2="184.35"/><line class="cls-5" x1="86.71" y1="36.54" x2="153.84" y2="183.31"/><polygon class="cls-14" points="151.47 182.2 153.71 183.04 154.55 180.79 155.15 182.1 154.31 184.35 152.06 183.51 151.47 182.2"/><line class="cls-7" x1="231.35" y1="287.06" x2="244.11" y2="304.07"/><line class="cls-5" x1="231.35" y1="287.06" x2="243.42" y2="303.15"/><polygon class="cls-14" points="240.87 302.58 243.24 302.92 243.58 300.54 244.44 301.69 244.11 304.07 241.73 303.73 240.87 302.58"/><line class="cls-7" x1="314.67" y1="298.64" x2="346.27" y2="266.28"/><line class="cls-5" x1="314.67" y1="298.64" x2="345.47" y2="267.09"/><polygon class="cls-14" points="345.29 269.7 345.26 267.3 342.87 267.33 343.87 266.3 346.27 266.28 346.3 268.67 345.29 269.7"/><line class="cls-7" x1="357.94" y1="249.85" x2="383.45" y2="166.62"/><line class="cls-5" x1="357.94" y1="249.85" x2="383.11" y2="167.71"/><polygon class="cls-14" points="384.15 170.12 383.03 168 380.91 169.12 381.33 167.75 383.45 166.62 384.57 168.74 384.15 170.12"/><line class="cls-7" x1="390.03" y1="151.55" x2="396.61" y2="141.17"/><line class="cls-5" x1="390.03" y1="151.55" x2="396" y2="142.13"/><polygon class="cls-14" points="396.36 144.72 395.84 142.38 393.5 142.91 394.27 141.69 396.61 141.17 397.13 143.5 396.36 144.72"/><path class="cls-7" d="M249.9,314.66s8.19,34.19,21.27,35.11"/><path class="cls-5" d="M249.9,314.66s7.72,32.23,20.14,34.95"/><polygon class="cls-14" points="267.82 350.99 269.75 349.56 268.33 347.63 269.75 347.85 271.18 349.77 269.25 351.2 267.82 350.99"/><path class="cls-5" d="M306.53,315.76c-1.69,5.86-9.97,33.23-17.63,33.41"/><polygon class="cls-14" points="304.32 317.18 306.43 316.04 307.57 318.15 307.98 316.77 306.84 314.66 304.73 315.8 304.32 317.18"/><line class="cls-4" x1="405.36" y1="144.35" x2="403.64" y2="139.06"/><line class="cls-4" x1="388.76" y1="138.94" x2="396.01" y2="137.59"/><line class="cls-4" x1="395.15" y1="129.34" x2="393.55" y2="127.75"/><path class="cls-2" d="M248.49,304.26s-7.68-32.03-38.09-55.64"/><polygon class="cls-13" points="212.99 248.59 210.61 248.84 210.85 251.22 209.74 250.31 209.49 247.93 211.88 247.68 212.99 248.59"/><path class="cls-7" d="M162,204.97s7.27,27.97,40.45,50.16c0,0,12.49,7.24,17.48,16.48"/><path class="cls-5" d="M162,204.97s7.27,27.97,40.45,50.16c0,0,11.6,6.73,16.91,15.49"/><polygon class="cls-14" points="216.86 269.79 219.19 270.37 219.77 268.05 220.51 269.28 219.92 271.61 217.6 271.02 216.86 269.79"/></svg>