<?xml version="1.0" encoding="UTF-8"?><svg id="Ebene_1" xmlns="http://www.w3.org/2000/svg" viewBox="0 0 435.11 174.82"><defs><style>.cls-1{stroke:#f67061;}.cls-1,.cls-2{fill:none;stroke-width:3px;}.cls-1,.cls-2,.cls-3{stroke-miterlimit:10;}.cls-2{stroke:#102442;}.cls-3{stroke:#161616;stroke-width:2px;}.cls-3,.cls-4{fill:#fff;}.cls-5{fill:#000;}.cls-5,.cls-6,.cls-4{stroke-width:0px;}.cls-6{fill:#161616;}</style></defs><rect class="cls-4" width="435.11" height="169.78"/><path class="cls-6" d="M17.81,86.22h-.54v-1.77h.6c.69,0,1.06-.33,1.06-.98,0-.58-.35-.98-1.08-.98-.88,0-1.26.36-2.08,1.6-1.05,1.59-1.94,2.08-3.27,2.08-1.68,0-2.73-.96-2.73-2.77s1.05-2.71,2.76-2.71h.38v1.77h-.42c-.71,0-1.08.3-1.08.93,0,.59.35.93,1.04.93.78,0,1.17-.39,1.98-1.63,1.05-1.62,1.95-2.07,3.35-2.07,1.74,0,2.8.99,2.8,2.83s-1.06,2.76-2.76,2.76Z"/><path class="cls-6" d="M9.92,79.51v-2.77c0-1.91.82-2.77,2.53-2.77h.53c1.09,0,1.78.39,2.11,1.21h.04c.25-.89,1.04-1.23,2.37-1.23h1.54c.54,0,.94-.03,1.36-.21v1.9c-.29.1-.44.17-1.38.17h-1.65c-.99,0-1.32.31-1.32,1.19v.65h4.35v1.87h-10.5ZM14.4,76.95c0-.74-.31-1.11-1.14-1.11h-.61c-.74,0-1.06.29-1.06.93v.87h2.82v-.69Z"/><path class="cls-6" d="M18.44,68.83v2.13l1.98.31v1.75l-10.5-1.93v-2.54l10.5-1.95v1.9l-1.98.31ZM16.82,69.1l-5,.79,5,.79v-1.59Z"/><path class="cls-6" d="M14.27,60.79h3.94c.54,0,.75-.19.75-.71,0-.18-.03-.39-.1-.61h1.53c.13.31.18.61.18.99,0,1.44-.71,2.13-2.11,2.13h-4.19v.99h-1.5v-1.05l-2.01-.15v-1.59h2.01v-1.32h1.5v1.32Z"/><path class="cls-6" d="M17.91,58.59h-2.64c-1.71,0-2.65-.96-2.65-2.65s.95-2.66,2.65-2.66h2.64c1.69,0,2.65.95,2.65,2.66s-.96,2.65-2.65,2.65ZM18.06,55.08h-2.94c-.55,0-.93.25-.93.85s.38.84.93.84h2.94c.56,0,.93-.25.93-.84s-.38-.85-.93-.85Z"/><path class="cls-6" d="M17.91,52.23h-2.64c-1.71,0-2.65-.96-2.65-2.65s.95-2.66,2.65-2.66h2.64c1.69,0,2.65.95,2.65,2.66s-.96,2.65-2.65,2.65ZM18.06,48.72h-2.94c-.55,0-.93.25-.93.85s.38.84.93.84h2.94c.56,0,.93-.25.93-.84s-.38-.85-.93-.85Z"/><path class="cls-6" d="M9.92,45.69v-1.81h10.5v1.81h-10.5Z"/><path class="cls-6" d="M24.32,94.84c0-1.4.92-2.02,2.26-2.02h4.58c1.34,0,2.26.61,2.26,2.02v2h-9.1v-2ZM32.87,94.85c0-1.01-.69-1.43-1.69-1.43h-4.63c-1,0-1.69.43-1.69,1.43v1.39h8.01v-1.39Z"/><path class="cls-6" d="M31.4,90.98l2.02.46v.55l-9.11-1.99v-.87l9.11-2.03v.6l-2.02.46v2.83ZM30.88,90.89v-2.65l-5.89,1.34,5.89,1.31Z"/><path class="cls-6" d="M33.42,85.14h-8.55v1.85h-.55v-4.3h.55v1.86h8.55v.6Z"/><path class="cls-6" d="M31.4,81.57l2.02.46v.55l-9.11-1.99v-.87l9.11-2.03v.6l-2.02.46v2.83ZM30.88,81.48v-2.65l-5.89,1.34,5.89,1.31Z"/><path class="cls-6" d="M24.32,72.76c0-1.4.92-2.02,2.26-2.02h4.58c1.34,0,2.26.61,2.26,2.02v2h-9.1v-2ZM32.87,72.77c0-1.01-.69-1.43-1.69-1.43h-4.63c-1,0-1.69.43-1.69,1.43v1.39h8.01v-1.39Z"/><path class="cls-6" d="M26.54,69.79c-1.33,0-2.3-.61-2.3-1.99s.98-2.02,2.3-2.02h4.65c1.33,0,2.3.61,2.3,2.02s-.98,1.99-2.3,1.99h-4.65ZM31.24,69.19c.99,0,1.72-.39,1.72-1.39s-.73-1.42-1.72-1.42h-4.73c-.99,0-1.72.4-1.72,1.42s.73,1.39,1.72,1.39h4.73Z"/><path class="cls-6" d="M33.42,62.61v.83l-9.1,1.47v-.59l8.29-1.36-8.26-1.33v-.64l8.23-1.27-8.27-1.31v-.53l9.1,1.46v.78l-7.45,1.22,7.45,1.27Z"/><path class="cls-6" d="M33.42,56.41v.55h-9.1v-.78l7.68-2.73h-7.68v-.55h9.1v.66l-8.11,2.85h8.11Z"/><path class="cls-6" d="M33.42,51.88h-9.1v-.6h8.55v-2.86h.55v3.46Z"/><path class="cls-6" d="M26.54,47.56c-1.33,0-2.3-.61-2.3-1.99s.98-2.02,2.3-2.02h4.65c1.33,0,2.3.61,2.3,2.02s-.98,1.99-2.3,1.99h-4.65ZM31.24,46.96c.99,0,1.72-.39,1.72-1.39s-.73-1.42-1.72-1.42h-4.73c-.99,0-1.72.4-1.72,1.42s.73,1.39,1.72,1.39h4.73Z"/><path class="cls-6" d="M31.4,41.71l2.02.46v.55l-9.11-1.99v-.87l9.11-2.03v.6l-2.02.46v2.83ZM30.88,41.62v-2.65l-5.89,1.34,5.89,1.31Z"/><path class="cls-6" d="M24.32,34.91c0-1.4.92-2.02,2.26-2.02h4.58c1.34,0,2.26.61,2.26,2.02v2h-9.1v-2ZM32.87,34.93c0-1.01-.69-1.43-1.69-1.43h-4.63c-1,0-1.69.43-1.69,1.43v1.39h8.01v-1.39Z"/><path class="cls-6" d="M200.58,20.8v3.16c0,1.64-.71,2.4-1.92,2.4-.88,0-1.54-.48-1.81-1.32l-.27,1.17h-1.32v-10.5h1.81v3.52c.34-.52.9-.83,1.59-.83,1.21,0,1.92.77,1.92,2.39ZM198.77,21.02c0-.67-.19-1.03-.78-1.03s-.92.38-.92,1.29v2.22c0,.92.36,1.29.92,1.29.58,0,.78-.38.78-1.04v-2.73Z"/><path class="cls-6" d="M207.18,20.8v3.16c0,1.64-.71,2.4-1.92,2.4-.88,0-1.54-.48-1.81-1.32l-.27,1.17h-1.32v-10.5h1.81v3.52c.34-.52.9-.83,1.59-.83,1.21,0,1.92.77,1.92,2.39ZM205.37,21.02c0-.67-.19-1.03-.78-1.03s-.92.38-.92,1.29v2.22c0,.92.36,1.29.92,1.29.58,0,.78-.38.78-1.04v-2.73Z"/><path class="cls-6" d="M212.19,26.21c-.08-.08-.14-.48-.15-1.11-.3.79-.95,1.26-1.8,1.26-1.21,0-1.92-.76-1.92-2.4v-3.16c0-1.62.71-2.39,1.92-2.39.69,0,1.25.3,1.59.83v-3.52h1.81v8.22c0,1.14.09,1.84.21,2.28h-1.67ZM211.83,23.5v-2.22c0-.92-.36-1.29-.91-1.29-.58,0-.78.36-.78,1.03v2.73c0,.66.2,1.04.78,1.04.55,0,.91-.38.91-1.29Z"/><path class="cls-6" d="M220.29,18.56v7.65h-1.56l-.04-1.11c-.27.79-.9,1.26-1.77,1.26-1.21,0-1.9-.76-1.9-2.4v-5.4h1.81v5.15c0,.73.19,1.08.77,1.08s.9-.38.9-1.29v-4.94h1.8Z"/><path class="cls-6" d="M224.24,23.03l-.72,1.02v2.16h-1.81v-10.5h1.81v5.94l1.93-3.09h2l-1.98,2.83,2.08,4.81h-1.98l-1.33-3.18Z"/><path class="cls-6" d="M194.86,37.2l-.46,2.02h-.55l1.99-9.11h.87l2.03,9.11h-.6l-.46-2.02h-2.83ZM194.95,36.68h2.65l-1.34-5.89-1.31,5.89Z"/><path class="cls-6" d="M201.66,30.11c1.4,0,2.02.92,2.02,2.26v4.58c0,1.34-.61,2.26-2.02,2.26h-2v-9.1h2ZM201.64,38.67c1.01,0,1.43-.69,1.43-1.69v-4.63c0-1-.43-1.69-1.43-1.69h-1.39v8.01h1.39Z"/><path class="cls-6" d="M205.52,37.2l-.46,2.02h-.55l1.99-9.11h.87l2.03,9.11h-.6l-.46-2.02h-2.83ZM205.61,36.68h2.65l-1.34-5.89-1.31,5.89Z"/><path class="cls-6" d="M212.2,30.11c1.4,0,1.95.88,1.95,2.21v.99c0,1.44-.66,2.16-2.11,2.16h-1.13v3.74h-.6v-9.1h1.89ZM212.04,34.92c1.05,0,1.51-.47,1.51-1.57v-1.07c0-.99-.34-1.62-1.35-1.62h-1.29v4.26h1.13Z"/><path class="cls-6" d="M216.58,39.21v-8.55h-1.85v-.55h4.3v.55h-1.86v8.55h-.6Z"/><path class="cls-6" d="M222.86,34.32v.55h-2.48v3.8h2.99v.55h-3.59v-9.1h3.59v.55h-2.99v3.67h2.48Z"/><path class="cls-6" d="M226.24,30.11c1.39,0,1.95.77,1.95,2.05v.79c0,1.07-.42,1.68-1.31,1.89.94.21,1.31.87,1.31,1.86v1.42c0,.38.03.79.22,1.09h-.62c-.16-.27-.2-.6-.2-1.09v-1.43c0-1.21-.66-1.55-1.7-1.55h-.95v4.07h-.6v-9.1h1.9ZM225.9,34.6c1.07,0,1.69-.3,1.69-1.52v-.86c0-.98-.38-1.56-1.36-1.56h-1.29v3.94h.96Z"/><path class="cls-6" d="M195.14,52.21v-8.55h-1.85v-.55h4.3v.55h-1.86v8.55h-.6Z"/><path class="cls-6" d="M200.24,43.11c1.39,0,1.95.77,1.95,2.05v.79c0,1.07-.42,1.68-1.31,1.89.94.21,1.31.87,1.31,1.86v1.42c0,.38.03.79.22,1.09h-.62c-.16-.27-.2-.6-.2-1.09v-1.43c0-1.21-.66-1.55-1.7-1.55h-.95v4.07h-.6v-9.1h1.9ZM199.9,47.6c1.07,0,1.69-.3,1.69-1.52v-.86c0-.98-.38-1.56-1.36-1.56h-1.29v3.94h.96Z"/><path class="cls-6" d="M203.96,43.11v9.1h-.6v-9.1h.6Z"/><path class="cls-6" d="M208.05,52.2h-.6l-1.92-8.05v8.06h-.53v-9.1h.86l1.91,8.05,1.9-8.05h.86v9.1h-.57v-8.09l-1.9,8.07Z"/><path class="cls-6" d="M214.62,52.2h-.6l-1.92-8.05v8.06h-.53v-9.1h.86l1.91,8.05,1.9-8.05h.86v9.1h-.57v-8.09l-1.9,8.07Z"/><path class="cls-6" d="M218.72,43.11v9.1h-.6v-9.1h.6Z"/><path class="cls-6" d="M220.31,52.21h-.55v-9.1h.78l2.73,7.68v-7.68h.55v9.1h-.66l-2.85-8.11v8.11Z"/><path class="cls-6" d="M228.73,45.34v.68h-.57v-.71c0-.98-.38-1.72-1.38-1.72s-1.38.74-1.38,1.72v4.73c0,.98.38,1.7,1.38,1.7s1.38-.73,1.38-1.7v-1.96h-1.21v-.55h1.78v2.47c0,1.31-.57,2.3-1.96,2.3s-1.96-.99-1.96-2.3v-4.65c0-1.31.57-2.3,1.96-2.3s1.96.99,1.96,2.3Z"/><path class="cls-6" d="M281.48,36.11v-.54h1.77v.6c0,.69.33,1.06.98,1.06.58,0,.98-.35.98-1.08,0-.88-.36-1.26-1.6-2.08-1.59-1.05-2.08-1.94-2.08-3.27,0-1.68.96-2.73,2.77-2.73s2.71,1.05,2.71,2.76v.38h-1.77v-.42c0-.71-.3-1.08-.93-1.08-.58,0-.93.35-.93,1.04,0,.78.39,1.17,1.63,1.98,1.62,1.05,2.07,1.95,2.07,3.35,0,1.74-.99,2.8-2.83,2.8s-2.76-1.06-2.76-2.76Z"/><path class="cls-6" d="M289.67,29.89h-1.95v-1.67h5.79v1.67h-1.96v8.83h-1.88v-8.83Z"/><path class="cls-6" d="M297.41,36.74h-2.13l-.31,1.98h-1.75l1.93-10.5h2.54l1.95,10.5h-1.9l-.31-1.98ZM297.14,35.12l-.79-5-.79,5h1.59Z"/><path class="cls-6" d="M300.58,28.22h2.77c1.91,0,2.77.82,2.77,2.53v.53c0,1.09-.39,1.78-1.21,2.11v.04c.89.25,1.23,1.04,1.23,2.37v1.54c0,.54.03.94.21,1.36h-1.9c-.1-.29-.17-.44-.17-1.38v-1.65c0-.99-.31-1.32-1.19-1.32h-.65v4.35h-1.88v-10.5ZM303.14,32.71c.74,0,1.11-.31,1.11-1.14v-.61c0-.74-.29-1.06-.93-1.06h-.87v2.82h.69Z"/><path class="cls-6" d="M274.03,49.71l-.46,2.02h-.55l1.99-9.11h.87l2.03,9.11h-.6l-.46-2.02h-2.83ZM274.12,49.19h2.65l-1.34-5.89-1.31,5.89Z"/><path class="cls-6" d="M278.82,51.72v-9.1h.6v8.55h2.86v.55h-3.46Z"/><path class="cls-6" d="M283.78,42.62v9.1h-.6v-9.1h.6Z"/><path class="cls-6" d="M288.7,44.85v.68h-.57v-.71c0-.98-.38-1.72-1.38-1.72s-1.38.74-1.38,1.72v4.73c0,.98.38,1.7,1.38,1.7s1.38-.73,1.38-1.7v-1.96h-1.21v-.55h1.78v2.47c0,1.31-.57,2.3-1.96,2.3s-1.96-.99-1.96-2.3v-4.65c0-1.31.57-2.3,1.96-2.3s1.96.99,1.96,2.3Z"/><path class="cls-6" d="M290.25,51.72h-.55v-9.1h.78l2.73,7.68v-7.68h.55v9.1h-.66l-2.85-8.11v8.11Z"/><path class="cls-6" d="M297.84,51.71h-.6l-1.92-8.05v8.06h-.53v-9.1h.86l1.91,8.05,1.9-8.05h.86v9.1h-.57v-8.09l-1.9,8.07Z"/><path class="cls-6" d="M304.43,46.84v.55h-2.48v3.8h2.99v.55h-3.59v-9.1h3.59v.55h-2.99v3.67h2.48Z"/><path class="cls-6" d="M306.46,51.72h-.55v-9.1h.78l2.73,7.68v-7.68h.55v9.1h-.66l-2.85-8.11v8.11Z"/><path class="cls-6" d="M312.53,51.72v-8.55h-1.85v-.55h4.3v.55h-1.86v8.55h-.6Z"/><path class="cls-6" d="M390.54,5.3v1.74c-.14-.03-.3-.03-.45-.03-1,0-1.53.63-1.53,1.83v4.17h-1.81v-7.65h1.57l.03,1.43c.24-1.06.79-1.58,1.68-1.58.24,0,.39.03.51.09Z"/><path class="cls-6" d="M391.49,2.51h2.64l1.25,7.47,1.24-7.47h2.64v10.5h-1.77v-7.89l-1.4,7.89h-1.57l-1.4-7.89v7.89h-1.64V2.51Z"/><path class="cls-6" d="M404.42,11.03h-2.13l-.31,1.98h-1.75l1.93-10.5h2.54l1.95,10.5h-1.9l-.31-1.98ZM404.15,9.41l-.79-5-.79,5h1.59Z"/><path class="cls-6" d="M408.29,4.17h-1.95v-1.67h5.79v1.67h-1.96v8.83h-1.88V4.17Z"/><path class="cls-6" d="M412.79,10.4v-.54h1.77v.6c0,.69.33,1.06.98,1.06.58,0,.98-.35.98-1.08,0-.88-.36-1.26-1.6-2.08-1.59-1.05-2.08-1.94-2.08-3.27,0-1.68.96-2.73,2.77-2.73s2.71,1.05,2.71,2.76v.38h-1.77v-.42c0-.71-.3-1.08-.93-1.08-.59,0-.93.35-.93,1.04,0,.78.39,1.17,1.63,1.98,1.62,1.05,2.07,1.95,2.07,3.35,0,1.74-.99,2.8-2.83,2.8s-2.76-1.06-2.76-2.76Z"/><path class="cls-6" d="M378.54,23.99l-.46,2.02h-.55l1.99-9.11h.87l2.03,9.11h-.6l-.46-2.02h-2.83ZM378.63,23.47h2.65l-1.34-5.89-1.31,5.89Z"/><path class="cls-6" d="M383.34,26.01v-9.1h.6v8.55h2.86v.55h-3.46Z"/><path class="cls-6" d="M388.58,26.01v-8.55h-1.85v-.55h4.3v.55h-1.86v8.55h-.6Z"/><path class="cls-6" d="M394.86,21.12v.55h-2.48v3.8h2.99v.55h-3.59v-9.1h3.59v.55h-2.99v3.67h2.48Z"/><path class="cls-6" d="M398.24,16.91c1.39,0,1.95.77,1.95,2.05v.79c0,1.07-.42,1.68-1.31,1.89.94.21,1.31.87,1.31,1.86v1.42c0,.38.03.79.22,1.09h-.62c-.16-.27-.2-.6-.2-1.09v-1.43c0-1.21-.66-1.55-1.7-1.55h-.95v4.07h-.6v-9.1h1.9ZM397.9,21.39c1.07,0,1.69-.3,1.69-1.52v-.86c0-.98-.38-1.56-1.36-1.56h-1.29v3.94h.96Z"/><path class="cls-6" d="M401.9,26.01h-.55v-9.1h.78l2.73,7.68v-7.68h.55v9.1h-.66l-2.85-8.11v8.11Z"/><path class="cls-6" d="M407.31,23.99l-.46,2.02h-.55l1.99-9.11h.87l2.03,9.11h-.6l-.46-2.02h-2.83ZM407.4,23.47h2.65l-1.34-5.89-1.31,5.89Z"/><path class="cls-6" d="M413.15,26.01v-8.55h-1.85v-.55h4.3v.55h-1.86v8.55h-.6Z"/><path class="cls-6" d="M416.94,16.91v9.1h-.6v-9.1h.6Z"/><path class="cls-6" d="M418.46,16.91l1.85,8.41,1.85-8.41h.56l-1.98,9.1h-.88l-2-9.1h.61Z"/><path class="cls-6" d="M426.71,21.12v.55h-2.48v3.8h2.99v.55h-3.59v-9.1h3.59v.55h-2.99v3.67h2.48Z"/><path class="cls-6" d="M390.76,32.1v.2h-.57v-.23c0-.96-.36-1.69-1.35-1.69s-1.35.71-1.35,1.68c0,2.21,3.29,2.25,3.29,4.76,0,1.31-.57,2.28-1.96,2.28s-1.96-.96-1.96-2.28v-.47h.57v.51c0,.98.38,1.68,1.38,1.68s1.38-.7,1.38-1.68c0-2.18-3.29-2.22-3.29-4.76,0-1.37.6-2.25,1.94-2.26,1.38,0,1.94.96,1.94,2.27Z"/><path class="cls-6" d="M393.62,29.91c1.4,0,1.95.88,1.95,2.21v.99c0,1.44-.66,2.16-2.11,2.16h-1.13v3.74h-.6v-9.1h1.89ZM393.47,34.72c1.05,0,1.51-.47,1.51-1.57v-1.07c0-.99-.34-1.62-1.35-1.62h-1.29v4.26h1.13Z"/><path class="cls-6" d="M396.47,39.01v-9.1h.6v8.55h2.86v.55h-3.46Z"/><path class="cls-6" d="M401.42,29.91v9.1h-.6v-9.1h.6Z"/><path class="cls-6" d="M406.35,32.13v.75h-.57v-.79c0-.98-.38-1.72-1.38-1.72s-1.38.74-1.38,1.72v4.73c0,.98.38,1.7,1.38,1.7s1.38-.73,1.38-1.7v-1.08h.57v1.04c0,1.31-.57,2.3-1.96,2.3s-1.96-.99-1.96-2.3v-4.65c0-1.31.57-2.3,1.96-2.3s1.96.99,1.96,2.3Z"/><path class="cls-6" d="M407.92,29.91v9.1h-.6v-9.1h.6Z"/><path class="cls-6" d="M409.51,39.01h-.55v-9.1h.78l2.73,7.68v-7.68h.55v9.1h-.66l-2.85-8.11v8.11Z"/><path class="cls-6" d="M417.93,32.13v.68h-.57v-.71c0-.98-.38-1.72-1.38-1.72s-1.38.74-1.38,1.72v4.73c0,.98.38,1.7,1.38,1.7s1.38-.73,1.38-1.7v-1.96h-1.21v-.55h1.78v2.47c0,1.31-.57,2.3-1.96,2.3s-1.96-.99-1.96-2.3v-4.65c0-1.31.57-2.3,1.96-2.3s1.96.99,1.96,2.3Z"/><path class="cls-6" d="M385.54,49.99l-.46,2.02h-.55l1.99-9.11h.87l2.03,9.11h-.6l-.46-2.02h-2.83ZM385.63,49.47h2.65l-1.34-5.89-1.31,5.89Z"/><path class="cls-6" d="M390.88,52.01h-.55v-9.1h.78l2.73,7.68v-7.68h.55v9.1h-.66l-2.85-8.11v8.11Z"/><path class="cls-6" d="M396.29,49.99l-.46,2.02h-.55l1.99-9.11h.87l2.03,9.11h-.6l-.46-2.02h-2.83ZM396.38,49.47h2.65l-1.34-5.89-1.31,5.89Z"/><path class="cls-6" d="M401.08,52.01v-9.1h.6v8.55h2.86v.55h-3.46Z"/><path class="cls-6" d="M406.5,48.51l-2.04-5.6h.62l1.74,4.78,1.74-4.78h.59l-2.05,5.6v3.5h-.6v-3.5Z"/><path class="cls-6" d="M413.77,45.1v.2h-.57v-.23c0-.96-.36-1.69-1.35-1.69s-1.35.71-1.35,1.68c0,2.21,3.29,2.25,3.29,4.76,0,1.31-.57,2.28-1.96,2.28s-1.96-.96-1.96-2.28v-.47h.57v.51c0,.98.38,1.68,1.38,1.68s1.38-.7,1.38-1.68c0-2.18-3.29-2.22-3.29-4.76,0-1.37.6-2.25,1.94-2.26,1.38,0,1.94.96,1.94,2.27Z"/><path class="cls-6" d="M415.34,42.91v9.1h-.6v-9.1h.6Z"/><path class="cls-6" d="M420.22,45.1v.2h-.57v-.23c0-.96-.36-1.69-1.35-1.69s-1.35.71-1.35,1.68c0,2.21,3.29,2.25,3.29,4.76,0,1.31-.57,2.28-1.96,2.28s-1.96-.96-1.96-2.28v-.47h.57v.51c0,.98.38,1.68,1.38,1.68s1.38-.7,1.38-1.68c0-2.18-3.29-2.22-3.29-4.76,0-1.37.6-2.25,1.94-2.26,1.38,0,1.94.96,1.94,2.27Z"/><path class="cls-6" d="M258.7,132.09v.64h1.3v1.5h-1.3v6.15h-1.81v-6.15h-.98v-1.5h.98v-.88c0-1.42.7-2.11,2.13-2.11.38,0,.69.04.99.17v1.53c-.23-.06-.44-.09-.61-.09-.51,0-.69.21-.69.75Z"/><path class="cls-6" d="M266.11,135.24v1.74h-3.54v1.08c0,.63.3.93.9.93s.9-.28.9-.96v-.15h1.74v.08c0,1.6-.96,2.58-2.67,2.58s-2.69-.96-2.69-2.65v-2.64c0-1.71.94-2.65,2.69-2.65s2.67.95,2.67,2.65ZM264.34,135.63v-.6c0-.63-.31-.91-.88-.91s-.89.28-.89.91v.6h1.77Z"/><path class="cls-6" d="M270.82,140.38c-.06-.08-.12-.48-.15-1.09-.29.78-.9,1.24-1.81,1.24-1.16,0-1.89-.75-1.89-1.98s.5-1.95,2.04-2.49c1.29-.45,1.47-.61,1.47-1.04v-.07c0-.6-.21-.87-.73-.87-.58,0-.81.35-.81.94v.15h-1.69v-.1c0-1.58.87-2.49,2.52-2.49,1.84,0,2.52.95,2.52,2.73v2.79c0,1.14.09,1.84.21,2.28h-1.67ZM270.47,137.7v-.94c-.16.14-.43.29-.9.48-.58.25-.81.6-.81,1.02,0,.5.23.77.74.77.57,0,.97-.41.97-1.32Z"/><path class="cls-6" d="M275.92,134.23v3.94c0,.54.19.75.71.75.18,0,.39-.03.61-.1v1.53c-.31.13-.61.18-.99.18-1.44,0-2.13-.71-2.13-2.11v-4.19h-.99v-1.5h1.05l.15-2.01h1.59v2.01h1.32v1.5h-1.32Z"/><path class="cls-6" d="M283.54,132.73v7.65h-1.56l-.04-1.11c-.27.79-.9,1.26-1.77,1.26-1.21,0-1.9-.76-1.9-2.4v-5.4h1.81v5.15c0,.73.19,1.08.77,1.08s.9-.38.9-1.29v-4.94h1.8Z"/><path class="cls-6" d="M288.74,132.67v1.74c-.14-.03-.3-.03-.45-.03-1,0-1.53.63-1.53,1.83v4.17h-1.81v-7.65h1.57l.03,1.43c.24-1.06.79-1.58,1.68-1.58.24,0,.39.03.51.09Z"/><path class="cls-6" d="M294.8,135.24v1.74h-3.54v1.08c0,.63.3.93.9.93s.9-.28.9-.96v-.15h1.74v.08c0,1.6-.96,2.58-2.67,2.58s-2.69-.96-2.69-2.65v-2.64c0-1.71.94-2.65,2.69-2.65s2.67.95,2.67,2.65ZM293.03,135.63v-.6c0-.63-.31-.91-.88-.91s-.89.28-.89.91v.6h1.77Z"/><path class="cls-6" d="M295.88,137.73v-5.19c0-1.78.98-2.8,2.76-2.8s2.75,1.02,2.75,2.8v.93h-1.77v-1.02c0-.73-.35-1.08-.93-1.08s-.93.35-.93,1.08v5.37c0,.73.34,1.08.93,1.08s.93-.35.93-1.08v-1.33h1.77v1.25c0,1.78-.96,2.8-2.75,2.8s-2.76-1.02-2.76-2.8Z"/><path class="cls-6" d="M302.35,137.88v-2.64c0-1.71.96-2.65,2.65-2.65s2.66.95,2.66,2.65v2.64c0,1.69-.95,2.65-2.66,2.65s-2.65-.96-2.65-2.65ZM305.86,138.03v-2.94c0-.55-.25-.93-.85-.93s-.84.38-.84.93v2.94c0,.56.25.93.84.93s.85-.38.85-.93Z"/><path class="cls-6" d="M314.11,132.73v7.65h-1.56l-.04-1.11c-.27.79-.9,1.26-1.77,1.26-1.21,0-1.9-.76-1.9-2.4v-5.4h1.81v5.15c0,.73.19,1.08.77,1.08s.9-.38.9-1.29v-4.94h1.8Z"/><path class="cls-6" d="M320.8,134.97v5.41h-1.8v-5.16c0-.73-.21-1.06-.77-1.06s-.9.36-.9,1.29v4.93h-1.81v-7.65h1.57l.03,1.1c.28-.79.92-1.25,1.78-1.25,1.21,0,1.89.77,1.89,2.39Z"/><path class="cls-6" d="M324.49,134.23v3.94c0,.54.19.75.71.75.18,0,.39-.03.61-.1v1.53c-.31.13-.61.18-.99.18-1.44,0-2.13-.71-2.13-2.11v-4.19h-.99v-1.5h1.05l.15-2.01h1.59v2.01h1.32v1.5h-1.32Z"/><path class="cls-6" d="M326.57,138.15v-.23h1.72v.25c0,.6.31.87.81.87.45,0,.78-.23.78-.78s-.56-.77-1.28-1.04c-.94-.36-1.95-.87-1.95-2.4,0-1.36.83-2.25,2.43-2.25,1.49,0,2.43.85,2.43,2.25v.17h-1.69v-.19c0-.51-.24-.75-.72-.75-.36,0-.69.19-.69.7,0,.58.54.81,1.32,1.11.95.36,1.94.84,1.94,2.29s-.84,2.37-2.49,2.37-2.61-.9-2.61-2.38Z"/><path class="cls-6" d="M264.75,146.51v.68h-.57v-.71c0-.98-.38-1.72-1.38-1.72s-1.38.74-1.38,1.72v4.73c0,.98.38,1.7,1.38,1.7s1.38-.73,1.38-1.7v-1.96h-1.21v-.55h1.78v2.47c0,1.31-.57,2.3-1.96,2.3s-1.96-.99-1.96-2.3v-4.65c0-1.31.57-2.3,1.96-2.3s1.96.99,1.96,2.3Z"/><path class="cls-6" d="M268.83,148.49v.55h-2.48v3.8h2.99v.55h-3.59v-9.1h3.59v.55h-2.99v3.67h2.48Z"/><path class="cls-6" d="M270.86,153.38h-.55v-9.1h.78l2.73,7.68v-7.68h.55v9.1h-.66l-2.85-8.11v8.11Z"/><path class="cls-6" d="M278.48,148.49v.55h-2.48v3.8h2.99v.55h-3.59v-9.1h3.59v.55h-2.99v3.67h2.48Z"/><path class="cls-6" d="M285.05,148.49v.55h-2.48v3.8h2.99v.55h-3.59v-9.1h3.59v.55h-2.99v3.67h2.48Z"/><path class="cls-6" d="M288.85,149.14l-1.85,4.24h-.59l2.05-4.72-1.91-4.38h.62l1.72,3.91,1.73-3.91h.57l-1.91,4.38,2.04,4.72h-.64l-1.85-4.24Z"/><path class="cls-6" d="M294.14,144.28c1.4,0,1.95.88,1.95,2.21v.99c0,1.44-.66,2.16-2.11,2.16h-1.13v3.74h-.6v-9.1h1.89ZM293.99,149.09c1.05,0,1.51-.47,1.51-1.57v-1.07c0-.99-.34-1.62-1.35-1.62h-1.29v4.26h1.13Z"/><path class="cls-6" d="M298.89,144.28c1.39,0,1.95.77,1.95,2.05v.79c0,1.07-.42,1.68-1.31,1.89.94.21,1.31.87,1.31,1.86v1.42c0,.38.03.79.22,1.09h-.62c-.16-.27-.2-.6-.2-1.09v-1.43c0-1.21-.66-1.55-1.7-1.55h-.95v4.07h-.6v-9.1h1.9ZM298.55,148.77c1.07,0,1.69-.3,1.69-1.52v-.86c0-.98-.38-1.56-1.36-1.56h-1.29v3.94h.96Z"/><path class="cls-6" d="M305.09,148.49v.55h-2.48v3.8h2.99v.55h-3.59v-9.1h3.59v.55h-2.99v3.67h2.48Z"/><path class="cls-6" d="M310.4,146.48v.2h-.57v-.23c0-.96-.36-1.69-1.35-1.69s-1.35.71-1.35,1.68c0,2.21,3.29,2.25,3.29,4.76,0,1.31-.57,2.28-1.96,2.28s-1.96-.96-1.96-2.28v-.47h.57v.51c0,.98.38,1.68,1.38,1.68s1.38-.7,1.38-1.68c0-2.18-3.29-2.22-3.29-4.76,0-1.37.6-2.25,1.94-2.26,1.38,0,1.94.96,1.94,2.27Z"/><path class="cls-6" d="M315.21,146.48v.2h-.57v-.23c0-.96-.36-1.69-1.35-1.69s-1.35.71-1.35,1.68c0,2.21,3.29,2.25,3.29,4.76,0,1.31-.57,2.28-1.96,2.28s-1.96-.96-1.96-2.28v-.47h.57v.51c0,.98.38,1.68,1.38,1.68s1.38-.7,1.38-1.68c0-2.18-3.29-2.22-3.29-4.76,0-1.37.6-2.25,1.94-2.26,1.38,0,1.94.96,1.94,2.27Z"/><path class="cls-6" d="M316.79,144.28v9.1h-.6v-9.1h.6Z"/><path class="cls-6" d="M317.79,146.51c0-1.33.61-2.3,1.99-2.3s2.02.98,2.02,2.3v4.65c0,1.33-.61,2.3-2.02,2.3s-1.99-.98-1.99-2.3v-4.65ZM318.39,151.2c0,.99.39,1.72,1.39,1.72s1.42-.73,1.42-1.72v-4.73c0-.99-.4-1.72-1.42-1.72s-1.39.73-1.39,1.72v4.73Z"/><path class="cls-6" d="M323.33,153.38h-.55v-9.1h.78l2.73,7.68v-7.68h.55v9.1h-.66l-2.85-8.11v8.11Z"/><path class="cls-6" d="M268.57,159.51v4.65c0,.62-.13,1.17-.43,1.57.16.27.39.36.71.36h.14v.53h-.16c-.51,0-.86-.17-1.08-.53-.3.22-.69.36-1.2.36-1.39,0-2-.98-2-2.3v-4.65c0-1.33.61-2.3,2-2.3s2,.98,2,2.3ZM265.17,159.47v4.73c0,.99.4,1.72,1.4,1.72s1.4-.73,1.4-1.72v-4.73c0-.99-.4-1.72-1.4-1.72s-1.4.73-1.4,1.72Z"/><path class="cls-6" d="M270.24,164.19c0,.98.36,1.73,1.36,1.73s1.37-.75,1.37-1.73v-6.9h.56v6.88c0,1.3-.55,2.3-1.94,2.3s-1.95-1-1.95-2.3v-6.88h.6v6.9Z"/><path class="cls-6" d="M275.42,164.37l-.46,2.02h-.55l1.99-9.11h.87l2.03,9.11h-.6l-.46-2.02h-2.83ZM275.51,163.85h2.65l-1.34-5.89-1.31,5.89Z"/><path class="cls-6" d="M280.76,166.38h-.55v-9.1h.78l2.73,7.68v-7.68h.55v9.1h-.66l-2.85-8.11v8.11Z"/><path class="cls-6" d="M286.84,166.38v-8.55h-1.85v-.55h4.3v.55h-1.86v8.55h-.6Z"/><path class="cls-6" d="M290.63,157.28v9.1h-.6v-9.1h.6Z"/><path class="cls-6" d="M294.62,161.72v.55h-2.35v4.12h-.6v-9.1h3.46v.55h-2.86v3.89h2.35Z"/><path class="cls-6" d="M296.64,157.28v9.1h-.6v-9.1h.6Z"/><path class="cls-6" d="M301.56,159.51v.75h-.57v-.79c0-.98-.38-1.72-1.38-1.72s-1.38.74-1.38,1.72v4.73c0,.98.38,1.7,1.38,1.7s1.38-.73,1.38-1.7v-1.08h.57v1.04c0,1.31-.57,2.3-1.96,2.3s-1.96-.99-1.96-2.3v-4.65c0-1.31.57-2.3,1.96-2.3s1.96.99,1.96,2.3Z"/><path class="cls-6" d="M303.41,164.37l-.46,2.02h-.55l1.99-9.11h.87l2.03,9.11h-.6l-.46-2.02h-2.83ZM303.5,163.85h2.65l-1.34-5.89-1.31,5.89Z"/><path class="cls-6" d="M309.25,166.38v-8.55h-1.85v-.55h4.3v.55h-1.86v8.55h-.6Z"/><path class="cls-6" d="M313.04,157.28v9.1h-.6v-9.1h.6Z"/><path class="cls-6" d="M314.04,159.51c0-1.33.61-2.3,1.99-2.3s2.02.98,2.02,2.3v4.65c0,1.33-.61,2.3-2.02,2.3s-1.99-.98-1.99-2.3v-4.65ZM314.64,164.2c0,.99.39,1.72,1.39,1.72s1.42-.73,1.42-1.72v-4.73c0-.99-.4-1.72-1.42-1.72s-1.39.73-1.39,1.72v4.73Z"/><path class="cls-6" d="M319.58,166.38h-.55v-9.1h.78l2.73,7.68v-7.68h.55v9.1h-.66l-2.85-8.11v8.11Z"/><path class="cls-5" d="M198.92,134.97v5.41h-1.81v-5.19c0-.6-.14-1.03-.75-1.03-.56,0-.87.38-.87,1.29v4.93h-1.81v-5.19c0-.63-.15-1.03-.73-1.03-.55,0-.88.38-.88,1.29v4.93h-1.81v-7.65h1.57l.03,1.1c.28-.79.9-1.25,1.75-1.25s1.42.39,1.71,1.17c.3-.75.92-1.17,1.72-1.17,1.2,0,1.89.77,1.89,2.39Z"/><path class="cls-5" d="M205.49,132.73v7.65h-1.56l-.04-1.11c-.27.79-.9,1.26-1.77,1.26-1.21,0-1.9-.76-1.9-2.4v-5.4h1.81v5.15c0,.73.19,1.08.77,1.08s.9-.38.9-1.29v-4.94h1.8Z"/><path class="cls-5" d="M206.9,129.88h1.81v10.5h-1.81v-10.5Z"/><path class="cls-5" d="M212.46,134.23v3.94c0,.54.19.75.71.75.18,0,.39-.03.61-.1v1.53c-.31.13-.61.18-.99.18-1.44,0-2.13-.71-2.13-2.11v-4.19h-.99v-1.5h1.05l.15-2.01h1.59v2.01h1.32v1.5h-1.32Z"/><path class="cls-5" d="M214.86,129.87h1.81v1.88h-1.81v-1.88ZM214.86,132.73h1.81v7.65h-1.81v-7.65Z"/><path class="cls-5" d="M223.27,132.73v9.97h-1.8v-3.01c-.33.54-.88.84-1.59.84-1.21,0-1.92-.76-1.92-2.4v-3.16c0-1.62.71-2.39,1.92-2.39.88,0,1.54.5,1.81,1.35l.27-1.2h1.3ZM221.47,137.67v-2.22c0-.92-.36-1.29-.93-1.29s-.78.36-.78,1.03v2.73c0,.66.2,1.04.78,1.04s.93-.38.93-1.29Z"/><path class="cls-5" d="M224.5,137.89v-2.67c0-1.69.94-2.64,2.64-2.64s2.58,1.04,2.58,2.64v.34h-1.74v-.49c0-.58-.25-.92-.84-.92s-.83.33-.83.92v2.97c0,.57.25.92.83.92s.84-.35.84-.92v-.66h1.74v.51c0,1.6-.84,2.64-2.58,2.64s-2.64-.96-2.64-2.64Z"/><path class="cls-5" d="M180.48,146.51v4.65c0,.62-.13,1.17-.43,1.57.16.27.39.36.71.36h.14v.53h-.16c-.51,0-.86-.17-1.08-.53-.3.22-.69.36-1.2.36-1.39,0-2-.98-2-2.3v-4.65c0-1.33.61-2.3,2-2.3s2,.98,2,2.3ZM177.07,146.47v4.73c0,.99.4,1.72,1.4,1.72s1.4-.73,1.4-1.72v-4.73c0-.99-.4-1.72-1.4-1.72s-1.4.73-1.4,1.72Z"/><path class="cls-5" d="M182.14,151.19c0,.98.36,1.73,1.37,1.73s1.37-.75,1.37-1.73v-6.9h.56v6.88c0,1.3-.55,2.3-1.94,2.3s-1.95-1-1.95-2.3v-6.88h.6v6.9Z"/><path class="cls-5" d="M187.33,151.37l-.46,2.02h-.55l1.99-9.11h.87l2.03,9.11h-.6l-.46-2.02h-2.83ZM187.42,150.85h2.65l-1.34-5.89-1.31,5.89Z"/><path class="cls-5" d="M192.12,153.38v-9.1h.6v8.55h2.86v.55h-3.46Z"/><path class="cls-5" d="M197.08,144.28v9.1h-.6v-9.1h.6Z"/><path class="cls-5" d="M199.65,153.38v-8.55h-1.85v-.55h4.3v.55h-1.86v8.55h-.6Z"/><path class="cls-5" d="M204.72,149.89l-2.04-5.6h.62l1.74,4.78,1.74-4.78h.58l-2.05,5.6v3.5h-.6v-3.5Z"/><path class="cls-5" d="M214.15,146.51v.75h-.57v-.79c0-.98-.38-1.72-1.38-1.72s-1.38.74-1.38,1.72v4.73c0,.98.38,1.7,1.38,1.7s1.38-.73,1.38-1.7v-1.08h.57v1.04c0,1.31-.57,2.3-1.96,2.3s-1.96-.99-1.96-2.3v-4.65c0-1.31.57-2.3,1.96-2.3s1.96.99,1.96,2.3Z"/><path class="cls-5" d="M215.08,146.51c0-1.33.61-2.3,1.99-2.3s2.02.98,2.02,2.3v4.65c0,1.33-.61,2.3-2.02,2.3s-1.99-.98-1.99-2.3v-4.65ZM215.68,151.2c0,.99.39,1.72,1.39,1.72s1.42-.73,1.42-1.72v-4.73c0-.99-.4-1.72-1.42-1.72s-1.39.73-1.39,1.72v4.73Z"/><path class="cls-5" d="M220.62,153.38h-.55v-9.1h.78l2.73,7.68v-7.68h.55v9.1h-.66l-2.85-8.11v8.11Z"/><path class="cls-5" d="M226.69,153.38v-8.55h-1.85v-.55h4.3v.55h-1.86v8.55h-.6Z"/><path class="cls-5" d="M231.79,144.28c1.39,0,1.95.77,1.95,2.05v.79c0,1.07-.42,1.68-1.31,1.89.94.21,1.31.87,1.31,1.86v1.42c0,.38.03.79.22,1.09h-.62c-.16-.27-.2-.6-.2-1.09v-1.43c0-1.21-.66-1.55-1.7-1.55h-.95v4.07h-.6v-9.1h1.9ZM231.45,148.77c1.07,0,1.69-.3,1.69-1.52v-.86c0-.98-.38-1.56-1.36-1.56h-1.29v3.94h.96Z"/><path class="cls-5" d="M234.87,146.51c0-1.33.61-2.3,1.99-2.3s2.02.98,2.02,2.3v4.65c0,1.33-.61,2.3-2.02,2.3s-1.99-.98-1.99-2.3v-4.65ZM235.47,151.2c0,.99.39,1.72,1.39,1.72s1.42-.73,1.42-1.72v-4.73c0-.99-.4-1.72-1.42-1.72s-1.39.73-1.39,1.72v4.73Z"/><path class="cls-5" d="M239.86,153.38v-9.1h.6v8.55h2.86v.55h-3.46Z"/><path class="cls-6" d="M345.89,101.24v3.16c0,1.64-.71,2.4-1.92,2.4-.88,0-1.54-.48-1.81-1.32l-.27,1.17h-1.32v-10.5h1.81v3.52c.34-.52.9-.83,1.59-.83,1.21,0,1.92.77,1.92,2.39ZM344.07,101.47c0-.67-.19-1.03-.78-1.03s-.92.38-.92,1.29v2.22c0,.92.36,1.29.92,1.29.58,0,.78-.38.78-1.04v-2.73Z"/><path class="cls-6" d="M350.67,106.66c-.06-.08-.12-.48-.15-1.09-.29.78-.9,1.24-1.81,1.24-1.16,0-1.89-.75-1.89-1.98s.5-1.95,2.04-2.49c1.29-.45,1.47-.61,1.47-1.04v-.07c0-.6-.21-.87-.73-.87-.58,0-.81.35-.81.94v.15h-1.69v-.1c0-1.58.87-2.49,2.52-2.49,1.84,0,2.52.95,2.52,2.73v2.79c0,1.14.09,1.84.21,2.28h-1.67ZM350.33,103.97v-.94c-.16.14-.43.29-.9.48-.58.25-.81.6-.81,1.02,0,.5.23.77.74.77.57,0,.97-.41.97-1.32Z"/><path class="cls-6" d="M362.19,101.24v5.41h-1.81v-5.19c0-.6-.14-1.03-.75-1.03-.56,0-.87.38-.87,1.29v4.93h-1.81v-5.19c0-.63-.15-1.03-.73-1.03-.55,0-.88.38-.88,1.29v4.93h-1.81v-7.65h1.57l.03,1.1c.28-.79.9-1.25,1.75-1.25s1.42.39,1.71,1.17c.3-.75.92-1.17,1.72-1.17,1.2,0,1.89.77,1.89,2.39Z"/><path class="cls-6" d="M363.42,104v-5.19c0-1.78.98-2.8,2.76-2.8s2.75,1.02,2.75,2.8v.93h-1.77v-1.02c0-.73-.35-1.08-.93-1.08s-.93.35-.93,1.08v5.37c0,.73.34,1.08.93,1.08s.93-.35.93-1.08v-1.33h1.77v1.25c0,1.78-.96,2.8-2.75,2.8s-2.76-1.02-2.76-2.8Z"/><path class="cls-6" d="M369.89,104.15v-2.64c0-1.71.96-2.65,2.65-2.65s2.66.95,2.66,2.65v2.64c0,1.69-.95,2.65-2.66,2.65s-2.65-.96-2.65-2.65ZM373.4,104.3v-2.94c0-.55-.25-.93-.85-.93s-.84.38-.84.93v2.94c0,.56.25.93.84.93s.85-.38.85-.93Z"/><path class="cls-6" d="M375.89,99.01h1.86l1.11,5.52,1.1-5.52h1.72l-1.78,7.65h-2.22l-1.78-7.65Z"/><path class="cls-6" d="M387.72,101.51v1.74h-3.54v1.08c0,.63.3.93.9.93s.9-.28.9-.96v-.15h1.74v.08c0,1.6-.96,2.58-2.67,2.58s-2.69-.96-2.69-2.65v-2.64c0-1.71.94-2.65,2.69-2.65s2.67.95,2.67,2.65ZM385.95,101.9v-.6c0-.63-.31-.91-.88-.91s-.89.28-.89.91v.6h1.77Z"/><path class="cls-6" d="M392.72,98.95v1.74c-.14-.03-.3-.03-.45-.03-1,0-1.53.63-1.53,1.83v4.17h-1.81v-7.65h1.57l.03,1.43c.24-1.06.79-1.58,1.68-1.58.24,0,.39.03.51.09Z"/><path class="cls-6" d="M397.05,106.66c-.06-.08-.12-.48-.15-1.09-.29.78-.9,1.24-1.81,1.24-1.16,0-1.89-.75-1.89-1.98s.5-1.95,2.04-2.49c1.29-.45,1.47-.61,1.47-1.04v-.07c0-.6-.21-.87-.73-.87-.58,0-.81.35-.81.94v.15h-1.69v-.1c0-1.58.87-2.49,2.52-2.49,1.84,0,2.52.95,2.52,2.73v2.79c0,1.14.09,1.84.21,2.28h-1.67ZM396.71,103.97v-.94c-.16.14-.43.29-.9.48-.58.25-.81.6-.81,1.02,0,.5.22.77.73.77.57,0,.97-.41.97-1.32Z"/><path class="cls-6" d="M405.03,99.01v7.56c0,1.54-.6,2.56-2.67,2.56-1.68,0-2.55-.71-2.59-2.15h1.74c.03.48.27.67.83.67.63,0,.9-.29.9-1.03v-1.14c-.33.54-.88.84-1.59.84-1.21,0-1.92-.76-1.92-2.38v-2.7c0-1.62.71-2.39,1.92-2.39.87,0,1.51.47,1.78,1.27l.05-1.12h1.56ZM403.23,103.46v-1.74c0-.92-.36-1.29-.93-1.29s-.78.36-.78,1.03v2.25c0,.67.19,1.04.78,1.04s.93-.38.93-1.29Z"/><path class="cls-6" d="M411.62,101.51v1.74h-3.54v1.08c0,.63.3.93.9.93s.9-.28.9-.96v-.15h1.74v.08c0,1.6-.96,2.58-2.67,2.58s-2.69-.96-2.69-2.65v-2.64c0-1.71.94-2.65,2.69-2.65s2.67.95,2.67,2.65ZM409.85,101.9v-.6c0-.63-.31-.91-.88-.91s-.89.28-.89.91v.6h1.77Z"/><path class="cls-6" d="M352.15,112.78v.75h-.57v-.79c0-.98-.38-1.72-1.38-1.72s-1.38.74-1.38,1.72v4.73c0,.98.38,1.7,1.38,1.7s1.38-.73,1.38-1.7v-1.08h.57v1.04c0,1.31-.57,2.3-1.96,2.3s-1.96-.99-1.96-2.3v-4.65c0-1.31.57-2.3,1.96-2.3s1.96.99,1.96,2.3Z"/><path class="cls-6" d="M353.08,112.78c0-1.33.61-2.3,1.99-2.3s2.02.98,2.02,2.3v4.65c0,1.33-.61,2.3-2.02,2.3s-1.99-.98-1.99-2.3v-4.65ZM353.68,117.47c0,.99.39,1.72,1.39,1.72s1.42-.73,1.42-1.72v-4.73c0-.99-.4-1.72-1.42-1.72s-1.39.73-1.39,1.72v4.73Z"/><path class="cls-6" d="M358.54,110.55l1.85,8.41,1.85-8.41h.56l-1.98,9.1h-.88l-2-9.1h.61Z"/><path class="cls-6" d="M366.79,114.77v.55h-2.48v3.8h2.99v.55h-3.59v-9.1h3.59v.55h-2.99v3.67h2.48Z"/><path class="cls-6" d="M370.17,110.55c1.39,0,1.95.77,1.95,2.05v.79c0,1.07-.42,1.68-1.31,1.89.94.21,1.31.87,1.31,1.86v1.42c0,.38.03.79.22,1.09h-.62c-.16-.27-.2-.6-.2-1.09v-1.43c0-1.21-.66-1.55-1.7-1.55h-.95v4.07h-.6v-9.1h1.9ZM369.83,115.04c1.07,0,1.69-.3,1.69-1.52v-.86c0-.98-.38-1.56-1.36-1.56h-1.29v3.94h.96Z"/><path class="cls-6" d="M374.16,117.64l-.46,2.02h-.55l1.99-9.11h.87l2.03,9.11h-.6l-.46-2.02h-2.83ZM374.25,117.12h2.65l-1.34-5.89-1.31,5.89Z"/><path class="cls-6" d="M382.83,112.78v.68h-.57v-.71c0-.98-.38-1.72-1.38-1.72s-1.38.74-1.38,1.72v4.73c0,.98.38,1.7,1.38,1.7s1.38-.73,1.38-1.7v-1.96h-1.21v-.55h1.78v2.47c0,1.31-.57,2.3-1.96,2.3s-1.96-.99-1.96-2.3v-4.65c0-1.31.57-2.3,1.96-2.3s1.96.99,1.96,2.3Z"/><path class="cls-6" d="M386.91,114.77v.55h-2.48v3.8h2.99v.55h-3.59v-9.1h3.59v.55h-2.99v3.67h2.48Z"/><path class="cls-6" d="M393.36,114.99v.55h-2.35v4.12h-.6v-9.1h3.46v.55h-2.86v3.89h2.35Z"/><path class="cls-6" d="M394.74,112.78c0-1.33.61-2.3,1.99-2.3s2.02.98,2.02,2.3v4.65c0,1.33-.61,2.3-2.02,2.3s-1.99-.98-1.99-2.3v-4.65ZM395.33,117.47c0,.99.39,1.72,1.39,1.72s1.42-.73,1.42-1.72v-4.73c0-.99-.4-1.72-1.42-1.72s-1.39.73-1.39,1.72v4.73Z"/><path class="cls-6" d="M401.63,110.55c1.39,0,1.95.77,1.95,2.05v.79c0,1.07-.42,1.68-1.31,1.89.94.21,1.31.87,1.31,1.86v1.42c0,.38.03.79.22,1.09h-.62c-.16-.27-.2-.6-.2-1.09v-1.43c0-1.21-.66-1.55-1.7-1.55h-.95v4.07h-.6v-9.1h1.9ZM401.29,115.04c1.07,0,1.69-.3,1.69-1.52v-.86c0-.98-.38-1.56-1.36-1.56h-1.29v3.94h.96Z"/><path class="cls-6" d="M353.44,125.75v.2h-.57v-.23c0-.96-.36-1.69-1.35-1.69s-1.35.71-1.35,1.68c0,2.21,3.29,2.25,3.29,4.76,0,1.31-.57,2.28-1.96,2.28s-1.96-.96-1.96-2.28v-.47h.57v.51c0,.98.38,1.68,1.38,1.68s1.38-.7,1.38-1.68c0-2.18-3.29-2.22-3.29-4.76,0-1.37.6-2.25,1.94-2.26,1.38,0,1.94.96,1.94,2.27Z"/><path class="cls-6" d="M355.29,130.64l-.46,2.02h-.55l1.99-9.11h.87l2.03,9.11h-.6l-.46-2.02h-2.83ZM355.38,130.12h2.65l-1.34-5.89-1.31,5.89Z"/><path class="cls-6" d="M363.92,125.75v.2h-.57v-.23c0-.96-.36-1.69-1.35-1.69s-1.35.71-1.35,1.68c0,2.21,3.29,2.25,3.29,4.76,0,1.31-.57,2.28-1.96,2.28s-1.96-.96-1.96-2.28v-.47h.57v.51c0,.98.38,1.68,1.38,1.68s1.38-.7,1.38-1.68c0-2.18-3.29-2.22-3.29-4.76,0-1.37.6-2.25,1.94-2.26,1.38,0,1.94.96,1.94,2.27Z"/><path class="cls-6" d="M365.49,128.38v4.28h-.6v-9.1h.6v4.28h2.83v-4.28h.61v9.1h-.61v-4.28h-2.83Z"/><path class="cls-6" d="M370.58,123.55v9.1h-.6v-9.1h.6Z"/><path class="cls-6" d="M374.67,132.64h-.6l-1.92-8.05v8.06h-.53v-9.1h.86l1.91,8.05,1.9-8.05h.86v9.1h-.57v-8.09l-1.9,8.07Z"/><path class="cls-6" d="M378.78,123.55v9.1h-.6v-9.1h.6Z"/><path class="cls-6" d="M383.72,123.55c1.4,0,1.95.88,1.95,2.21v.99c0,1.44-.66,2.16-2.11,2.16h-1.13v3.74h-.6v-9.1h1.89ZM383.56,128.36c1.05,0,1.51-.47,1.51-1.57v-1.07c0-.99-.34-1.62-1.35-1.62h-1.29v4.26h1.13Z"/><path class="cls-6" d="M386.57,132.66v-9.1h.6v8.55h2.86v.55h-3.46Z"/><path class="cls-6" d="M390.88,125.78c0-1.33.61-2.3,1.99-2.3s2.02.98,2.02,2.3v4.65c0,1.33-.61,2.3-2.02,2.3s-1.99-.98-1.99-2.3v-4.65ZM391.48,130.47c0,.99.39,1.72,1.39,1.72s1.42-.73,1.42-1.72v-4.73c0-.99-.4-1.72-1.42-1.72s-1.39.73-1.39,1.72v4.73Z"/><path class="cls-6" d="M397.41,132.66v-8.55h-1.85v-.55h4.3v.55h-1.86v8.55h-.6Z"/><path class="cls-6" d="M404.44,125.75v.2h-.57v-.23c0-.96-.36-1.69-1.35-1.69s-1.35.71-1.35,1.68c0,2.21,3.29,2.25,3.29,4.76,0,1.31-.57,2.28-1.96,2.28s-1.96-.96-1.96-2.28v-.47h.57v.51c0,.98.38,1.68,1.38,1.68s1.38-.7,1.38-1.68c0-2.18-3.29-2.22-3.29-4.76,0-1.37.6-2.25,1.94-2.26,1.38,0,1.94.96,1.94,2.27Z"/><path class="cls-1" d="M44.82,47.32h9.03c2,0,3.61,1.62,3.61,3.61v4.52s-.01.26,0,.27v1.48c0,2,1.62,3.61,3.61,3.61h2.28"/><polyline class="cls-1" points="403.32 60.9 163.81 60.9 121.21 60.9 93.65 60.84 44.64 60.84"/><path class="cls-1" d="M46.54,81.62h7.34c2,0,3.61-1.62,3.61-3.61v-12.34"/><path class="cls-2" d="M47.49,86.46h12.03c2,0,3.61-1.62,3.61-3.61v-13.72"/><path class="cls-2" d="M63.14,71.73v-2.28c0-2,1.62-3.61,3.61-3.61h1.48"/><path class="cls-1" d="M57.48,66.74v-2.28c0-2,1.62-3.61,3.61-3.61h1.48"/><path class="cls-1" d="M365.62,60.9h2.28c2,0,3.61,1.62,3.61,3.61v21.45"/><path class="cls-2" d="M324.48,65.76h3.42s2.28,0,2.28,0c2,0,3.61,1.62,3.61,3.61v1.48c0-.67,0,3.6,0,3.6v2.36l.06,31.84v4.83c0,2-1.62,3.61-3.61,3.61H126.32"/><circle class="cls-3" cx="293.91" cy="117.61" r="5.67"/><circle class="cls-3" cx="210.4" cy="117.67" r="5.67"/><circle class="cls-3" cx="44.64" cy="84.34" r="5.67"/><polyline class="cls-2" points="44.64 65.84 94.84 65.84 121.22 65.76 164.76 65.76 327.43 65.76"/><circle class="cls-3" cx="44.64" cy="63.82" r="5.67"/><circle class="cls-3" cx="127.81" cy="63.82" r="5.67"/><circle class="cls-3" cx="402.46" cy="61.31" r="5.67"/><circle class="cls-3" cx="371.41" cy="86.63" r="5.67"/><path class="cls-2" d="M42.2,42.3h16.78c2,0,3.61,1.62,3.61,3.61v9.62l.03,5.2v1.48c0,2,1.62,3.61,3.61,3.61h2.28"/><circle class="cls-3" cx="44.64" cy="44.34" r="5.67"/><circle class="cls-3" cx="127.4" cy="117.67" r="5.67"/><path class="cls-5" d="M114.79,30.53v.64h1.3v1.5h-1.3v6.15h-1.81v-6.15h-.98v-1.5h.98v-.88c0-1.42.7-2.11,2.13-2.11.38,0,.69.04.99.17v1.53c-.23-.06-.44-.09-.61-.09-.51,0-.69.21-.69.75Z"/><path class="cls-5" d="M120.46,38.82c-.06-.08-.12-.48-.15-1.09-.29.78-.9,1.24-1.81,1.24-1.16,0-1.89-.75-1.89-1.98s.5-1.95,2.04-2.49c1.29-.45,1.47-.61,1.47-1.04v-.07c0-.6-.21-.87-.73-.87-.58,0-.81.35-.81.94v.15h-1.69v-.1c0-1.58.87-2.49,2.52-2.49,1.84,0,2.52.95,2.52,2.73v2.79c0,1.14.09,1.84.21,2.28h-1.67ZM120.11,36.14v-.94c-.16.14-.43.29-.9.48-.58.25-.81.6-.81,1.02,0,.5.22.77.73.77.57,0,.97-.41.97-1.32Z"/><path class="cls-5" d="M122.98,36.59v-.23h1.72v.25c0,.6.31.87.81.87.45,0,.78-.23.78-.78s-.56-.77-1.28-1.04c-.94-.36-1.95-.87-1.95-2.4,0-1.36.83-2.25,2.43-2.25,1.49,0,2.43.85,2.43,2.25v.17h-1.69v-.19c0-.51-.24-.75-.72-.75-.36,0-.69.19-.69.7,0,.58.54.81,1.32,1.11.95.36,1.94.84,1.94,2.29s-.84,2.37-2.49,2.37-2.61-.9-2.61-2.38Z"/><path class="cls-5" d="M131.42,32.67v3.94c0,.54.19.75.71.75.18,0,.39-.03.61-.1v1.53c-.31.13-.61.18-.99.18-1.44,0-2.13-.71-2.13-2.11v-4.19h-.99v-1.5h1.05l.15-2.01h1.59v2.01h1.32v1.5h-1.32Z"/><path class="cls-5" d="M139,31.17v9.97h-1.8v-3.01c-.33.54-.88.84-1.59.84-1.21,0-1.92-.76-1.92-2.4v-3.16c0-1.62.71-2.39,1.92-2.39.88,0,1.54.5,1.81,1.35l.27-1.2h1.3ZM137.2,36.11v-2.22c0-.92-.36-1.29-.93-1.29s-.78.36-.78,1.03v2.73c0,.66.2,1.04.78,1.04s.93-.38.93-1.29Z"/><path class="cls-5" d="M140.23,36.33v-2.67c0-1.69.94-2.64,2.64-2.64s2.58,1.04,2.58,2.64v.34h-1.74v-.49c0-.58-.25-.92-.84-.92s-.83.33-.83.92v2.97c0,.57.25.92.83.92s.84-.35.84-.92v-.66h1.74v.51c0,1.6-.84,2.64-2.58,2.64s-2.64-.96-2.64-2.64Z"/><path class="cls-5" d="M99.44,44.95v4.65c0,.62-.13,1.17-.43,1.57.16.27.39.36.71.36h.14v.53h-.16c-.51,0-.86-.17-1.08-.53-.3.22-.69.36-1.2.36-1.39,0-2-.98-2-2.3v-4.65c0-1.33.61-2.3,2-2.3s2,.98,2,2.3ZM96.03,44.91v4.73c0,.99.4,1.72,1.4,1.72s1.4-.73,1.4-1.72v-4.73c0-.99-.4-1.72-1.4-1.72s-1.4.73-1.4,1.72Z"/><path class="cls-5" d="M101.1,49.63c0,.98.36,1.73,1.37,1.73s1.37-.75,1.37-1.73v-6.9h.56v6.88c0,1.3-.55,2.3-1.94,2.3s-1.95-1-1.95-2.3v-6.88h.6v6.9Z"/><path class="cls-5" d="M106.29,49.81l-.46,2.02h-.55l1.99-9.11h.87l2.03,9.11h-.6l-.46-2.02h-2.83ZM106.38,49.29h2.65l-1.34-5.89-1.31,5.89Z"/><path class="cls-5" d="M111.09,51.82v-9.1h.6v8.55h2.86v.55h-3.46Z"/><path class="cls-5" d="M116.04,42.72v9.1h-.6v-9.1h.6Z"/><path class="cls-5" d="M118.62,51.82v-8.55h-1.85v-.55h4.3v.55h-1.86v8.55h-.6Z"/><path class="cls-5" d="M123.68,48.33l-2.04-5.6h.62l1.74,4.78,1.74-4.78h.58l-2.05,5.6v3.5h-.6v-3.5Z"/><path class="cls-5" d="M133.11,44.95v.75h-.57v-.79c0-.98-.38-1.72-1.38-1.72s-1.38.74-1.38,1.72v4.73c0,.98.38,1.7,1.38,1.7s1.38-.73,1.38-1.7v-1.08h.57v1.04c0,1.31-.57,2.3-1.96,2.3s-1.96-.99-1.96-2.3v-4.65c0-1.31.57-2.3,1.96-2.3s1.96.99,1.96,2.3Z"/><path class="cls-5" d="M134.05,44.95c0-1.33.61-2.3,1.99-2.3s2.02.98,2.02,2.3v4.65c0,1.33-.61,2.3-2.02,2.3s-1.99-.98-1.99-2.3v-4.65ZM134.64,49.64c0,.99.39,1.72,1.39,1.72s1.42-.73,1.42-1.72v-4.73c0-.99-.4-1.72-1.42-1.72s-1.39.73-1.39,1.72v4.73Z"/><path class="cls-5" d="M139.58,51.82h-.55v-9.1h.78l2.73,7.68v-7.68h.55v9.1h-.66l-2.85-8.11v8.11Z"/><path class="cls-5" d="M145.65,51.82v-8.55h-1.85v-.55h4.3v.55h-1.86v8.55h-.6Z"/><path class="cls-5" d="M150.75,42.72c1.39,0,1.95.77,1.95,2.05v.79c0,1.07-.42,1.68-1.31,1.89.94.21,1.31.87,1.31,1.86v1.42c0,.38.03.79.22,1.09h-.62c-.16-.27-.2-.6-.2-1.09v-1.43c0-1.21-.66-1.55-1.7-1.55h-.95v4.07h-.6v-9.1h1.9ZM150.41,47.21c1.07,0,1.69-.3,1.69-1.52v-.86c0-.98-.38-1.56-1.36-1.56h-1.29v3.94h.96Z"/><path class="cls-5" d="M153.83,44.95c0-1.33.61-2.3,1.99-2.3s2.02.98,2.02,2.3v4.65c0,1.33-.61,2.3-2.02,2.3s-1.99-.98-1.99-2.3v-4.65ZM154.43,49.64c0,.99.39,1.72,1.39,1.72s1.42-.73,1.42-1.72v-4.73c0-.99-.4-1.72-1.42-1.72s-1.39.73-1.39,1.72v4.73Z"/><path class="cls-5" d="M158.82,51.82v-9.1h.6v8.55h2.86v.55h-3.46Z"/><path class="cls-5" d="M117.99,131.55h-1.95v-1.67h5.79v1.67h-1.96v8.83h-1.88v-8.83Z"/><path class="cls-5" d="M122.81,129.88h2.76c1.89,0,2.79.92,2.79,2.74v.83c0,1.83-.9,2.76-2.79,2.76h-.89v4.17h-1.87v-10.5ZM125.57,134.55c.63,0,.92-.28.92-1.03v-.94c0-.75-.29-1.02-.92-1.02h-.89v3h.89Z"/><path class="cls-5" d="M129.42,129.88h2.64l1.25,7.47,1.24-7.47h2.64v10.5h-1.77v-7.89l-1.4,7.89h-1.57l-1.4-7.89v7.89h-1.64v-10.5Z"/><path class="cls-5" d="M96.07,147.97v5.41h-1.8v-5.16c0-.73-.21-1.06-.77-1.06s-.9.36-.9,1.29v4.93h-1.81v-7.65h1.57l.03,1.1c.28-.79.92-1.25,1.78-1.25,1.21,0,1.89.77,1.89,2.39Z"/><path class="cls-5" d="M97.24,150.88v-2.64c0-1.71.96-2.65,2.65-2.65s2.66.95,2.66,2.65v2.64c0,1.69-.95,2.65-2.66,2.65s-2.65-.96-2.65-2.65ZM100.75,151.03v-2.94c0-.55-.25-.93-.85-.93s-.84.38-.84.93v2.94c0,.56.25.93.84.93s.85-.38.85-.93Z"/><path class="cls-5" d="M107.58,145.67v1.74c-.14-.03-.3-.03-.45-.03-1,0-1.53.63-1.53,1.83v4.17h-1.81v-7.65h1.57l.03,1.43c.24-1.06.79-1.58,1.68-1.58.24,0,.39.03.51.09Z"/><path class="cls-5" d="M117.19,147.97v5.41h-1.81v-5.19c0-.6-.14-1.03-.75-1.03-.56,0-.87.38-.87,1.29v4.93h-1.81v-5.19c0-.63-.15-1.03-.73-1.03-.55,0-.88.38-.88,1.29v4.93h-1.81v-7.65h1.57l.03,1.1c.28-.79.9-1.25,1.75-1.25s1.42.39,1.71,1.17c.3-.75.92-1.17,1.72-1.17,1.2,0,1.89.77,1.89,2.39Z"/><path class="cls-5" d="M122.05,153.38c-.06-.08-.12-.48-.15-1.09-.29.78-.9,1.24-1.81,1.24-1.16,0-1.89-.75-1.89-1.98s.5-1.95,2.04-2.49c1.29-.45,1.47-.61,1.47-1.04v-.07c0-.6-.21-.87-.73-.87-.58,0-.81.35-.81.94v.15h-1.69v-.1c0-1.58.87-2.49,2.52-2.49,1.84,0,2.52.95,2.52,2.73v2.79c0,1.14.09,1.84.21,2.28h-1.67ZM121.7,150.7v-.94c-.16.14-.43.29-.9.48-.58.25-.81.6-.81,1.02,0,.5.22.77.73.77.57,0,.97-.41.97-1.32Z"/><path class="cls-5" d="M124.89,142.88h1.81v10.5h-1.81v-10.5Z"/><path class="cls-5" d="M128.11,142.87h1.81v1.88h-1.81v-1.88ZM128.11,145.73h1.81v7.65h-1.81v-7.65Z"/><path class="cls-5" d="M131,151.88l3.04-4.62h-2.88v-1.53h4.78v1.49l-3.04,4.63h3.04v1.53h-4.95v-1.5Z"/><path class="cls-5" d="M140.59,153.38c-.06-.08-.12-.48-.15-1.09-.29.78-.9,1.24-1.81,1.24-1.16,0-1.89-.75-1.89-1.98s.5-1.95,2.04-2.49c1.29-.45,1.47-.61,1.47-1.04v-.07c0-.6-.21-.87-.73-.87-.58,0-.81.35-.81.94v.15h-1.69v-.1c0-1.58.87-2.49,2.52-2.49,1.84,0,2.52.95,2.52,2.73v2.79c0,1.14.09,1.84.21,2.28h-1.67ZM140.24,150.7v-.94c-.16.14-.43.29-.9.48-.58.25-.81.6-.81,1.02,0,.5.23.77.74.77.57,0,.97-.41.97-1.32Z"/><path class="cls-5" d="M145.69,147.23v3.94c0,.54.19.75.71.75.18,0,.39-.03.61-.1v1.53c-.31.13-.61.18-.99.18-1.44,0-2.13-.71-2.13-2.11v-4.19h-.99v-1.5h1.05l.15-2.01h1.59v2.01h1.32v1.5h-1.32Z"/><path class="cls-5" d="M148.09,142.87h1.81v1.88h-1.81v-1.88ZM148.09,145.73h1.81v7.65h-1.81v-7.65Z"/><path class="cls-5" d="M151.13,150.88v-2.64c0-1.71.96-2.65,2.65-2.65s2.66.95,2.66,2.65v2.64c0,1.69-.95,2.65-2.66,2.65s-2.65-.96-2.65-2.65ZM154.64,151.03v-2.94c0-.55-.25-.93-.85-.93s-.84.38-.84.93v2.94c0,.56.25.93.84.93s.85-.38.85-.93Z"/><path class="cls-5" d="M162.95,147.97v5.41h-1.8v-5.16c0-.73-.21-1.06-.77-1.06s-.9.36-.9,1.29v4.93h-1.81v-7.65h1.57l.03,1.1c.28-.79.92-1.25,1.78-1.25,1.21,0,1.89.77,1.89,2.39Z"/><circle class="cls-3" cx="210.98" cy="63.82" r="5.67"/><circle class="cls-3" cx="294.15" cy="63.82" r="5.67"/></svg>