<?xml version="1.0" encoding="UTF-8"?><svg id="Ebene_1" xmlns="http://www.w3.org/2000/svg" viewBox="0 0 420 174.57"><defs><style>.cls-1{stroke:#f67061;}.cls-1,.cls-2{fill:none;stroke-width:3px;}.cls-1,.cls-2,.cls-3{stroke-miterlimit:10;}.cls-2{stroke:#102442;}.cls-3{fill:#fff;stroke:#161616;stroke-width:2px;}.cls-4{fill:#000;}.cls-4,.cls-5{stroke-width:0px;}.cls-5{fill:#161616;}</style></defs><path class="cls-5" d="M10.14,85.96h-.54v-1.77h.6c.69,0,1.06-.33,1.06-.98,0-.58-.35-.98-1.08-.98-.88,0-1.26.36-2.08,1.6-1.05,1.59-1.94,2.08-3.27,2.08-1.68,0-2.73-.96-2.73-2.77s1.05-2.71,2.76-2.71h.38v1.77h-.42c-.71,0-1.08.3-1.08.93,0,.59.35.93,1.04.93.78,0,1.17-.39,1.98-1.63,1.05-1.62,1.95-2.07,3.35-2.07,1.74,0,2.8.99,2.8,2.83s-1.06,2.76-2.76,2.76Z"/><path class="cls-5" d="M2.25,79.26v-2.77c0-1.91.82-2.77,2.53-2.77h.53c1.09,0,1.78.39,2.11,1.21h.04c.25-.89,1.04-1.23,2.37-1.23h1.54c.54,0,.94-.03,1.36-.21v1.9c-.29.1-.44.17-1.38.17h-1.65c-.99,0-1.32.31-1.32,1.19v.65h4.35v1.87H2.25ZM6.74,76.69c0-.74-.31-1.11-1.14-1.11h-.61c-.74,0-1.06.29-1.06.93v.87h2.82v-.69Z"/><path class="cls-5" d="M10.77,68.58v2.13l1.98.31v1.75l-10.5-1.93v-2.54l10.5-1.95v1.9l-1.98.31ZM9.15,68.85l-5,.79,5,.79v-1.59Z"/><path class="cls-5" d="M6.6,60.54h3.94c.54,0,.75-.19.75-.71,0-.18-.03-.39-.1-.61h1.53c.13.31.18.61.18.99,0,1.44-.71,2.13-2.11,2.13h-4.19v.99h-1.5v-1.05l-2.01-.15v-1.59h2.01v-1.32h1.5v1.32Z"/><path class="cls-5" d="M10.25,58.33h-2.64c-1.71,0-2.65-.96-2.65-2.65s.95-2.66,2.65-2.66h2.64c1.69,0,2.65.95,2.65,2.66s-.96,2.65-2.65,2.65ZM10.4,54.82h-2.94c-.55,0-.93.25-.93.85s.38.84.93.84h2.94c.56,0,.93-.25.93-.84s-.38-.85-.93-.85Z"/><path class="cls-5" d="M10.25,51.97h-2.64c-1.71,0-2.65-.96-2.65-2.65s.95-2.66,2.65-2.66h2.64c1.69,0,2.65.95,2.65,2.66s-.96,2.65-2.65,2.65ZM10.4,48.46h-2.94c-.55,0-.93.25-.93.85s.38.84.93.84h2.94c.56,0,.93-.25.93-.84s-.38-.85-.93-.85Z"/><path class="cls-5" d="M2.25,45.43v-1.81h10.5v1.81H2.25Z"/><path class="cls-5" d="M16.65,94.59c0-1.4.92-2.02,2.26-2.02h4.58c1.34,0,2.26.61,2.26,2.02v2h-9.1v-2ZM25.2,94.6c0-1.01-.69-1.43-1.69-1.43h-4.63c-1,0-1.69.43-1.69,1.43v1.39h8.01v-1.39Z"/><path class="cls-5" d="M23.73,90.72l2.02.46v.55l-9.11-1.99v-.87l9.11-2.03v.6l-2.02.46v2.83ZM23.21,90.63v-2.65l-5.89,1.34,5.89,1.31Z"/><path class="cls-5" d="M25.75,84.89h-8.55v1.85h-.55v-4.3h.55v1.86h8.55v.6Z"/><path class="cls-5" d="M23.73,81.31l2.02.46v.55l-9.11-1.99v-.87l9.11-2.03v.6l-2.02.46v2.83ZM23.21,81.22v-2.65l-5.89,1.34,5.89,1.31Z"/><path class="cls-5" d="M16.65,72.5c0-1.4.92-2.02,2.26-2.02h4.58c1.34,0,2.26.61,2.26,2.02v2h-9.1v-2ZM25.2,72.51c0-1.01-.69-1.43-1.69-1.43h-4.63c-1,0-1.69.43-1.69,1.43v1.39h8.01v-1.39Z"/><path class="cls-5" d="M18.87,69.54c-1.33,0-2.3-.61-2.3-1.99s.98-2.02,2.3-2.02h4.65c1.33,0,2.3.61,2.3,2.02s-.98,1.99-2.3,1.99h-4.65ZM23.57,68.94c.99,0,1.72-.39,1.72-1.39s-.73-1.42-1.72-1.42h-4.73c-.99,0-1.72.4-1.72,1.42s.73,1.39,1.72,1.39h4.73Z"/><path class="cls-5" d="M25.75,62.36v.83l-9.1,1.47v-.59l8.29-1.36-8.26-1.33v-.64l8.23-1.27-8.27-1.31v-.53l9.1,1.46v.78l-7.45,1.22,7.45,1.27Z"/><path class="cls-5" d="M25.75,56.16v.55h-9.1v-.78l7.68-2.73h-7.68v-.55h9.1v.66l-8.11,2.85h8.11Z"/><path class="cls-5" d="M25.75,51.62h-9.1v-.6h8.55v-2.86h.55v3.46Z"/><path class="cls-5" d="M18.87,47.31c-1.33,0-2.3-.61-2.3-1.99s.98-2.02,2.3-2.02h4.65c1.33,0,2.3.61,2.3,2.02s-.98,1.99-2.3,1.99h-4.65ZM23.57,46.71c.99,0,1.72-.39,1.72-1.39s-.73-1.42-1.72-1.42h-4.73c-.99,0-1.72.4-1.72,1.42s.73,1.39,1.72,1.39h4.73Z"/><path class="cls-5" d="M23.73,41.46l2.02.46v.55l-9.11-1.99v-.87l9.11-2.03v.6l-2.02.46v2.83ZM23.21,41.36v-2.65l-5.89,1.34,5.89,1.31Z"/><path class="cls-5" d="M16.65,34.66c0-1.4.92-2.02,2.26-2.02h4.58c1.34,0,2.26.61,2.26,2.02v2h-9.1v-2ZM25.2,34.67c0-1.01-.69-1.43-1.69-1.43h-4.63c-1,0-1.69.43-1.69,1.43v1.39h8.01v-1.39Z"/><path class="cls-5" d="M192.92,20.54v3.16c0,1.64-.71,2.4-1.92,2.4-.88,0-1.54-.48-1.81-1.32l-.27,1.17h-1.32v-10.5h1.81v3.52c.34-.52.9-.83,1.59-.83,1.21,0,1.92.77,1.92,2.39ZM191.1,20.77c0-.67-.19-1.03-.78-1.03s-.92.38-.92,1.29v2.22c0,.92.36,1.29.92,1.29.58,0,.78-.38.78-1.04v-2.73Z"/><path class="cls-5" d="M199.52,20.54v3.16c0,1.64-.71,2.4-1.92,2.4-.88,0-1.54-.48-1.81-1.32l-.27,1.17h-1.32v-10.5h1.81v3.52c.34-.52.9-.83,1.59-.83,1.21,0,1.92.77,1.92,2.39ZM197.7,20.77c0-.67-.19-1.03-.78-1.03s-.92.38-.92,1.29v2.22c0,.92.36,1.29.92,1.29.58,0,.78-.38.78-1.04v-2.73Z"/><path class="cls-5" d="M204.53,25.96c-.08-.08-.14-.48-.15-1.11-.3.79-.95,1.26-1.8,1.26-1.21,0-1.92-.76-1.92-2.4v-3.16c0-1.62.71-2.39,1.92-2.39.69,0,1.25.3,1.59.83v-3.52h1.81v8.22c0,1.14.09,1.84.21,2.28h-1.67ZM204.17,23.24v-2.22c0-.92-.36-1.29-.91-1.29-.58,0-.78.36-.78,1.03v2.73c0,.66.2,1.04.78,1.04.55,0,.91-.38.91-1.29Z"/><path class="cls-5" d="M212.62,18.31v7.65h-1.56l-.04-1.11c-.27.79-.9,1.26-1.77,1.26-1.21,0-1.9-.76-1.9-2.4v-5.4h1.81v5.15c0,.73.19,1.08.77,1.08s.9-.38.9-1.29v-4.94h1.8Z"/><path class="cls-5" d="M216.57,22.78l-.72,1.02v2.16h-1.81v-10.5h1.81v5.94l1.93-3.09h2l-1.98,2.83,2.08,4.81h-1.98l-1.33-3.18Z"/><path class="cls-5" d="M187.19,36.94l-.46,2.02h-.55l1.99-9.11h.87l2.03,9.11h-.6l-.46-2.02h-2.83ZM187.28,36.42h2.65l-1.34-5.89-1.31,5.89Z"/><path class="cls-5" d="M193.99,29.86c1.4,0,2.02.92,2.02,2.26v4.58c0,1.34-.61,2.26-2.02,2.26h-2v-9.1h2ZM193.97,38.41c1.01,0,1.43-.69,1.43-1.69v-4.63c0-1-.43-1.69-1.43-1.69h-1.39v8.01h1.39Z"/><path class="cls-5" d="M197.85,36.94l-.46,2.02h-.55l1.99-9.11h.87l2.03,9.11h-.6l-.46-2.02h-2.83ZM197.94,36.42h2.65l-1.34-5.89-1.31,5.89Z"/><path class="cls-5" d="M204.53,29.86c1.4,0,1.95.88,1.95,2.21v.99c0,1.44-.66,2.16-2.11,2.16h-1.13v3.74h-.6v-9.1h1.89ZM204.37,34.67c1.05,0,1.51-.47,1.51-1.57v-1.07c0-.99-.34-1.62-1.35-1.62h-1.29v4.26h1.13Z"/><path class="cls-5" d="M208.91,38.96v-8.55h-1.85v-.55h4.3v.55h-1.86v8.55h-.6Z"/><path class="cls-5" d="M215.19,34.07v.55h-2.48v3.8h2.99v.55h-3.59v-9.1h3.59v.55h-2.99v3.67h2.48Z"/><path class="cls-5" d="M218.57,29.86c1.39,0,1.95.77,1.95,2.05v.79c0,1.07-.42,1.68-1.31,1.89.94.21,1.31.87,1.31,1.86v1.42c0,.38.03.79.22,1.09h-.62c-.16-.27-.2-.6-.2-1.09v-1.43c0-1.21-.66-1.55-1.7-1.55h-.95v4.07h-.6v-9.1h1.9ZM218.23,34.34c1.07,0,1.69-.3,1.69-1.52v-.86c0-.98-.38-1.56-1.36-1.56h-1.29v3.94h.96Z"/><path class="cls-5" d="M187.47,51.96v-8.55h-1.85v-.55h4.3v.55h-1.86v8.55h-.6Z"/><path class="cls-5" d="M192.57,42.86c1.39,0,1.95.77,1.95,2.05v.79c0,1.07-.42,1.68-1.31,1.89.94.21,1.31.87,1.31,1.86v1.42c0,.38.03.79.22,1.09h-.62c-.16-.27-.2-.6-.2-1.09v-1.43c0-1.21-.66-1.55-1.7-1.55h-.95v4.07h-.6v-9.1h1.9ZM192.23,47.34c1.07,0,1.69-.3,1.69-1.52v-.86c0-.98-.38-1.56-1.36-1.56h-1.29v3.94h.96Z"/><path class="cls-5" d="M196.29,42.86v9.1h-.6v-9.1h.6Z"/><path class="cls-5" d="M200.38,51.94h-.6l-1.92-8.05v8.06h-.53v-9.1h.86l1.91,8.05,1.9-8.05h.86v9.1h-.57v-8.09l-1.9,8.07Z"/><path class="cls-5" d="M206.95,51.94h-.6l-1.92-8.05v8.06h-.53v-9.1h.86l1.91,8.05,1.9-8.05h.86v9.1h-.57v-8.09l-1.9,8.07Z"/><path class="cls-5" d="M211.06,42.86v9.1h-.6v-9.1h.6Z"/><path class="cls-5" d="M212.64,51.96h-.55v-9.1h.78l2.73,7.68v-7.68h.55v9.1h-.66l-2.85-8.11v8.11Z"/><path class="cls-5" d="M221.07,45.08v.68h-.57v-.71c0-.98-.38-1.72-1.38-1.72s-1.38.74-1.38,1.72v4.73c0,.98.38,1.7,1.38,1.7s1.38-.73,1.38-1.7v-1.96h-1.21v-.55h1.78v2.47c0,1.31-.57,2.3-1.96,2.3s-1.96-.99-1.96-2.3v-4.65c0-1.31.57-2.3,1.96-2.3s1.96.99,1.96,2.3Z"/><path class="cls-5" d="M273.81,35.86v-.54h1.77v.6c0,.69.33,1.06.98,1.06.58,0,.98-.35.98-1.08,0-.88-.36-1.26-1.6-2.08-1.59-1.05-2.08-1.94-2.08-3.27,0-1.68.96-2.73,2.77-2.73s2.71,1.05,2.71,2.76v.38h-1.77v-.42c0-.71-.3-1.08-.93-1.08-.58,0-.93.35-.93,1.04,0,.78.39,1.17,1.63,1.98,1.62,1.05,2.07,1.95,2.07,3.35,0,1.74-.99,2.8-2.83,2.8s-2.76-1.06-2.76-2.76Z"/><path class="cls-5" d="M282,29.63h-1.95v-1.67h5.79v1.67h-1.96v8.83h-1.88v-8.83Z"/><path class="cls-5" d="M289.74,36.49h-2.13l-.31,1.98h-1.75l1.93-10.5h2.54l1.95,10.5h-1.9l-.31-1.98ZM289.47,34.87l-.79-5-.79,5h1.59Z"/><path class="cls-5" d="M292.91,27.97h2.77c1.91,0,2.77.82,2.77,2.53v.53c0,1.09-.39,1.78-1.21,2.11v.04c.89.25,1.23,1.04,1.23,2.37v1.54c0,.54.03.94.21,1.36h-1.9c-.1-.29-.17-.44-.17-1.38v-1.65c0-.99-.31-1.32-1.19-1.32h-.65v4.35h-1.88v-10.5ZM295.47,32.45c.74,0,1.11-.31,1.11-1.14v-.61c0-.74-.29-1.06-.93-1.06h-.87v2.82h.69Z"/><path class="cls-5" d="M266.36,49.45l-.46,2.02h-.55l1.99-9.11h.87l2.03,9.11h-.6l-.46-2.02h-2.83ZM266.45,48.93h2.65l-1.34-5.89-1.31,5.89Z"/><path class="cls-5" d="M271.16,51.47v-9.1h.6v8.55h2.86v.55h-3.46Z"/><path class="cls-5" d="M276.11,42.37v9.1h-.6v-9.1h.6Z"/><path class="cls-5" d="M281.04,44.59v.68h-.57v-.71c0-.98-.38-1.72-1.38-1.72s-1.38.74-1.38,1.72v4.73c0,.98.38,1.7,1.38,1.7s1.38-.73,1.38-1.7v-1.96h-1.21v-.55h1.78v2.47c0,1.31-.57,2.3-1.96,2.3s-1.96-.99-1.96-2.3v-4.65c0-1.31.57-2.3,1.96-2.3s1.96.99,1.96,2.3Z"/><path class="cls-5" d="M282.58,51.47h-.55v-9.1h.78l2.73,7.68v-7.68h.55v9.1h-.66l-2.85-8.11v8.11Z"/><path class="cls-5" d="M290.17,51.45h-.6l-1.92-8.05v8.06h-.53v-9.1h.86l1.91,8.05,1.9-8.05h.86v9.1h-.57v-8.09l-1.9,8.07Z"/><path class="cls-5" d="M296.76,46.58v.55h-2.48v3.8h2.99v.55h-3.59v-9.1h3.59v.55h-2.99v3.67h2.48Z"/><path class="cls-5" d="M298.79,51.47h-.55v-9.1h.78l2.73,7.68v-7.68h.55v9.1h-.66l-2.85-8.11v8.11Z"/><path class="cls-5" d="M304.86,51.47v-8.55h-1.85v-.55h4.3v.55h-1.86v8.55h-.6Z"/><path class="cls-5" d="M382.88,5.04v1.74c-.14-.03-.3-.03-.45-.03-1,0-1.53.63-1.53,1.83v4.17h-1.81v-7.65h1.57l.03,1.43c.24-1.06.79-1.58,1.68-1.58.24,0,.39.03.51.09Z"/><path class="cls-5" d="M383.82,2.25h2.64l1.25,7.47,1.24-7.47h2.64v10.5h-1.77v-7.89l-1.4,7.89h-1.57l-1.4-7.89v7.89h-1.64V2.25Z"/><path class="cls-5" d="M396.75,10.77h-2.13l-.31,1.98h-1.75l1.93-10.5h2.54l1.95,10.5h-1.9l-.31-1.98ZM396.48,9.15l-.79-5-.79,5h1.59Z"/><path class="cls-5" d="M400.62,3.92h-1.95v-1.67h5.79v1.67h-1.96v8.83h-1.88V3.92Z"/><path class="cls-5" d="M405.12,10.14v-.54h1.77v.6c0,.69.33,1.06.98,1.06.58,0,.98-.35.98-1.08,0-.88-.36-1.26-1.6-2.08-1.59-1.05-2.08-1.94-2.08-3.27,0-1.68.96-2.73,2.77-2.73s2.71,1.05,2.71,2.76v.38h-1.77v-.42c0-.71-.3-1.08-.93-1.08-.59,0-.93.35-.93,1.04,0,.78.39,1.17,1.63,1.98,1.62,1.05,2.07,1.95,2.07,3.35,0,1.74-.99,2.8-2.83,2.8s-2.76-1.06-2.76-2.76Z"/><path class="cls-5" d="M370.87,23.73l-.46,2.02h-.55l1.99-9.11h.87l2.03,9.11h-.6l-.46-2.02h-2.83ZM370.96,23.21h2.65l-1.34-5.89-1.31,5.89Z"/><path class="cls-5" d="M375.67,25.75v-9.1h.6v8.55h2.86v.55h-3.46Z"/><path class="cls-5" d="M380.91,25.75v-8.55h-1.85v-.55h4.3v.55h-1.86v8.55h-.6Z"/><path class="cls-5" d="M387.19,20.86v.55h-2.48v3.8h2.99v.55h-3.59v-9.1h3.59v.55h-2.99v3.67h2.48Z"/><path class="cls-5" d="M390.57,16.65c1.39,0,1.95.77,1.95,2.05v.79c0,1.07-.42,1.68-1.31,1.89.94.21,1.31.87,1.31,1.86v1.42c0,.38.03.79.22,1.09h-.62c-.16-.27-.2-.6-.2-1.09v-1.43c0-1.21-.66-1.55-1.7-1.55h-.95v4.07h-.6v-9.1h1.9ZM390.23,21.13c1.07,0,1.69-.3,1.69-1.52v-.86c0-.98-.38-1.56-1.36-1.56h-1.29v3.94h.96Z"/><path class="cls-5" d="M394.23,25.75h-.55v-9.1h.78l2.73,7.68v-7.68h.55v9.1h-.66l-2.85-8.11v8.11Z"/><path class="cls-5" d="M399.64,23.73l-.46,2.02h-.55l1.99-9.11h.87l2.03,9.11h-.6l-.46-2.02h-2.83ZM399.73,23.21h2.65l-1.34-5.89-1.31,5.89Z"/><path class="cls-5" d="M405.48,25.75v-8.55h-1.85v-.55h4.3v.55h-1.86v8.55h-.6Z"/><path class="cls-5" d="M409.27,16.65v9.1h-.6v-9.1h.6Z"/><path class="cls-5" d="M410.79,16.65l1.85,8.41,1.85-8.41h.56l-1.98,9.1h-.88l-2-9.1h.61Z"/><path class="cls-5" d="M419.04,20.86v.55h-2.48v3.8h2.99v.55h-3.59v-9.1h3.59v.55h-2.99v3.67h2.48Z"/><path class="cls-5" d="M383.09,31.85v.2h-.57v-.23c0-.96-.36-1.69-1.35-1.69s-1.35.71-1.35,1.68c0,2.21,3.29,2.25,3.29,4.76,0,1.31-.57,2.28-1.96,2.28s-1.96-.96-1.96-2.28v-.47h.57v.51c0,.98.38,1.68,1.38,1.68s1.38-.7,1.38-1.68c0-2.18-3.29-2.22-3.29-4.76,0-1.37.6-2.25,1.94-2.26,1.38,0,1.94.96,1.94,2.27Z"/><path class="cls-5" d="M385.95,29.65c1.4,0,1.95.88,1.95,2.21v.99c0,1.44-.66,2.16-2.11,2.16h-1.13v3.74h-.6v-9.1h1.89ZM385.8,34.46c1.05,0,1.51-.47,1.51-1.57v-1.07c0-.99-.34-1.62-1.35-1.62h-1.29v4.26h1.13Z"/><path class="cls-5" d="M388.8,38.75v-9.1h.6v8.55h2.86v.55h-3.46Z"/><path class="cls-5" d="M393.75,29.65v9.1h-.6v-9.1h.6Z"/><path class="cls-5" d="M398.68,31.87v.75h-.57v-.79c0-.98-.38-1.72-1.38-1.72s-1.38.74-1.38,1.72v4.73c0,.98.38,1.7,1.38,1.7s1.38-.73,1.38-1.7v-1.08h.57v1.04c0,1.31-.57,2.3-1.96,2.3s-1.96-.99-1.96-2.3v-4.65c0-1.31.57-2.3,1.96-2.3s1.96.99,1.96,2.3Z"/><path class="cls-5" d="M400.25,29.65v9.1h-.6v-9.1h.6Z"/><path class="cls-5" d="M401.84,38.75h-.55v-9.1h.78l2.73,7.68v-7.68h.55v9.1h-.66l-2.85-8.11v8.11Z"/><path class="cls-5" d="M410.26,31.87v.68h-.57v-.71c0-.98-.38-1.72-1.38-1.72s-1.38.74-1.38,1.72v4.73c0,.98.38,1.7,1.38,1.7s1.38-.73,1.38-1.7v-1.96h-1.21v-.55h1.78v2.47c0,1.31-.57,2.3-1.96,2.3s-1.96-.99-1.96-2.3v-4.65c0-1.31.57-2.3,1.96-2.3s1.96.99,1.96,2.3Z"/><path class="cls-5" d="M377.87,49.73l-.46,2.02h-.55l1.99-9.11h.87l2.03,9.11h-.6l-.46-2.02h-2.83ZM377.96,49.21h2.65l-1.34-5.89-1.31,5.89Z"/><path class="cls-5" d="M383.21,51.75h-.55v-9.1h.78l2.73,7.68v-7.68h.55v9.1h-.66l-2.85-8.11v8.11Z"/><path class="cls-5" d="M388.62,49.73l-.46,2.02h-.55l1.99-9.11h.87l2.03,9.11h-.6l-.46-2.02h-2.83ZM388.71,49.21h2.65l-1.34-5.89-1.31,5.89Z"/><path class="cls-5" d="M393.41,51.75v-9.1h.6v8.55h2.86v.55h-3.46Z"/><path class="cls-5" d="M398.84,48.25l-2.04-5.6h.62l1.74,4.78,1.74-4.78h.59l-2.05,5.6v3.5h-.6v-3.5Z"/><path class="cls-5" d="M406.1,44.85v.2h-.57v-.23c0-.96-.36-1.69-1.35-1.69s-1.35.71-1.35,1.68c0,2.21,3.29,2.25,3.29,4.76,0,1.31-.57,2.28-1.96,2.28s-1.96-.96-1.96-2.28v-.47h.57v.51c0,.98.38,1.68,1.38,1.68s1.38-.7,1.38-1.68c0-2.18-3.29-2.22-3.29-4.76,0-1.37.6-2.25,1.94-2.26,1.38,0,1.94.96,1.94,2.27Z"/><path class="cls-5" d="M407.68,42.65v9.1h-.6v-9.1h.6Z"/><path class="cls-5" d="M412.55,44.85v.2h-.57v-.23c0-.96-.36-1.69-1.35-1.69s-1.35.71-1.35,1.68c0,2.21,3.29,2.25,3.29,4.76,0,1.31-.57,2.28-1.96,2.28s-1.96-.96-1.96-2.28v-.47h.57v.51c0,.98.38,1.68,1.38,1.68s1.38-.7,1.38-1.68c0-2.18-3.29-2.22-3.29-4.76,0-1.37.6-2.25,1.94-2.26,1.38,0,1.94.96,1.94,2.27Z"/><path class="cls-5" d="M251.03,131.83v.64h1.3v1.5h-1.3v6.15h-1.81v-6.15h-.98v-1.5h.98v-.88c0-1.42.7-2.11,2.13-2.11.38,0,.69.04.99.17v1.53c-.23-.06-.44-.09-.61-.09-.51,0-.69.21-.69.75Z"/><path class="cls-5" d="M258.44,134.98v1.74h-3.54v1.08c0,.63.3.93.9.93s.9-.28.9-.96v-.15h1.74v.08c0,1.6-.96,2.58-2.67,2.58s-2.69-.96-2.69-2.65v-2.64c0-1.71.94-2.65,2.69-2.65s2.67.95,2.67,2.65ZM256.67,135.37v-.6c0-.63-.31-.91-.88-.91s-.89.28-.89.91v.6h1.77Z"/><path class="cls-5" d="M263.15,140.13c-.06-.08-.12-.48-.15-1.09-.29.78-.9,1.24-1.81,1.24-1.16,0-1.89-.75-1.89-1.98s.5-1.95,2.04-2.49c1.29-.45,1.47-.61,1.47-1.04v-.07c0-.6-.21-.87-.73-.87-.58,0-.81.35-.81.94v.15h-1.69v-.1c0-1.58.87-2.49,2.52-2.49,1.84,0,2.52.95,2.52,2.73v2.79c0,1.14.09,1.84.21,2.28h-1.67ZM262.8,137.44v-.94c-.16.14-.43.29-.9.48-.58.25-.81.6-.81,1.02,0,.5.23.77.74.77.57,0,.97-.41.97-1.32Z"/><path class="cls-5" d="M268.25,133.98v3.94c0,.54.19.75.71.75.18,0,.39-.03.61-.1v1.53c-.31.13-.61.18-.99.18-1.44,0-2.13-.71-2.13-2.11v-4.19h-.99v-1.5h1.05l.15-2.01h1.59v2.01h1.32v1.5h-1.32Z"/><path class="cls-5" d="M275.87,132.48v7.65h-1.56l-.04-1.11c-.27.79-.9,1.26-1.77,1.26-1.21,0-1.9-.76-1.9-2.4v-5.4h1.81v5.15c0,.73.19,1.08.77,1.08s.9-.38.9-1.29v-4.94h1.8Z"/><path class="cls-5" d="M281.07,132.42v1.74c-.14-.03-.3-.03-.45-.03-1,0-1.53.63-1.53,1.83v4.17h-1.81v-7.65h1.57l.03,1.43c.24-1.06.79-1.58,1.68-1.58.24,0,.39.03.51.09Z"/><path class="cls-5" d="M287.13,134.98v1.74h-3.54v1.08c0,.63.3.93.9.93s.9-.28.9-.96v-.15h1.74v.08c0,1.6-.96,2.58-2.67,2.58s-2.69-.96-2.69-2.65v-2.64c0-1.71.94-2.65,2.69-2.65s2.67.95,2.67,2.65ZM285.36,135.37v-.6c0-.63-.31-.91-.88-.91s-.89.28-.89.91v.6h1.77Z"/><path class="cls-5" d="M288.21,137.47v-5.19c0-1.78.98-2.8,2.76-2.8s2.75,1.02,2.75,2.8v.93h-1.77v-1.02c0-.73-.35-1.08-.93-1.08s-.93.35-.93,1.08v5.37c0,.73.34,1.08.93,1.08s.93-.35.93-1.08v-1.33h1.77v1.25c0,1.78-.96,2.8-2.75,2.8s-2.76-1.02-2.76-2.8Z"/><path class="cls-5" d="M294.68,137.62v-2.64c0-1.71.96-2.65,2.65-2.65s2.66.95,2.66,2.65v2.64c0,1.69-.95,2.65-2.66,2.65s-2.65-.96-2.65-2.65ZM298.19,137.77v-2.94c0-.55-.25-.93-.85-.93s-.84.38-.84.93v2.94c0,.56.25.93.84.93s.85-.38.85-.93Z"/><path class="cls-5" d="M306.44,132.48v7.65h-1.56l-.04-1.11c-.27.79-.9,1.26-1.77,1.26-1.21,0-1.9-.76-1.9-2.4v-5.4h1.81v5.15c0,.73.19,1.08.77,1.08s.9-.38.9-1.29v-4.94h1.8Z"/><path class="cls-5" d="M313.13,134.71v5.41h-1.8v-5.16c0-.73-.21-1.06-.77-1.06s-.9.36-.9,1.29v4.93h-1.81v-7.65h1.57l.03,1.1c.28-.79.92-1.25,1.78-1.25,1.21,0,1.89.77,1.89,2.39Z"/><path class="cls-5" d="M316.82,133.98v3.94c0,.54.19.75.71.75.18,0,.39-.03.61-.1v1.53c-.31.13-.61.18-.99.18-1.44,0-2.13-.71-2.13-2.11v-4.19h-.99v-1.5h1.05l.15-2.01h1.59v2.01h1.32v1.5h-1.32Z"/><path class="cls-5" d="M318.9,137.89v-.23h1.72v.25c0,.6.31.87.81.87.45,0,.78-.23.78-.78s-.56-.77-1.28-1.04c-.94-.36-1.95-.87-1.95-2.4,0-1.36.83-2.25,2.43-2.25,1.49,0,2.43.85,2.43,2.25v.17h-1.69v-.19c0-.51-.24-.75-.72-.75-.36,0-.69.19-.69.7,0,.58.54.81,1.32,1.11.95.36,1.94.84,1.94,2.29s-.84,2.37-2.49,2.37-2.61-.9-2.61-2.38Z"/><path class="cls-5" d="M257.08,146.25v.68h-.57v-.71c0-.98-.38-1.72-1.38-1.72s-1.38.74-1.38,1.72v4.73c0,.98.38,1.7,1.38,1.7s1.38-.73,1.38-1.7v-1.96h-1.21v-.55h1.78v2.47c0,1.31-.57,2.3-1.96,2.3s-1.96-.99-1.96-2.3v-4.65c0-1.31.57-2.3,1.96-2.3s1.96.99,1.96,2.3Z"/><path class="cls-5" d="M261.16,148.24v.55h-2.48v3.8h2.99v.55h-3.59v-9.1h3.59v.55h-2.99v3.67h2.48Z"/><path class="cls-5" d="M263.19,153.13h-.55v-9.1h.78l2.73,7.68v-7.68h.55v9.1h-.66l-2.85-8.11v8.11Z"/><path class="cls-5" d="M270.81,148.24v.55h-2.48v3.8h2.99v.55h-3.59v-9.1h3.59v.55h-2.99v3.67h2.48Z"/><path class="cls-5" d="M277.39,148.24v.55h-2.48v3.8h2.99v.55h-3.59v-9.1h3.59v.55h-2.99v3.67h2.48Z"/><path class="cls-5" d="M281.18,148.89l-1.85,4.24h-.59l2.05-4.72-1.91-4.38h.62l1.72,3.91,1.73-3.91h.57l-1.91,4.38,2.04,4.72h-.64l-1.85-4.24Z"/><path class="cls-5" d="M286.47,144.03c1.4,0,1.95.88,1.95,2.21v.99c0,1.44-.66,2.16-2.11,2.16h-1.13v3.74h-.6v-9.1h1.89ZM286.32,148.84c1.05,0,1.51-.47,1.51-1.57v-1.07c0-.99-.34-1.62-1.35-1.62h-1.29v4.26h1.13Z"/><path class="cls-5" d="M291.22,144.03c1.39,0,1.95.77,1.95,2.05v.79c0,1.07-.42,1.68-1.31,1.89.94.21,1.31.87,1.31,1.86v1.42c0,.38.03.79.22,1.09h-.62c-.16-.27-.2-.6-.2-1.09v-1.43c0-1.21-.66-1.55-1.7-1.55h-.95v4.07h-.6v-9.1h1.9ZM290.88,148.51c1.07,0,1.69-.3,1.69-1.52v-.86c0-.98-.38-1.56-1.36-1.56h-1.29v3.94h.96Z"/><path class="cls-5" d="M297.42,148.24v.55h-2.48v3.8h2.99v.55h-3.59v-9.1h3.59v.55h-2.99v3.67h2.48Z"/><path class="cls-5" d="M302.74,146.22v.2h-.57v-.23c0-.96-.36-1.69-1.35-1.69s-1.35.71-1.35,1.68c0,2.21,3.29,2.25,3.29,4.76,0,1.31-.57,2.28-1.96,2.28s-1.96-.96-1.96-2.28v-.47h.57v.51c0,.98.38,1.68,1.38,1.68s1.38-.7,1.38-1.68c0-2.18-3.29-2.22-3.29-4.76,0-1.37.6-2.25,1.94-2.26,1.38,0,1.94.96,1.94,2.27Z"/><path class="cls-5" d="M307.54,146.22v.2h-.57v-.23c0-.96-.36-1.69-1.35-1.69s-1.35.71-1.35,1.68c0,2.21,3.29,2.25,3.29,4.76,0,1.31-.57,2.28-1.96,2.28s-1.96-.96-1.96-2.28v-.47h.57v.51c0,.98.38,1.68,1.38,1.68s1.38-.7,1.38-1.68c0-2.18-3.29-2.22-3.29-4.76,0-1.37.6-2.25,1.94-2.26,1.38,0,1.94.96,1.94,2.27Z"/><path class="cls-5" d="M309.12,144.03v9.1h-.6v-9.1h.6Z"/><path class="cls-5" d="M310.12,146.25c0-1.33.61-2.3,1.99-2.3s2.02.98,2.02,2.3v4.65c0,1.33-.61,2.3-2.02,2.3s-1.99-.98-1.99-2.3v-4.65ZM310.72,150.94c0,.99.39,1.72,1.39,1.72s1.42-.73,1.42-1.72v-4.73c0-.99-.4-1.72-1.42-1.72s-1.39.73-1.39,1.72v4.73Z"/><path class="cls-5" d="M315.66,153.13h-.55v-9.1h.78l2.73,7.68v-7.68h.55v9.1h-.66l-2.85-8.11v8.11Z"/><path class="cls-5" d="M260.9,159.25v4.65c0,.62-.13,1.17-.43,1.57.16.27.39.36.71.36h.14v.53h-.16c-.51,0-.86-.17-1.08-.53-.3.22-.69.36-1.2.36-1.39,0-2-.98-2-2.3v-4.65c0-1.33.61-2.3,2-2.3s2,.98,2,2.3ZM257.5,159.21v4.73c0,.99.4,1.72,1.4,1.72s1.4-.73,1.4-1.72v-4.73c0-.99-.4-1.72-1.4-1.72s-1.4.73-1.4,1.72Z"/><path class="cls-5" d="M262.57,163.93c0,.98.36,1.73,1.36,1.73s1.37-.75,1.37-1.73v-6.9h.56v6.88c0,1.3-.55,2.3-1.94,2.3s-1.95-1-1.95-2.3v-6.88h.6v6.9Z"/><path class="cls-5" d="M267.75,164.11l-.46,2.02h-.55l1.99-9.11h.87l2.03,9.11h-.6l-.46-2.02h-2.83ZM267.84,163.59h2.65l-1.34-5.89-1.31,5.89Z"/><path class="cls-5" d="M273.1,166.13h-.55v-9.1h.78l2.73,7.68v-7.68h.55v9.1h-.66l-2.85-8.11v8.11Z"/><path class="cls-5" d="M279.17,166.13v-8.55h-1.85v-.55h4.3v.55h-1.86v8.55h-.6Z"/><path class="cls-5" d="M282.96,157.03v9.1h-.6v-9.1h.6Z"/><path class="cls-5" d="M286.95,161.46v.55h-2.35v4.12h-.6v-9.1h3.46v.55h-2.86v3.89h2.35Z"/><path class="cls-5" d="M288.97,157.03v9.1h-.6v-9.1h.6Z"/><path class="cls-5" d="M293.9,159.25v.75h-.57v-.79c0-.98-.38-1.72-1.38-1.72s-1.38.74-1.38,1.72v4.73c0,.98.38,1.7,1.38,1.7s1.38-.73,1.38-1.7v-1.08h.57v1.04c0,1.31-.57,2.3-1.96,2.3s-1.96-.99-1.96-2.3v-4.65c0-1.31.57-2.3,1.96-2.3s1.96.99,1.96,2.3Z"/><path class="cls-5" d="M295.74,164.11l-.46,2.02h-.55l1.99-9.11h.87l2.03,9.11h-.6l-.46-2.02h-2.83ZM295.83,163.59h2.65l-1.34-5.89-1.31,5.89Z"/><path class="cls-5" d="M301.58,166.13v-8.55h-1.85v-.55h4.3v.55h-1.86v8.55h-.6Z"/><path class="cls-5" d="M305.37,157.03v9.1h-.6v-9.1h.6Z"/><path class="cls-5" d="M306.38,159.25c0-1.33.61-2.3,1.99-2.3s2.02.98,2.02,2.3v4.65c0,1.33-.61,2.3-2.02,2.3s-1.99-.98-1.99-2.3v-4.65ZM306.97,163.94c0,.99.39,1.72,1.39,1.72s1.42-.73,1.42-1.72v-4.73c0-.99-.4-1.72-1.42-1.72s-1.39.73-1.39,1.72v4.73Z"/><path class="cls-5" d="M311.91,166.13h-.55v-9.1h.78l2.73,7.68v-7.68h.55v9.1h-.66l-2.85-8.11v8.11Z"/><path class="cls-4" d="M191.25,134.71v5.41h-1.81v-5.19c0-.6-.14-1.03-.75-1.03-.56,0-.87.38-.87,1.29v4.93h-1.81v-5.19c0-.63-.15-1.03-.73-1.03-.55,0-.88.38-.88,1.29v4.93h-1.81v-7.65h1.57l.03,1.1c.28-.79.9-1.25,1.75-1.25s1.42.39,1.71,1.17c.3-.75.92-1.17,1.72-1.17,1.2,0,1.89.77,1.89,2.39Z"/><path class="cls-4" d="M197.82,132.48v7.65h-1.56l-.04-1.11c-.27.79-.9,1.26-1.77,1.26-1.21,0-1.9-.76-1.9-2.4v-5.4h1.81v5.15c0,.73.19,1.08.77,1.08s.9-.38.9-1.29v-4.94h1.8Z"/><path class="cls-4" d="M199.23,129.63h1.81v10.5h-1.81v-10.5Z"/><path class="cls-4" d="M204.79,133.98v3.94c0,.54.19.75.71.75.18,0,.39-.03.61-.1v1.53c-.31.13-.61.18-.99.18-1.44,0-2.13-.71-2.13-2.11v-4.19h-.99v-1.5h1.05l.15-2.01h1.59v2.01h1.32v1.5h-1.32Z"/><path class="cls-4" d="M207.19,129.61h1.81v1.88h-1.81v-1.88ZM207.19,132.48h1.81v7.65h-1.81v-7.65Z"/><path class="cls-4" d="M215.61,132.48v9.97h-1.8v-3.01c-.33.54-.88.84-1.59.84-1.21,0-1.92-.76-1.92-2.4v-3.16c0-1.62.71-2.39,1.92-2.39.88,0,1.54.5,1.81,1.35l.27-1.2h1.3ZM213.81,137.41v-2.22c0-.92-.36-1.29-.93-1.29s-.78.36-.78,1.03v2.73c0,.66.2,1.04.78,1.04s.93-.38.93-1.29Z"/><path class="cls-4" d="M216.84,137.64v-2.67c0-1.69.94-2.64,2.64-2.64s2.58,1.04,2.58,2.64v.34h-1.74v-.49c0-.58-.25-.92-.84-.92s-.83.33-.83.92v2.97c0,.57.25.92.83.92s.84-.35.84-.92v-.66h1.74v.51c0,1.6-.84,2.64-2.58,2.64s-2.64-.96-2.64-2.64Z"/><path class="cls-4" d="M172.81,146.25v4.65c0,.62-.13,1.17-.43,1.57.16.27.39.36.71.36h.14v.53h-.16c-.51,0-.86-.17-1.08-.53-.3.22-.69.36-1.2.36-1.39,0-2-.98-2-2.3v-4.65c0-1.33.61-2.3,2-2.3s2,.98,2,2.3ZM169.4,146.21v4.73c0,.99.4,1.72,1.4,1.72s1.4-.73,1.4-1.72v-4.73c0-.99-.4-1.72-1.4-1.72s-1.4.73-1.4,1.72Z"/><path class="cls-4" d="M174.47,150.93c0,.98.36,1.73,1.37,1.73s1.37-.75,1.37-1.73v-6.9h.56v6.88c0,1.3-.55,2.3-1.94,2.3s-1.95-1-1.95-2.3v-6.88h.6v6.9Z"/><path class="cls-4" d="M179.66,151.11l-.46,2.02h-.55l1.99-9.11h.87l2.03,9.11h-.6l-.46-2.02h-2.83ZM179.75,150.59h2.65l-1.34-5.89-1.31,5.89Z"/><path class="cls-4" d="M184.45,153.13v-9.1h.6v8.55h2.86v.55h-3.46Z"/><path class="cls-4" d="M189.41,144.03v9.1h-.6v-9.1h.6Z"/><path class="cls-4" d="M191.98,153.13v-8.55h-1.85v-.55h4.3v.55h-1.86v8.55h-.6Z"/><path class="cls-4" d="M197.05,149.63l-2.04-5.6h.62l1.74,4.78,1.74-4.78h.58l-2.05,5.6v3.5h-.6v-3.5Z"/><path class="cls-4" d="M206.48,146.25v.75h-.57v-.79c0-.98-.38-1.72-1.38-1.72s-1.38.74-1.38,1.72v4.73c0,.98.38,1.7,1.38,1.7s1.38-.73,1.38-1.7v-1.08h.57v1.04c0,1.31-.57,2.3-1.96,2.3s-1.96-.99-1.96-2.3v-4.65c0-1.31.57-2.3,1.96-2.3s1.96.99,1.96,2.3Z"/><path class="cls-4" d="M207.41,146.25c0-1.33.61-2.3,1.99-2.3s2.02.98,2.02,2.3v4.65c0,1.33-.61,2.3-2.02,2.3s-1.99-.98-1.99-2.3v-4.65ZM208.01,150.94c0,.99.39,1.72,1.39,1.72s1.42-.73,1.42-1.72v-4.73c0-.99-.4-1.72-1.42-1.72s-1.39.73-1.39,1.72v4.73Z"/><path class="cls-4" d="M212.95,153.13h-.55v-9.1h.78l2.73,7.68v-7.68h.55v9.1h-.66l-2.85-8.11v8.11Z"/><path class="cls-4" d="M219.02,153.13v-8.55h-1.85v-.55h4.3v.55h-1.86v8.55h-.6Z"/><path class="cls-4" d="M224.12,144.03c1.39,0,1.95.77,1.95,2.05v.79c0,1.07-.42,1.68-1.31,1.89.94.21,1.31.87,1.31,1.86v1.42c0,.38.03.79.22,1.09h-.62c-.16-.27-.2-.6-.2-1.09v-1.43c0-1.21-.66-1.55-1.7-1.55h-.95v4.07h-.6v-9.1h1.9ZM223.78,148.51c1.07,0,1.69-.3,1.69-1.52v-.86c0-.98-.38-1.56-1.36-1.56h-1.29v3.94h.96Z"/><path class="cls-4" d="M227.2,146.25c0-1.33.61-2.3,1.99-2.3s2.02.98,2.02,2.3v4.65c0,1.33-.61,2.3-2.02,2.3s-1.99-.98-1.99-2.3v-4.65ZM227.8,150.94c0,.99.39,1.72,1.39,1.72s1.42-.73,1.42-1.72v-4.73c0-.99-.4-1.72-1.42-1.72s-1.39.73-1.39,1.72v4.73Z"/><path class="cls-4" d="M232.19,153.13v-9.1h.6v8.55h2.86v.55h-3.46Z"/><path class="cls-5" d="M338.22,100.98v3.16c0,1.64-.71,2.4-1.92,2.4-.88,0-1.54-.48-1.81-1.32l-.27,1.17h-1.32v-10.5h1.81v3.52c.34-.52.9-.83,1.59-.83,1.21,0,1.92.77,1.92,2.39ZM336.4,101.21c0-.67-.19-1.03-.78-1.03s-.92.38-.92,1.29v2.22c0,.92.36,1.29.92,1.29.58,0,.78-.38.78-1.04v-2.73Z"/><path class="cls-5" d="M343,106.4c-.06-.08-.12-.48-.15-1.09-.29.78-.9,1.24-1.81,1.24-1.16,0-1.89-.75-1.89-1.98s.5-1.95,2.04-2.49c1.29-.45,1.47-.61,1.47-1.04v-.07c0-.6-.21-.87-.73-.87-.58,0-.81.35-.81.94v.15h-1.69v-.1c0-1.58.87-2.49,2.52-2.49,1.84,0,2.52.95,2.52,2.73v2.79c0,1.14.09,1.84.21,2.28h-1.67ZM342.66,103.71v-.94c-.16.14-.43.29-.9.48-.58.25-.81.6-.81,1.02,0,.5.23.77.74.77.57,0,.97-.41.97-1.32Z"/><path class="cls-5" d="M354.52,100.98v5.41h-1.81v-5.19c0-.6-.14-1.03-.75-1.03-.56,0-.87.38-.87,1.29v4.93h-1.81v-5.19c0-.63-.15-1.03-.73-1.03-.55,0-.88.38-.88,1.29v4.93h-1.81v-7.65h1.57l.03,1.1c.28-.79.9-1.25,1.75-1.25s1.42.39,1.71,1.17c.3-.75.92-1.17,1.72-1.17,1.2,0,1.89.77,1.89,2.39Z"/><path class="cls-5" d="M355.75,103.74v-5.19c0-1.78.98-2.8,2.76-2.8s2.75,1.02,2.75,2.8v.93h-1.77v-1.02c0-.73-.35-1.08-.93-1.08s-.93.35-.93,1.08v5.37c0,.73.34,1.08.93,1.08s.93-.35.93-1.08v-1.33h1.77v1.25c0,1.78-.96,2.8-2.75,2.8s-2.76-1.02-2.76-2.8Z"/><path class="cls-5" d="M362.22,103.89v-2.64c0-1.71.96-2.65,2.65-2.65s2.66.95,2.66,2.65v2.64c0,1.69-.95,2.65-2.66,2.65s-2.65-.96-2.65-2.65ZM365.73,104.04v-2.94c0-.55-.25-.93-.85-.93s-.84.38-.84.93v2.94c0,.56.25.93.84.93s.85-.38.85-.93Z"/><path class="cls-5" d="M368.22,98.75h1.86l1.11,5.52,1.1-5.52h1.72l-1.78,7.65h-2.22l-1.78-7.65Z"/><path class="cls-5" d="M380.05,101.25v1.74h-3.54v1.08c0,.63.3.93.9.93s.9-.28.9-.96v-.15h1.74v.08c0,1.6-.96,2.58-2.67,2.58s-2.69-.96-2.69-2.65v-2.64c0-1.71.94-2.65,2.69-2.65s2.67.95,2.67,2.65ZM378.28,101.64v-.6c0-.63-.31-.91-.88-.91s-.89.28-.89.91v.6h1.77Z"/><path class="cls-5" d="M385.05,98.69v1.74c-.14-.03-.3-.03-.45-.03-1,0-1.53.63-1.53,1.83v4.17h-1.81v-7.65h1.57l.03,1.43c.24-1.06.79-1.58,1.68-1.58.24,0,.39.03.51.09Z"/><path class="cls-5" d="M389.38,106.4c-.06-.08-.12-.48-.15-1.09-.29.78-.9,1.24-1.81,1.24-1.16,0-1.89-.75-1.89-1.98s.5-1.95,2.04-2.49c1.29-.45,1.47-.61,1.47-1.04v-.07c0-.6-.21-.87-.73-.87-.58,0-.81.35-.81.94v.15h-1.69v-.1c0-1.58.87-2.49,2.52-2.49,1.84,0,2.52.95,2.52,2.73v2.79c0,1.14.09,1.84.21,2.28h-1.67ZM389.04,103.71v-.94c-.16.14-.43.29-.9.48-.58.25-.81.6-.81,1.02,0,.5.22.77.73.77.57,0,.97-.41.97-1.32Z"/><path class="cls-5" d="M397.36,98.75v7.56c0,1.54-.6,2.56-2.67,2.56-1.68,0-2.55-.71-2.59-2.15h1.74c.03.48.27.67.83.67.63,0,.9-.29.9-1.03v-1.14c-.33.54-.88.84-1.59.84-1.21,0-1.92-.76-1.92-2.38v-2.7c0-1.62.71-2.39,1.92-2.39.87,0,1.51.47,1.78,1.27l.05-1.12h1.56ZM395.56,103.2v-1.74c0-.92-.36-1.29-.93-1.29s-.78.36-.78,1.03v2.25c0,.67.19,1.04.78,1.04s.93-.38.93-1.29Z"/><path class="cls-5" d="M403.95,101.25v1.74h-3.54v1.08c0,.63.3.93.9.93s.9-.28.9-.96v-.15h1.74v.08c0,1.6-.96,2.58-2.67,2.58s-2.69-.96-2.69-2.65v-2.64c0-1.71.94-2.65,2.69-2.65s2.67.95,2.67,2.65ZM402.18,101.64v-.6c0-.63-.31-.91-.88-.91s-.89.28-.89.91v.6h1.77Z"/><path class="cls-5" d="M344.48,112.52v.75h-.57v-.79c0-.98-.38-1.72-1.38-1.72s-1.38.74-1.38,1.72v4.73c0,.98.38,1.7,1.38,1.7s1.38-.73,1.38-1.7v-1.08h.57v1.04c0,1.31-.57,2.3-1.96,2.3s-1.96-.99-1.96-2.3v-4.65c0-1.31.57-2.3,1.96-2.3s1.96.99,1.96,2.3Z"/><path class="cls-5" d="M345.42,112.52c0-1.33.61-2.3,1.99-2.3s2.02.98,2.02,2.3v4.65c0,1.33-.61,2.3-2.02,2.3s-1.99-.98-1.99-2.3v-4.65ZM346.01,117.21c0,.99.39,1.72,1.39,1.72s1.42-.73,1.42-1.72v-4.73c0-.99-.4-1.72-1.42-1.72s-1.39.73-1.39,1.72v4.73Z"/><path class="cls-5" d="M350.88,110.3l1.85,8.41,1.85-8.41h.56l-1.98,9.1h-.88l-2-9.1h.61Z"/><path class="cls-5" d="M359.12,114.51v.55h-2.48v3.8h2.99v.55h-3.59v-9.1h3.59v.55h-2.99v3.67h2.48Z"/><path class="cls-5" d="M362.5,110.3c1.39,0,1.95.77,1.95,2.05v.79c0,1.07-.42,1.68-1.31,1.89.94.21,1.31.87,1.31,1.86v1.42c0,.38.03.79.22,1.09h-.62c-.16-.27-.2-.6-.2-1.09v-1.43c0-1.21-.66-1.55-1.7-1.55h-.95v4.07h-.6v-9.1h1.9ZM362.16,114.78c1.07,0,1.69-.3,1.69-1.52v-.86c0-.98-.38-1.56-1.36-1.56h-1.29v3.94h.96Z"/><path class="cls-5" d="M366.49,117.38l-.46,2.02h-.55l1.99-9.11h.87l2.03,9.11h-.6l-.46-2.02h-2.83ZM366.58,116.86h2.65l-1.34-5.89-1.31,5.89Z"/><path class="cls-5" d="M375.16,112.52v.68h-.57v-.71c0-.98-.38-1.72-1.38-1.72s-1.38.74-1.38,1.72v4.73c0,.98.38,1.7,1.38,1.7s1.38-.73,1.38-1.7v-1.96h-1.21v-.55h1.78v2.47c0,1.31-.57,2.3-1.96,2.3s-1.96-.99-1.96-2.3v-4.65c0-1.31.57-2.3,1.96-2.3s1.96.99,1.96,2.3Z"/><path class="cls-5" d="M379.24,114.51v.55h-2.48v3.8h2.99v.55h-3.59v-9.1h3.59v.55h-2.99v3.67h2.48Z"/><path class="cls-5" d="M385.69,114.73v.55h-2.35v4.12h-.6v-9.1h3.46v.55h-2.86v3.89h2.35Z"/><path class="cls-5" d="M387.07,112.52c0-1.33.61-2.3,1.99-2.3s2.02.98,2.02,2.3v4.65c0,1.33-.61,2.3-2.02,2.3s-1.99-.98-1.99-2.3v-4.65ZM387.67,117.21c0,.99.39,1.72,1.39,1.72s1.42-.73,1.42-1.72v-4.73c0-.99-.4-1.72-1.42-1.72s-1.39.73-1.39,1.72v4.73Z"/><path class="cls-5" d="M393.96,110.3c1.39,0,1.95.77,1.95,2.05v.79c0,1.07-.42,1.68-1.31,1.89.94.21,1.31.87,1.31,1.86v1.42c0,.38.03.79.22,1.09h-.62c-.16-.27-.2-.6-.2-1.09v-1.43c0-1.21-.66-1.55-1.7-1.55h-.95v4.07h-.6v-9.1h1.9ZM393.62,114.78c1.07,0,1.69-.3,1.69-1.52v-.86c0-.98-.38-1.56-1.36-1.56h-1.29v3.94h.96Z"/><path class="cls-5" d="M345.77,125.5v.2h-.57v-.23c0-.96-.36-1.69-1.35-1.69s-1.35.71-1.35,1.68c0,2.21,3.29,2.25,3.29,4.76,0,1.31-.57,2.28-1.96,2.28s-1.96-.96-1.96-2.28v-.47h.57v.51c0,.98.38,1.68,1.38,1.68s1.38-.7,1.38-1.68c0-2.18-3.29-2.22-3.29-4.76,0-1.37.6-2.25,1.94-2.26,1.38,0,1.94.96,1.94,2.27Z"/><path class="cls-5" d="M347.62,130.38l-.46,2.02h-.55l1.99-9.11h.87l2.03,9.11h-.6l-.46-2.02h-2.83ZM347.71,129.86h2.65l-1.34-5.89-1.31,5.89Z"/><path class="cls-5" d="M356.25,125.5v.2h-.57v-.23c0-.96-.36-1.69-1.35-1.69s-1.35.71-1.35,1.68c0,2.21,3.29,2.25,3.29,4.76,0,1.31-.57,2.28-1.96,2.28s-1.96-.96-1.96-2.28v-.47h.57v.51c0,.98.38,1.68,1.38,1.68s1.38-.7,1.38-1.68c0-2.18-3.29-2.22-3.29-4.76,0-1.37.6-2.25,1.94-2.26,1.38,0,1.94.96,1.94,2.27Z"/><path class="cls-5" d="M357.82,128.12v4.28h-.6v-9.1h.6v4.28h2.83v-4.28h.61v9.1h-.61v-4.28h-2.83Z"/><path class="cls-5" d="M362.91,123.3v9.1h-.6v-9.1h.6Z"/><path class="cls-5" d="M367,132.39h-.6l-1.92-8.05v8.06h-.53v-9.1h.86l1.91,8.05,1.9-8.05h.86v9.1h-.57v-8.09l-1.9,8.07Z"/><path class="cls-5" d="M371.11,123.3v9.1h-.6v-9.1h.6Z"/><path class="cls-5" d="M376.05,123.3c1.4,0,1.95.88,1.95,2.21v.99c0,1.44-.66,2.16-2.11,2.16h-1.13v3.74h-.6v-9.1h1.89ZM375.89,128.11c1.05,0,1.51-.47,1.51-1.57v-1.07c0-.99-.34-1.62-1.35-1.62h-1.29v4.26h1.13Z"/><path class="cls-5" d="M378.9,132.4v-9.1h.6v8.55h2.86v.55h-3.46Z"/><path class="cls-5" d="M383.21,125.52c0-1.33.61-2.3,1.99-2.3s2.02.98,2.02,2.3v4.65c0,1.33-.61,2.3-2.02,2.3s-1.99-.98-1.99-2.3v-4.65ZM383.81,130.21c0,.99.39,1.72,1.39,1.72s1.42-.73,1.42-1.72v-4.73c0-.99-.4-1.72-1.42-1.72s-1.39.73-1.39,1.72v4.73Z"/><path class="cls-5" d="M389.74,132.4v-8.55h-1.85v-.55h4.3v.55h-1.86v8.55h-.6Z"/><path class="cls-5" d="M396.77,125.5v.2h-.57v-.23c0-.96-.36-1.69-1.35-1.69s-1.35.71-1.35,1.68c0,2.21,3.29,2.25,3.29,4.76,0,1.31-.57,2.28-1.96,2.28s-1.96-.96-1.96-2.28v-.47h.57v.51c0,.98.38,1.68,1.38,1.68s1.38-.7,1.38-1.68c0-2.18-3.29-2.22-3.29-4.76,0-1.37.6-2.25,1.94-2.26,1.38,0,1.94.96,1.94,2.27Z"/><path class="cls-1" d="M37.15,47.06h9.03c2,0,3.61,1.62,3.61,3.61v4.52s-.01.26,0,.27v1.48c0,2,1.62,3.61,3.61,3.61h2.28"/><polyline class="cls-1" points="395.65 60.64 156.14 60.64 113.54 60.64 85.98 60.59 36.97 60.59"/><path class="cls-1" d="M38.87,81.36h7.34c2,0,3.61-1.62,3.61-3.61v-12.34"/><path class="cls-2" d="M39.82,86.21h12.03c2,0,3.61-1.62,3.61-3.61v-13.72"/><path class="cls-2" d="M55.47,71.47v-2.28c0-2,1.62-3.61,3.61-3.61h1.48"/><path class="cls-1" d="M49.81,66.48v-2.28c0-2,1.62-3.61,3.61-3.61h1.48"/><path class="cls-1" d="M357.95,60.64h2.28c2,0,3.61,1.62,3.61,3.61v21.45"/><path class="cls-2" d="M316.82,65.51h3.42s2.28,0,2.28,0c2,0,3.61,1.62,3.61,3.61v1.48c0-.67,0,3.6,0,3.6v2.36l.06,31.84v4.83c0,2-1.62,3.61-3.61,3.61H118.65"/><circle class="cls-3" cx="286.24" cy="117.35" r="5.67"/><circle class="cls-3" cx="202.73" cy="117.41" r="5.67"/><circle class="cls-3" cx="36.97" cy="84.09" r="5.67"/><polyline class="cls-2" points="36.97 65.59 87.17 65.59 113.55 65.51 157.09 65.51 319.76 65.51"/><circle class="cls-3" cx="36.97" cy="63.56" r="5.67"/><circle class="cls-3" cx="120.14" cy="63.56" r="5.67"/><circle class="cls-3" cx="394.79" cy="61.06" r="5.67"/><circle class="cls-3" cx="363.74" cy="86.38" r="5.67"/><path class="cls-2" d="M34.53,42.05h16.78c2,0,3.61,1.62,3.61,3.61v9.62l.03,5.2v1.48c0,2,1.62,3.61,3.61,3.61h2.28"/><circle class="cls-3" cx="36.97" cy="44.09" r="5.67"/><circle class="cls-3" cx="119.73" cy="117.41" r="5.67"/><path class="cls-4" d="M107.12,30.27v.64h1.3v1.5h-1.3v6.15h-1.81v-6.15h-.98v-1.5h.98v-.88c0-1.42.7-2.11,2.13-2.11.38,0,.69.04.99.17v1.53c-.23-.06-.44-.09-.61-.09-.51,0-.69.21-.69.75Z"/><path class="cls-4" d="M112.79,38.57c-.06-.08-.12-.48-.15-1.09-.29.78-.9,1.24-1.81,1.24-1.16,0-1.89-.75-1.89-1.98s.5-1.95,2.04-2.49c1.29-.45,1.47-.61,1.47-1.04v-.07c0-.6-.21-.87-.73-.87-.58,0-.81.35-.81.94v.15h-1.69v-.1c0-1.58.87-2.49,2.52-2.49,1.84,0,2.52.95,2.52,2.73v2.79c0,1.14.09,1.84.21,2.28h-1.67ZM112.45,35.88v-.94c-.16.14-.43.29-.9.48-.58.25-.81.6-.81,1.02,0,.5.22.77.73.77.57,0,.97-.41.97-1.32Z"/><path class="cls-4" d="M115.31,36.33v-.23h1.72v.25c0,.6.31.87.81.87.45,0,.78-.23.78-.78s-.56-.77-1.28-1.04c-.94-.36-1.95-.87-1.95-2.4,0-1.36.83-2.25,2.43-2.25,1.49,0,2.43.85,2.43,2.25v.17h-1.69v-.19c0-.51-.24-.75-.72-.75-.36,0-.69.19-.69.7,0,.58.54.81,1.32,1.11.95.36,1.94.84,1.94,2.29s-.84,2.37-2.49,2.37-2.61-.9-2.61-2.38Z"/><path class="cls-4" d="M123.76,32.42v3.94c0,.54.19.75.71.75.18,0,.39-.03.61-.1v1.53c-.31.13-.61.18-.99.18-1.44,0-2.13-.71-2.13-2.11v-4.19h-.99v-1.5h1.05l.15-2.01h1.59v2.01h1.32v1.5h-1.32Z"/><path class="cls-4" d="M131.33,30.92v9.97h-1.8v-3.01c-.33.54-.88.84-1.59.84-1.21,0-1.92-.76-1.92-2.4v-3.16c0-1.62.71-2.39,1.92-2.39.88,0,1.54.5,1.81,1.35l.27-1.2h1.3ZM129.53,35.85v-2.22c0-.92-.36-1.29-.93-1.29s-.78.36-.78,1.03v2.73c0,.66.2,1.04.78,1.04s.93-.38.93-1.29Z"/><path class="cls-4" d="M132.56,36.08v-2.67c0-1.69.94-2.64,2.64-2.64s2.58,1.04,2.58,2.64v.34h-1.74v-.49c0-.58-.25-.92-.84-.92s-.83.33-.83.92v2.97c0,.57.25.92.83.92s.84-.35.84-.92v-.66h1.74v.51c0,1.6-.84,2.64-2.58,2.64s-2.64-.96-2.64-2.64Z"/><path class="cls-4" d="M91.77,44.69v4.65c0,.62-.13,1.17-.43,1.57.16.27.39.36.71.36h.14v.53h-.16c-.51,0-.86-.17-1.08-.53-.3.22-.69.36-1.2.36-1.39,0-2-.98-2-2.3v-4.65c0-1.33.61-2.3,2-2.3s2,.98,2,2.3ZM88.37,44.65v4.73c0,.99.4,1.72,1.4,1.72s1.4-.73,1.4-1.72v-4.73c0-.99-.4-1.72-1.4-1.72s-1.4.73-1.4,1.72Z"/><path class="cls-4" d="M93.44,49.37c0,.98.36,1.73,1.37,1.73s1.37-.75,1.37-1.73v-6.9h.56v6.88c0,1.3-.55,2.3-1.94,2.3s-1.95-1-1.95-2.3v-6.88h.6v6.9Z"/><path class="cls-4" d="M98.62,49.55l-.46,2.02h-.55l1.99-9.11h.87l2.03,9.11h-.6l-.46-2.02h-2.83ZM98.71,49.03h2.65l-1.34-5.89-1.31,5.89Z"/><path class="cls-4" d="M103.42,51.57v-9.1h.6v8.55h2.86v.55h-3.46Z"/><path class="cls-4" d="M108.37,42.47v9.1h-.6v-9.1h.6Z"/><path class="cls-4" d="M110.95,51.57v-8.55h-1.85v-.55h4.3v.55h-1.86v8.55h-.6Z"/><path class="cls-4" d="M116.02,48.07l-2.04-5.6h.62l1.74,4.78,1.74-4.78h.58l-2.05,5.6v3.5h-.6v-3.5Z"/><path class="cls-4" d="M125.44,44.69v.75h-.57v-.79c0-.98-.38-1.72-1.38-1.72s-1.38.74-1.38,1.72v4.73c0,.98.38,1.7,1.38,1.7s1.38-.73,1.38-1.7v-1.08h.57v1.04c0,1.31-.57,2.3-1.96,2.3s-1.96-.99-1.96-2.3v-4.65c0-1.31.57-2.3,1.96-2.3s1.96.99,1.96,2.3Z"/><path class="cls-4" d="M126.38,44.69c0-1.33.61-2.3,1.99-2.3s2.02.98,2.02,2.3v4.65c0,1.33-.61,2.3-2.02,2.3s-1.99-.98-1.99-2.3v-4.65ZM126.97,49.38c0,.99.39,1.72,1.39,1.72s1.42-.73,1.42-1.72v-4.73c0-.99-.4-1.72-1.42-1.72s-1.39.73-1.39,1.72v4.73Z"/><path class="cls-4" d="M131.91,51.57h-.55v-9.1h.78l2.73,7.68v-7.68h.55v9.1h-.66l-2.85-8.11v8.11Z"/><path class="cls-4" d="M137.99,51.57v-8.55h-1.85v-.55h4.3v.55h-1.86v8.55h-.6Z"/><path class="cls-4" d="M143.08,42.47c1.39,0,1.95.77,1.95,2.05v.79c0,1.07-.42,1.68-1.31,1.89.94.21,1.31.87,1.31,1.86v1.42c0,.38.03.79.22,1.09h-.62c-.16-.27-.2-.6-.2-1.09v-1.43c0-1.21-.66-1.55-1.7-1.55h-.95v4.07h-.6v-9.1h1.9ZM142.74,46.95c1.07,0,1.69-.3,1.69-1.52v-.86c0-.98-.38-1.56-1.36-1.56h-1.29v3.94h.96Z"/><path class="cls-4" d="M146.16,44.69c0-1.33.61-2.3,1.99-2.3s2.02.98,2.02,2.3v4.65c0,1.33-.61,2.3-2.02,2.3s-1.99-.98-1.99-2.3v-4.65ZM146.76,49.38c0,.99.39,1.72,1.39,1.72s1.42-.73,1.42-1.72v-4.73c0-.99-.4-1.72-1.42-1.72s-1.39.73-1.39,1.72v4.73Z"/><path class="cls-4" d="M151.15,51.57v-9.1h.6v8.55h2.86v.55h-3.46Z"/><path class="cls-4" d="M110.32,131.29h-1.95v-1.67h5.79v1.67h-1.96v8.83h-1.88v-8.83Z"/><path class="cls-4" d="M115.14,129.63h2.76c1.89,0,2.79.92,2.79,2.74v.83c0,1.83-.9,2.76-2.79,2.76h-.89v4.17h-1.87v-10.5ZM117.9,134.29c.63,0,.92-.28.92-1.03v-.94c0-.75-.29-1.02-.92-1.02h-.89v3h.89Z"/><path class="cls-4" d="M121.75,129.63h2.64l1.25,7.47,1.24-7.47h2.64v10.5h-1.77v-7.89l-1.4,7.89h-1.57l-1.4-7.89v7.89h-1.64v-10.5Z"/><path class="cls-4" d="M88.4,147.71v5.41h-1.8v-5.16c0-.73-.21-1.06-.77-1.06s-.9.36-.9,1.29v4.93h-1.81v-7.65h1.57l.03,1.1c.28-.79.92-1.25,1.78-1.25,1.21,0,1.89.77,1.89,2.39Z"/><path class="cls-4" d="M89.57,150.62v-2.64c0-1.71.96-2.65,2.65-2.65s2.66.95,2.66,2.65v2.64c0,1.69-.95,2.65-2.66,2.65s-2.65-.96-2.65-2.65ZM93.08,150.77v-2.94c0-.55-.25-.93-.85-.93s-.84.38-.84.93v2.94c0,.56.25.93.84.93s.85-.38.85-.93Z"/><path class="cls-4" d="M99.91,145.42v1.74c-.14-.03-.3-.03-.45-.03-1,0-1.53.63-1.53,1.83v4.17h-1.81v-7.65h1.57l.03,1.43c.24-1.06.79-1.58,1.68-1.58.24,0,.39.03.51.09Z"/><path class="cls-4" d="M109.52,147.71v5.41h-1.81v-5.19c0-.6-.14-1.03-.75-1.03-.56,0-.87.38-.87,1.29v4.93h-1.81v-5.19c0-.63-.15-1.03-.73-1.03-.55,0-.88.38-.88,1.29v4.93h-1.81v-7.65h1.57l.03,1.1c.28-.79.9-1.25,1.75-1.25s1.42.39,1.71,1.17c.3-.75.92-1.17,1.72-1.17,1.2,0,1.89.77,1.89,2.39Z"/><path class="cls-4" d="M114.38,153.13c-.06-.08-.12-.48-.15-1.09-.29.78-.9,1.24-1.81,1.24-1.16,0-1.89-.75-1.89-1.98s.5-1.95,2.04-2.49c1.29-.45,1.47-.61,1.47-1.04v-.07c0-.6-.21-.87-.73-.87-.58,0-.81.35-.81.94v.15h-1.69v-.1c0-1.58.87-2.49,2.52-2.49,1.84,0,2.52.95,2.52,2.73v2.79c0,1.14.09,1.84.21,2.28h-1.67ZM114.04,150.44v-.94c-.16.14-.43.29-.9.48-.58.25-.81.6-.81,1.02,0,.5.22.77.73.77.57,0,.97-.41.97-1.32Z"/><path class="cls-4" d="M117.22,142.63h1.81v10.5h-1.81v-10.5Z"/><path class="cls-4" d="M120.44,142.61h1.81v1.88h-1.81v-1.88ZM120.44,145.48h1.81v7.65h-1.81v-7.65Z"/><path class="cls-4" d="M123.34,151.63l3.04-4.62h-2.88v-1.53h4.78v1.49l-3.04,4.63h3.04v1.53h-4.95v-1.5Z"/><path class="cls-4" d="M132.92,153.13c-.06-.08-.12-.48-.15-1.09-.29.78-.9,1.24-1.81,1.24-1.16,0-1.89-.75-1.89-1.98s.5-1.95,2.04-2.49c1.29-.45,1.47-.61,1.47-1.04v-.07c0-.6-.21-.87-.73-.87-.58,0-.81.35-.81.94v.15h-1.69v-.1c0-1.58.87-2.49,2.52-2.49,1.84,0,2.52.95,2.52,2.73v2.79c0,1.14.09,1.84.21,2.28h-1.67ZM132.58,150.44v-.94c-.16.14-.43.29-.9.48-.58.25-.81.6-.81,1.02,0,.5.23.77.74.77.57,0,.97-.41.97-1.32Z"/><path class="cls-4" d="M138.02,146.98v3.94c0,.54.19.75.71.75.18,0,.39-.03.61-.1v1.53c-.31.13-.61.18-.99.18-1.44,0-2.13-.71-2.13-2.11v-4.19h-.99v-1.5h1.05l.15-2.01h1.59v2.01h1.32v1.5h-1.32Z"/><path class="cls-4" d="M140.42,142.61h1.81v1.88h-1.81v-1.88ZM140.42,145.48h1.81v7.65h-1.81v-7.65Z"/><path class="cls-4" d="M143.47,150.62v-2.64c0-1.71.96-2.65,2.65-2.65s2.66.95,2.66,2.65v2.64c0,1.69-.95,2.65-2.66,2.65s-2.65-.96-2.65-2.65ZM146.98,150.77v-2.94c0-.55-.25-.93-.85-.93s-.84.38-.84.93v2.94c0,.56.25.93.84.93s.85-.38.85-.93Z"/><path class="cls-4" d="M155.29,147.71v5.41h-1.8v-5.16c0-.73-.21-1.06-.77-1.06s-.9.36-.9,1.29v4.93h-1.81v-7.65h1.57l.03,1.1c.28-.79.92-1.25,1.78-1.25,1.21,0,1.89.77,1.89,2.39Z"/><circle class="cls-3" cx="203.31" cy="63.56" r="5.67"/><circle class="cls-3" cx="286.49" cy="63.56" r="5.67"/></svg>